%TF.GenerationSoftware,KiCad,Pcbnew,7.0.10-7.0.10~ubuntu22.04.1*%
%TF.CreationDate,2024-01-22T23:32:41-05:00*%
%TF.ProjectId,arduino_icsp_shield,61726475-696e-46f5-9f69-6373705f7368,rev?*%
%TF.SameCoordinates,Original*%
%TF.FileFunction,Legend,Top*%
%TF.FilePolarity,Positive*%
%FSLAX46Y46*%
G04 Gerber Fmt 4.6, Leading zero omitted, Abs format (unit mm)*
G04 Created by KiCad (PCBNEW 7.0.10-7.0.10~ubuntu22.04.1) date 2024-01-22 23:32:41*
%MOMM*%
%LPD*%
G01*
G04 APERTURE LIST*
G04 Aperture macros list*
%AMRoundRect*
0 Rectangle with rounded corners*
0 $1 Rounding radius*
0 $2 $3 $4 $5 $6 $7 $8 $9 X,Y pos of 4 corners*
0 Add a 4 corners polygon primitive as box body*
4,1,4,$2,$3,$4,$5,$6,$7,$8,$9,$2,$3,0*
0 Add four circle primitives for the rounded corners*
1,1,$1+$1,$2,$3*
1,1,$1+$1,$4,$5*
1,1,$1+$1,$6,$7*
1,1,$1+$1,$8,$9*
0 Add four rect primitives between the rounded corners*
20,1,$1+$1,$2,$3,$4,$5,0*
20,1,$1+$1,$4,$5,$6,$7,0*
20,1,$1+$1,$6,$7,$8,$9,0*
20,1,$1+$1,$8,$9,$2,$3,0*%
G04 Aperture macros list end*
%ADD10C,0.150000*%
%ADD11C,0.450000*%
%ADD12C,0.400000*%
%ADD13C,0.300000*%
%ADD14C,0.120000*%
%ADD15C,0.100000*%
%ADD16R,1.700000X1.700000*%
%ADD17O,1.700000X1.700000*%
%ADD18RoundRect,0.225000X-0.250000X0.225000X-0.250000X-0.225000X0.250000X-0.225000X0.250000X0.225000X0*%
%ADD19RoundRect,0.225000X0.250000X-0.225000X0.250000X0.225000X-0.250000X0.225000X-0.250000X-0.225000X0*%
%ADD20R,1.000000X3.000000*%
%ADD21RoundRect,0.100000X0.100000X-0.637500X0.100000X0.637500X-0.100000X0.637500X-0.100000X-0.637500X0*%
%ADD22RoundRect,0.250000X-0.450000X0.262500X-0.450000X-0.262500X0.450000X-0.262500X0.450000X0.262500X0*%
%ADD23RoundRect,0.250000X0.450000X-0.262500X0.450000X0.262500X-0.450000X0.262500X-0.450000X-0.262500X0*%
%ADD24RoundRect,0.250000X0.600000X-0.600000X0.600000X0.600000X-0.600000X0.600000X-0.600000X-0.600000X0*%
%ADD25C,1.700000*%
%ADD26C,3.200000*%
%ADD27R,1.800000X1.800000*%
%ADD28C,1.800000*%
G04 APERTURE END LIST*
D10*
X108255000Y-69520000D02*
X107620000Y-70155000D01*
X107620000Y-68885000D01*
X108255000Y-69520000D01*
G36*
X108255000Y-69520000D02*
G01*
X107620000Y-70155000D01*
X107620000Y-68885000D01*
X108255000Y-69520000D01*
G37*
X117780000Y-70155000D02*
X117145000Y-69520000D01*
X117780000Y-68885000D01*
X117780000Y-70155000D01*
G36*
X117780000Y-70155000D02*
G01*
X117145000Y-69520000D01*
X117780000Y-68885000D01*
X117780000Y-70155000D01*
G37*
X118656541Y-68974819D02*
X119275588Y-68974819D01*
X119275588Y-68974819D02*
X118942255Y-69355771D01*
X118942255Y-69355771D02*
X119085112Y-69355771D01*
X119085112Y-69355771D02*
X119180350Y-69403390D01*
X119180350Y-69403390D02*
X119227969Y-69451009D01*
X119227969Y-69451009D02*
X119275588Y-69546247D01*
X119275588Y-69546247D02*
X119275588Y-69784342D01*
X119275588Y-69784342D02*
X119227969Y-69879580D01*
X119227969Y-69879580D02*
X119180350Y-69927200D01*
X119180350Y-69927200D02*
X119085112Y-69974819D01*
X119085112Y-69974819D02*
X118799398Y-69974819D01*
X118799398Y-69974819D02*
X118704160Y-69927200D01*
X118704160Y-69927200D02*
X118656541Y-69879580D01*
X119561303Y-68974819D02*
X119894636Y-69974819D01*
X119894636Y-69974819D02*
X120227969Y-68974819D01*
X120466065Y-68974819D02*
X121085112Y-68974819D01*
X121085112Y-68974819D02*
X120751779Y-69355771D01*
X120751779Y-69355771D02*
X120894636Y-69355771D01*
X120894636Y-69355771D02*
X120989874Y-69403390D01*
X120989874Y-69403390D02*
X121037493Y-69451009D01*
X121037493Y-69451009D02*
X121085112Y-69546247D01*
X121085112Y-69546247D02*
X121085112Y-69784342D01*
X121085112Y-69784342D02*
X121037493Y-69879580D01*
X121037493Y-69879580D02*
X120989874Y-69927200D01*
X120989874Y-69927200D02*
X120894636Y-69974819D01*
X120894636Y-69974819D02*
X120608922Y-69974819D01*
X120608922Y-69974819D02*
X120513684Y-69927200D01*
X120513684Y-69927200D02*
X120466065Y-69879580D01*
X105791077Y-68974819D02*
X105314887Y-68974819D01*
X105314887Y-68974819D02*
X105267268Y-69451009D01*
X105267268Y-69451009D02*
X105314887Y-69403390D01*
X105314887Y-69403390D02*
X105410125Y-69355771D01*
X105410125Y-69355771D02*
X105648220Y-69355771D01*
X105648220Y-69355771D02*
X105743458Y-69403390D01*
X105743458Y-69403390D02*
X105791077Y-69451009D01*
X105791077Y-69451009D02*
X105838696Y-69546247D01*
X105838696Y-69546247D02*
X105838696Y-69784342D01*
X105838696Y-69784342D02*
X105791077Y-69879580D01*
X105791077Y-69879580D02*
X105743458Y-69927200D01*
X105743458Y-69927200D02*
X105648220Y-69974819D01*
X105648220Y-69974819D02*
X105410125Y-69974819D01*
X105410125Y-69974819D02*
X105314887Y-69927200D01*
X105314887Y-69927200D02*
X105267268Y-69879580D01*
X106124411Y-68974819D02*
X106457744Y-69974819D01*
X106457744Y-69974819D02*
X106791077Y-68974819D01*
X138100000Y-86030000D02*
X145720000Y-86030000D01*
X145720000Y-91110000D01*
X138100000Y-91110000D01*
X138100000Y-86030000D01*
X143904819Y-87109523D02*
X143904819Y-87299999D01*
X143904819Y-87299999D02*
X143952438Y-87395237D01*
X143952438Y-87395237D02*
X144000057Y-87442856D01*
X144000057Y-87442856D02*
X144142914Y-87538094D01*
X144142914Y-87538094D02*
X144333390Y-87585713D01*
X144333390Y-87585713D02*
X144714342Y-87585713D01*
X144714342Y-87585713D02*
X144809580Y-87538094D01*
X144809580Y-87538094D02*
X144857200Y-87490475D01*
X144857200Y-87490475D02*
X144904819Y-87395237D01*
X144904819Y-87395237D02*
X144904819Y-87204761D01*
X144904819Y-87204761D02*
X144857200Y-87109523D01*
X144857200Y-87109523D02*
X144809580Y-87061904D01*
X144809580Y-87061904D02*
X144714342Y-87014285D01*
X144714342Y-87014285D02*
X144476247Y-87014285D01*
X144476247Y-87014285D02*
X144381009Y-87061904D01*
X144381009Y-87061904D02*
X144333390Y-87109523D01*
X144333390Y-87109523D02*
X144285771Y-87204761D01*
X144285771Y-87204761D02*
X144285771Y-87395237D01*
X144285771Y-87395237D02*
X144333390Y-87490475D01*
X144333390Y-87490475D02*
X144381009Y-87538094D01*
X144381009Y-87538094D02*
X144476247Y-87585713D01*
X143904819Y-89601904D02*
X143904819Y-90078094D01*
X143904819Y-90078094D02*
X144381009Y-90125713D01*
X144381009Y-90125713D02*
X144333390Y-90078094D01*
X144333390Y-90078094D02*
X144285771Y-89982856D01*
X144285771Y-89982856D02*
X144285771Y-89744761D01*
X144285771Y-89744761D02*
X144333390Y-89649523D01*
X144333390Y-89649523D02*
X144381009Y-89601904D01*
X144381009Y-89601904D02*
X144476247Y-89554285D01*
X144476247Y-89554285D02*
X144714342Y-89554285D01*
X144714342Y-89554285D02*
X144809580Y-89601904D01*
X144809580Y-89601904D02*
X144857200Y-89649523D01*
X144857200Y-89649523D02*
X144904819Y-89744761D01*
X144904819Y-89744761D02*
X144904819Y-89982856D01*
X144904819Y-89982856D02*
X144857200Y-90078094D01*
X144857200Y-90078094D02*
X144809580Y-90125713D01*
X138824819Y-85201077D02*
X139824819Y-84867744D01*
X139824819Y-84867744D02*
X138824819Y-84534411D01*
X139729580Y-83629649D02*
X139777200Y-83677268D01*
X139777200Y-83677268D02*
X139824819Y-83820125D01*
X139824819Y-83820125D02*
X139824819Y-83915363D01*
X139824819Y-83915363D02*
X139777200Y-84058220D01*
X139777200Y-84058220D02*
X139681961Y-84153458D01*
X139681961Y-84153458D02*
X139586723Y-84201077D01*
X139586723Y-84201077D02*
X139396247Y-84248696D01*
X139396247Y-84248696D02*
X139253390Y-84248696D01*
X139253390Y-84248696D02*
X139062914Y-84201077D01*
X139062914Y-84201077D02*
X138967676Y-84153458D01*
X138967676Y-84153458D02*
X138872438Y-84058220D01*
X138872438Y-84058220D02*
X138824819Y-83915363D01*
X138824819Y-83915363D02*
X138824819Y-83820125D01*
X138824819Y-83820125D02*
X138872438Y-83677268D01*
X138872438Y-83677268D02*
X138920057Y-83629649D01*
X139729580Y-82629649D02*
X139777200Y-82677268D01*
X139777200Y-82677268D02*
X139824819Y-82820125D01*
X139824819Y-82820125D02*
X139824819Y-82915363D01*
X139824819Y-82915363D02*
X139777200Y-83058220D01*
X139777200Y-83058220D02*
X139681961Y-83153458D01*
X139681961Y-83153458D02*
X139586723Y-83201077D01*
X139586723Y-83201077D02*
X139396247Y-83248696D01*
X139396247Y-83248696D02*
X139253390Y-83248696D01*
X139253390Y-83248696D02*
X139062914Y-83201077D01*
X139062914Y-83201077D02*
X138967676Y-83153458D01*
X138967676Y-83153458D02*
X138872438Y-83058220D01*
X138872438Y-83058220D02*
X138824819Y-82915363D01*
X138824819Y-82915363D02*
X138824819Y-82820125D01*
X138824819Y-82820125D02*
X138872438Y-82677268D01*
X138872438Y-82677268D02*
X138920057Y-82629649D01*
X139824819Y-89554285D02*
X139824819Y-90125713D01*
X139824819Y-89839999D02*
X138824819Y-89839999D01*
X138824819Y-89839999D02*
X138967676Y-89935237D01*
X138967676Y-89935237D02*
X139062914Y-90030475D01*
X139062914Y-90030475D02*
X139110533Y-90125713D01*
X138920057Y-87585713D02*
X138872438Y-87538094D01*
X138872438Y-87538094D02*
X138824819Y-87442856D01*
X138824819Y-87442856D02*
X138824819Y-87204761D01*
X138824819Y-87204761D02*
X138872438Y-87109523D01*
X138872438Y-87109523D02*
X138920057Y-87061904D01*
X138920057Y-87061904D02*
X139015295Y-87014285D01*
X139015295Y-87014285D02*
X139110533Y-87014285D01*
X139110533Y-87014285D02*
X139253390Y-87061904D01*
X139253390Y-87061904D02*
X139824819Y-87633332D01*
X139824819Y-87633332D02*
X139824819Y-87014285D01*
X141698152Y-87109523D02*
X142364819Y-87109523D01*
X141317200Y-87347618D02*
X142031485Y-87585713D01*
X142031485Y-87585713D02*
X142031485Y-86966666D01*
X144904819Y-95557970D02*
X144428628Y-95891303D01*
X144904819Y-96129398D02*
X143904819Y-96129398D01*
X143904819Y-96129398D02*
X143904819Y-95748446D01*
X143904819Y-95748446D02*
X143952438Y-95653208D01*
X143952438Y-95653208D02*
X144000057Y-95605589D01*
X144000057Y-95605589D02*
X144095295Y-95557970D01*
X144095295Y-95557970D02*
X144238152Y-95557970D01*
X144238152Y-95557970D02*
X144333390Y-95605589D01*
X144333390Y-95605589D02*
X144381009Y-95653208D01*
X144381009Y-95653208D02*
X144428628Y-95748446D01*
X144428628Y-95748446D02*
X144428628Y-96129398D01*
X144381009Y-95129398D02*
X144381009Y-94796065D01*
X144904819Y-94653208D02*
X144904819Y-95129398D01*
X144904819Y-95129398D02*
X143904819Y-95129398D01*
X143904819Y-95129398D02*
X143904819Y-94653208D01*
X144857200Y-94272255D02*
X144904819Y-94129398D01*
X144904819Y-94129398D02*
X144904819Y-93891303D01*
X144904819Y-93891303D02*
X144857200Y-93796065D01*
X144857200Y-93796065D02*
X144809580Y-93748446D01*
X144809580Y-93748446D02*
X144714342Y-93700827D01*
X144714342Y-93700827D02*
X144619104Y-93700827D01*
X144619104Y-93700827D02*
X144523866Y-93748446D01*
X144523866Y-93748446D02*
X144476247Y-93796065D01*
X144476247Y-93796065D02*
X144428628Y-93891303D01*
X144428628Y-93891303D02*
X144381009Y-94081779D01*
X144381009Y-94081779D02*
X144333390Y-94177017D01*
X144333390Y-94177017D02*
X144285771Y-94224636D01*
X144285771Y-94224636D02*
X144190533Y-94272255D01*
X144190533Y-94272255D02*
X144095295Y-94272255D01*
X144095295Y-94272255D02*
X144000057Y-94224636D01*
X144000057Y-94224636D02*
X143952438Y-94177017D01*
X143952438Y-94177017D02*
X143904819Y-94081779D01*
X143904819Y-94081779D02*
X143904819Y-93843684D01*
X143904819Y-93843684D02*
X143952438Y-93700827D01*
X144381009Y-93272255D02*
X144381009Y-92938922D01*
X144904819Y-92796065D02*
X144904819Y-93272255D01*
X144904819Y-93272255D02*
X143904819Y-93272255D01*
X143904819Y-93272255D02*
X143904819Y-92796065D01*
X143904819Y-92510350D02*
X143904819Y-91938922D01*
X144904819Y-92224636D02*
X143904819Y-92224636D01*
X142364819Y-85058220D02*
X141364819Y-85058220D01*
X141364819Y-85058220D02*
X142079104Y-84724887D01*
X142079104Y-84724887D02*
X141364819Y-84391554D01*
X141364819Y-84391554D02*
X142364819Y-84391554D01*
X141364819Y-83724887D02*
X141364819Y-83534411D01*
X141364819Y-83534411D02*
X141412438Y-83439173D01*
X141412438Y-83439173D02*
X141507676Y-83343935D01*
X141507676Y-83343935D02*
X141698152Y-83296316D01*
X141698152Y-83296316D02*
X142031485Y-83296316D01*
X142031485Y-83296316D02*
X142221961Y-83343935D01*
X142221961Y-83343935D02*
X142317200Y-83439173D01*
X142317200Y-83439173D02*
X142364819Y-83534411D01*
X142364819Y-83534411D02*
X142364819Y-83724887D01*
X142364819Y-83724887D02*
X142317200Y-83820125D01*
X142317200Y-83820125D02*
X142221961Y-83915363D01*
X142221961Y-83915363D02*
X142031485Y-83962982D01*
X142031485Y-83962982D02*
X141698152Y-83962982D01*
X141698152Y-83962982D02*
X141507676Y-83915363D01*
X141507676Y-83915363D02*
X141412438Y-83820125D01*
X141412438Y-83820125D02*
X141364819Y-83724887D01*
X142317200Y-82915363D02*
X142364819Y-82772506D01*
X142364819Y-82772506D02*
X142364819Y-82534411D01*
X142364819Y-82534411D02*
X142317200Y-82439173D01*
X142317200Y-82439173D02*
X142269580Y-82391554D01*
X142269580Y-82391554D02*
X142174342Y-82343935D01*
X142174342Y-82343935D02*
X142079104Y-82343935D01*
X142079104Y-82343935D02*
X141983866Y-82391554D01*
X141983866Y-82391554D02*
X141936247Y-82439173D01*
X141936247Y-82439173D02*
X141888628Y-82534411D01*
X141888628Y-82534411D02*
X141841009Y-82724887D01*
X141841009Y-82724887D02*
X141793390Y-82820125D01*
X141793390Y-82820125D02*
X141745771Y-82867744D01*
X141745771Y-82867744D02*
X141650533Y-82915363D01*
X141650533Y-82915363D02*
X141555295Y-82915363D01*
X141555295Y-82915363D02*
X141460057Y-82867744D01*
X141460057Y-82867744D02*
X141412438Y-82820125D01*
X141412438Y-82820125D02*
X141364819Y-82724887D01*
X141364819Y-82724887D02*
X141364819Y-82486792D01*
X141364819Y-82486792D02*
X141412438Y-82343935D01*
X142364819Y-81915363D02*
X141364819Y-81915363D01*
X143952438Y-84534411D02*
X143904819Y-84629649D01*
X143904819Y-84629649D02*
X143904819Y-84772506D01*
X143904819Y-84772506D02*
X143952438Y-84915363D01*
X143952438Y-84915363D02*
X144047676Y-85010601D01*
X144047676Y-85010601D02*
X144142914Y-85058220D01*
X144142914Y-85058220D02*
X144333390Y-85105839D01*
X144333390Y-85105839D02*
X144476247Y-85105839D01*
X144476247Y-85105839D02*
X144666723Y-85058220D01*
X144666723Y-85058220D02*
X144761961Y-85010601D01*
X144761961Y-85010601D02*
X144857200Y-84915363D01*
X144857200Y-84915363D02*
X144904819Y-84772506D01*
X144904819Y-84772506D02*
X144904819Y-84677268D01*
X144904819Y-84677268D02*
X144857200Y-84534411D01*
X144857200Y-84534411D02*
X144809580Y-84486792D01*
X144809580Y-84486792D02*
X144476247Y-84486792D01*
X144476247Y-84486792D02*
X144476247Y-84677268D01*
X144904819Y-84058220D02*
X143904819Y-84058220D01*
X143904819Y-84058220D02*
X144904819Y-83486792D01*
X144904819Y-83486792D02*
X143904819Y-83486792D01*
X144904819Y-83010601D02*
X143904819Y-83010601D01*
X143904819Y-83010601D02*
X143904819Y-82772506D01*
X143904819Y-82772506D02*
X143952438Y-82629649D01*
X143952438Y-82629649D02*
X144047676Y-82534411D01*
X144047676Y-82534411D02*
X144142914Y-82486792D01*
X144142914Y-82486792D02*
X144333390Y-82439173D01*
X144333390Y-82439173D02*
X144476247Y-82439173D01*
X144476247Y-82439173D02*
X144666723Y-82486792D01*
X144666723Y-82486792D02*
X144761961Y-82534411D01*
X144761961Y-82534411D02*
X144857200Y-82629649D01*
X144857200Y-82629649D02*
X144904819Y-82772506D01*
X144904819Y-82772506D02*
X144904819Y-83010601D01*
D11*
X104527142Y-38277314D02*
X105955714Y-38277314D01*
X104241428Y-39134457D02*
X105241428Y-36134457D01*
X105241428Y-36134457D02*
X106241428Y-39134457D01*
X107241428Y-39134457D02*
X107241428Y-37134457D01*
X107241428Y-37705885D02*
X107384285Y-37420171D01*
X107384285Y-37420171D02*
X107527143Y-37277314D01*
X107527143Y-37277314D02*
X107812857Y-37134457D01*
X107812857Y-37134457D02*
X108098571Y-37134457D01*
X110384286Y-39134457D02*
X110384286Y-36134457D01*
X110384286Y-38991600D02*
X110098571Y-39134457D01*
X110098571Y-39134457D02*
X109527143Y-39134457D01*
X109527143Y-39134457D02*
X109241428Y-38991600D01*
X109241428Y-38991600D02*
X109098571Y-38848742D01*
X109098571Y-38848742D02*
X108955714Y-38563028D01*
X108955714Y-38563028D02*
X108955714Y-37705885D01*
X108955714Y-37705885D02*
X109098571Y-37420171D01*
X109098571Y-37420171D02*
X109241428Y-37277314D01*
X109241428Y-37277314D02*
X109527143Y-37134457D01*
X109527143Y-37134457D02*
X110098571Y-37134457D01*
X110098571Y-37134457D02*
X110384286Y-37277314D01*
X113098572Y-37134457D02*
X113098572Y-39134457D01*
X111812857Y-37134457D02*
X111812857Y-38705885D01*
X111812857Y-38705885D02*
X111955714Y-38991600D01*
X111955714Y-38991600D02*
X112241429Y-39134457D01*
X112241429Y-39134457D02*
X112670000Y-39134457D01*
X112670000Y-39134457D02*
X112955714Y-38991600D01*
X112955714Y-38991600D02*
X113098572Y-38848742D01*
X114527143Y-39134457D02*
X114527143Y-37134457D01*
X114527143Y-36134457D02*
X114384286Y-36277314D01*
X114384286Y-36277314D02*
X114527143Y-36420171D01*
X114527143Y-36420171D02*
X114670000Y-36277314D01*
X114670000Y-36277314D02*
X114527143Y-36134457D01*
X114527143Y-36134457D02*
X114527143Y-36420171D01*
X115955714Y-37134457D02*
X115955714Y-39134457D01*
X115955714Y-37420171D02*
X116098571Y-37277314D01*
X116098571Y-37277314D02*
X116384286Y-37134457D01*
X116384286Y-37134457D02*
X116812857Y-37134457D01*
X116812857Y-37134457D02*
X117098571Y-37277314D01*
X117098571Y-37277314D02*
X117241429Y-37563028D01*
X117241429Y-37563028D02*
X117241429Y-39134457D01*
X119098572Y-39134457D02*
X118812857Y-38991600D01*
X118812857Y-38991600D02*
X118670000Y-38848742D01*
X118670000Y-38848742D02*
X118527143Y-38563028D01*
X118527143Y-38563028D02*
X118527143Y-37705885D01*
X118527143Y-37705885D02*
X118670000Y-37420171D01*
X118670000Y-37420171D02*
X118812857Y-37277314D01*
X118812857Y-37277314D02*
X119098572Y-37134457D01*
X119098572Y-37134457D02*
X119527143Y-37134457D01*
X119527143Y-37134457D02*
X119812857Y-37277314D01*
X119812857Y-37277314D02*
X119955715Y-37420171D01*
X119955715Y-37420171D02*
X120098572Y-37705885D01*
X120098572Y-37705885D02*
X120098572Y-38563028D01*
X120098572Y-38563028D02*
X119955715Y-38848742D01*
X119955715Y-38848742D02*
X119812857Y-38991600D01*
X119812857Y-38991600D02*
X119527143Y-39134457D01*
X119527143Y-39134457D02*
X119098572Y-39134457D01*
X123670000Y-39134457D02*
X123670000Y-36134457D01*
X126812857Y-38848742D02*
X126670000Y-38991600D01*
X126670000Y-38991600D02*
X126241428Y-39134457D01*
X126241428Y-39134457D02*
X125955714Y-39134457D01*
X125955714Y-39134457D02*
X125527143Y-38991600D01*
X125527143Y-38991600D02*
X125241428Y-38705885D01*
X125241428Y-38705885D02*
X125098571Y-38420171D01*
X125098571Y-38420171D02*
X124955714Y-37848742D01*
X124955714Y-37848742D02*
X124955714Y-37420171D01*
X124955714Y-37420171D02*
X125098571Y-36848742D01*
X125098571Y-36848742D02*
X125241428Y-36563028D01*
X125241428Y-36563028D02*
X125527143Y-36277314D01*
X125527143Y-36277314D02*
X125955714Y-36134457D01*
X125955714Y-36134457D02*
X126241428Y-36134457D01*
X126241428Y-36134457D02*
X126670000Y-36277314D01*
X126670000Y-36277314D02*
X126812857Y-36420171D01*
X127955714Y-38991600D02*
X128384286Y-39134457D01*
X128384286Y-39134457D02*
X129098571Y-39134457D01*
X129098571Y-39134457D02*
X129384286Y-38991600D01*
X129384286Y-38991600D02*
X129527143Y-38848742D01*
X129527143Y-38848742D02*
X129670000Y-38563028D01*
X129670000Y-38563028D02*
X129670000Y-38277314D01*
X129670000Y-38277314D02*
X129527143Y-37991600D01*
X129527143Y-37991600D02*
X129384286Y-37848742D01*
X129384286Y-37848742D02*
X129098571Y-37705885D01*
X129098571Y-37705885D02*
X128527143Y-37563028D01*
X128527143Y-37563028D02*
X128241428Y-37420171D01*
X128241428Y-37420171D02*
X128098571Y-37277314D01*
X128098571Y-37277314D02*
X127955714Y-36991600D01*
X127955714Y-36991600D02*
X127955714Y-36705885D01*
X127955714Y-36705885D02*
X128098571Y-36420171D01*
X128098571Y-36420171D02*
X128241428Y-36277314D01*
X128241428Y-36277314D02*
X128527143Y-36134457D01*
X128527143Y-36134457D02*
X129241428Y-36134457D01*
X129241428Y-36134457D02*
X129670000Y-36277314D01*
X130955714Y-39134457D02*
X130955714Y-36134457D01*
X130955714Y-36134457D02*
X132098571Y-36134457D01*
X132098571Y-36134457D02*
X132384286Y-36277314D01*
X132384286Y-36277314D02*
X132527143Y-36420171D01*
X132527143Y-36420171D02*
X132670000Y-36705885D01*
X132670000Y-36705885D02*
X132670000Y-37134457D01*
X132670000Y-37134457D02*
X132527143Y-37420171D01*
X132527143Y-37420171D02*
X132384286Y-37563028D01*
X132384286Y-37563028D02*
X132098571Y-37705885D01*
X132098571Y-37705885D02*
X130955714Y-37705885D01*
X136098571Y-38991600D02*
X136527143Y-39134457D01*
X136527143Y-39134457D02*
X137241428Y-39134457D01*
X137241428Y-39134457D02*
X137527143Y-38991600D01*
X137527143Y-38991600D02*
X137670000Y-38848742D01*
X137670000Y-38848742D02*
X137812857Y-38563028D01*
X137812857Y-38563028D02*
X137812857Y-38277314D01*
X137812857Y-38277314D02*
X137670000Y-37991600D01*
X137670000Y-37991600D02*
X137527143Y-37848742D01*
X137527143Y-37848742D02*
X137241428Y-37705885D01*
X137241428Y-37705885D02*
X136670000Y-37563028D01*
X136670000Y-37563028D02*
X136384285Y-37420171D01*
X136384285Y-37420171D02*
X136241428Y-37277314D01*
X136241428Y-37277314D02*
X136098571Y-36991600D01*
X136098571Y-36991600D02*
X136098571Y-36705885D01*
X136098571Y-36705885D02*
X136241428Y-36420171D01*
X136241428Y-36420171D02*
X136384285Y-36277314D01*
X136384285Y-36277314D02*
X136670000Y-36134457D01*
X136670000Y-36134457D02*
X137384285Y-36134457D01*
X137384285Y-36134457D02*
X137812857Y-36277314D01*
X139098571Y-39134457D02*
X139098571Y-36134457D01*
X140384286Y-39134457D02*
X140384286Y-37563028D01*
X140384286Y-37563028D02*
X140241428Y-37277314D01*
X140241428Y-37277314D02*
X139955714Y-37134457D01*
X139955714Y-37134457D02*
X139527143Y-37134457D01*
X139527143Y-37134457D02*
X139241428Y-37277314D01*
X139241428Y-37277314D02*
X139098571Y-37420171D01*
X141812857Y-39134457D02*
X141812857Y-37134457D01*
X141812857Y-36134457D02*
X141670000Y-36277314D01*
X141670000Y-36277314D02*
X141812857Y-36420171D01*
X141812857Y-36420171D02*
X141955714Y-36277314D01*
X141955714Y-36277314D02*
X141812857Y-36134457D01*
X141812857Y-36134457D02*
X141812857Y-36420171D01*
X144384285Y-38991600D02*
X144098571Y-39134457D01*
X144098571Y-39134457D02*
X143527143Y-39134457D01*
X143527143Y-39134457D02*
X143241428Y-38991600D01*
X143241428Y-38991600D02*
X143098571Y-38705885D01*
X143098571Y-38705885D02*
X143098571Y-37563028D01*
X143098571Y-37563028D02*
X143241428Y-37277314D01*
X143241428Y-37277314D02*
X143527143Y-37134457D01*
X143527143Y-37134457D02*
X144098571Y-37134457D01*
X144098571Y-37134457D02*
X144384285Y-37277314D01*
X144384285Y-37277314D02*
X144527143Y-37563028D01*
X144527143Y-37563028D02*
X144527143Y-37848742D01*
X144527143Y-37848742D02*
X143098571Y-38134457D01*
X146241429Y-39134457D02*
X145955714Y-38991600D01*
X145955714Y-38991600D02*
X145812857Y-38705885D01*
X145812857Y-38705885D02*
X145812857Y-36134457D01*
X148670001Y-39134457D02*
X148670001Y-36134457D01*
X148670001Y-38991600D02*
X148384286Y-39134457D01*
X148384286Y-39134457D02*
X147812858Y-39134457D01*
X147812858Y-39134457D02*
X147527143Y-38991600D01*
X147527143Y-38991600D02*
X147384286Y-38848742D01*
X147384286Y-38848742D02*
X147241429Y-38563028D01*
X147241429Y-38563028D02*
X147241429Y-37705885D01*
X147241429Y-37705885D02*
X147384286Y-37420171D01*
X147384286Y-37420171D02*
X147527143Y-37277314D01*
X147527143Y-37277314D02*
X147812858Y-37134457D01*
X147812858Y-37134457D02*
X148384286Y-37134457D01*
X148384286Y-37134457D02*
X148670001Y-37277314D01*
D10*
X139824819Y-95224635D02*
X138824819Y-95224635D01*
X138824819Y-95224635D02*
X139539104Y-94891302D01*
X139539104Y-94891302D02*
X138824819Y-94557969D01*
X138824819Y-94557969D02*
X139824819Y-94557969D01*
X139824819Y-94081778D02*
X138824819Y-94081778D01*
X139777200Y-93653207D02*
X139824819Y-93510350D01*
X139824819Y-93510350D02*
X139824819Y-93272255D01*
X139824819Y-93272255D02*
X139777200Y-93177017D01*
X139777200Y-93177017D02*
X139729580Y-93129398D01*
X139729580Y-93129398D02*
X139634342Y-93081779D01*
X139634342Y-93081779D02*
X139539104Y-93081779D01*
X139539104Y-93081779D02*
X139443866Y-93129398D01*
X139443866Y-93129398D02*
X139396247Y-93177017D01*
X139396247Y-93177017D02*
X139348628Y-93272255D01*
X139348628Y-93272255D02*
X139301009Y-93462731D01*
X139301009Y-93462731D02*
X139253390Y-93557969D01*
X139253390Y-93557969D02*
X139205771Y-93605588D01*
X139205771Y-93605588D02*
X139110533Y-93653207D01*
X139110533Y-93653207D02*
X139015295Y-93653207D01*
X139015295Y-93653207D02*
X138920057Y-93605588D01*
X138920057Y-93605588D02*
X138872438Y-93557969D01*
X138872438Y-93557969D02*
X138824819Y-93462731D01*
X138824819Y-93462731D02*
X138824819Y-93224636D01*
X138824819Y-93224636D02*
X138872438Y-93081779D01*
X138824819Y-92462731D02*
X138824819Y-92272255D01*
X138824819Y-92272255D02*
X138872438Y-92177017D01*
X138872438Y-92177017D02*
X138967676Y-92081779D01*
X138967676Y-92081779D02*
X139158152Y-92034160D01*
X139158152Y-92034160D02*
X139491485Y-92034160D01*
X139491485Y-92034160D02*
X139681961Y-92081779D01*
X139681961Y-92081779D02*
X139777200Y-92177017D01*
X139777200Y-92177017D02*
X139824819Y-92272255D01*
X139824819Y-92272255D02*
X139824819Y-92462731D01*
X139824819Y-92462731D02*
X139777200Y-92557969D01*
X139777200Y-92557969D02*
X139681961Y-92653207D01*
X139681961Y-92653207D02*
X139491485Y-92700826D01*
X139491485Y-92700826D02*
X139158152Y-92700826D01*
X139158152Y-92700826D02*
X138967676Y-92653207D01*
X138967676Y-92653207D02*
X138872438Y-92557969D01*
X138872438Y-92557969D02*
X138824819Y-92462731D01*
X142317200Y-94605588D02*
X142364819Y-94462731D01*
X142364819Y-94462731D02*
X142364819Y-94224636D01*
X142364819Y-94224636D02*
X142317200Y-94129398D01*
X142317200Y-94129398D02*
X142269580Y-94081779D01*
X142269580Y-94081779D02*
X142174342Y-94034160D01*
X142174342Y-94034160D02*
X142079104Y-94034160D01*
X142079104Y-94034160D02*
X141983866Y-94081779D01*
X141983866Y-94081779D02*
X141936247Y-94129398D01*
X141936247Y-94129398D02*
X141888628Y-94224636D01*
X141888628Y-94224636D02*
X141841009Y-94415112D01*
X141841009Y-94415112D02*
X141793390Y-94510350D01*
X141793390Y-94510350D02*
X141745771Y-94557969D01*
X141745771Y-94557969D02*
X141650533Y-94605588D01*
X141650533Y-94605588D02*
X141555295Y-94605588D01*
X141555295Y-94605588D02*
X141460057Y-94557969D01*
X141460057Y-94557969D02*
X141412438Y-94510350D01*
X141412438Y-94510350D02*
X141364819Y-94415112D01*
X141364819Y-94415112D02*
X141364819Y-94177017D01*
X141364819Y-94177017D02*
X141412438Y-94034160D01*
X142269580Y-93034160D02*
X142317200Y-93081779D01*
X142317200Y-93081779D02*
X142364819Y-93224636D01*
X142364819Y-93224636D02*
X142364819Y-93319874D01*
X142364819Y-93319874D02*
X142317200Y-93462731D01*
X142317200Y-93462731D02*
X142221961Y-93557969D01*
X142221961Y-93557969D02*
X142126723Y-93605588D01*
X142126723Y-93605588D02*
X141936247Y-93653207D01*
X141936247Y-93653207D02*
X141793390Y-93653207D01*
X141793390Y-93653207D02*
X141602914Y-93605588D01*
X141602914Y-93605588D02*
X141507676Y-93557969D01*
X141507676Y-93557969D02*
X141412438Y-93462731D01*
X141412438Y-93462731D02*
X141364819Y-93319874D01*
X141364819Y-93319874D02*
X141364819Y-93224636D01*
X141364819Y-93224636D02*
X141412438Y-93081779D01*
X141412438Y-93081779D02*
X141460057Y-93034160D01*
X142364819Y-92605588D02*
X141364819Y-92605588D01*
X142364819Y-92034160D02*
X141793390Y-92462731D01*
X141364819Y-92034160D02*
X141936247Y-92605588D01*
X141364819Y-90173332D02*
X141364819Y-89554285D01*
X141364819Y-89554285D02*
X141745771Y-89887618D01*
X141745771Y-89887618D02*
X141745771Y-89744761D01*
X141745771Y-89744761D02*
X141793390Y-89649523D01*
X141793390Y-89649523D02*
X141841009Y-89601904D01*
X141841009Y-89601904D02*
X141936247Y-89554285D01*
X141936247Y-89554285D02*
X142174342Y-89554285D01*
X142174342Y-89554285D02*
X142269580Y-89601904D01*
X142269580Y-89601904D02*
X142317200Y-89649523D01*
X142317200Y-89649523D02*
X142364819Y-89744761D01*
X142364819Y-89744761D02*
X142364819Y-90030475D01*
X142364819Y-90030475D02*
X142317200Y-90125713D01*
X142317200Y-90125713D02*
X142269580Y-90173332D01*
G36*
X114846049Y-80514077D02*
G01*
X114917991Y-80586019D01*
X114958333Y-80747386D01*
X114958333Y-81062251D01*
X114917991Y-81223617D01*
X114846048Y-81295561D01*
X114777533Y-81329819D01*
X114622467Y-81329819D01*
X114553951Y-81295561D01*
X114482008Y-81223617D01*
X114441667Y-81062251D01*
X114441667Y-80747386D01*
X114482008Y-80586019D01*
X114553951Y-80514077D01*
X114622467Y-80479819D01*
X114777533Y-80479819D01*
X114846049Y-80514077D01*
G37*
G36*
X108453085Y-81044104D02*
G01*
X108185009Y-81044104D01*
X108319047Y-80641989D01*
X108453085Y-81044104D01*
G37*
G36*
X109417477Y-80514077D02*
G01*
X109447884Y-80544484D01*
X109482142Y-80613000D01*
X109482142Y-80720447D01*
X109447884Y-80788963D01*
X109417477Y-80819370D01*
X109348961Y-80853628D01*
X109060714Y-80853628D01*
X109060714Y-80479819D01*
X109348961Y-80479819D01*
X109417477Y-80514077D01*
G37*
G36*
X113846049Y-80514077D02*
G01*
X113876456Y-80544484D01*
X113910714Y-80613000D01*
X113910714Y-80720447D01*
X113876456Y-80788963D01*
X113846049Y-80819370D01*
X113777533Y-80853628D01*
X113489286Y-80853628D01*
X113489286Y-80479819D01*
X113777533Y-80479819D01*
X113846049Y-80514077D01*
G37*
G36*
X117941287Y-80514077D02*
G01*
X117971694Y-80544484D01*
X118005952Y-80613000D01*
X118005952Y-80720447D01*
X117971694Y-80788963D01*
X117941287Y-80819370D01*
X117872771Y-80853628D01*
X117584524Y-80853628D01*
X117584524Y-80479819D01*
X117872771Y-80479819D01*
X117941287Y-80514077D01*
G37*
G36*
X118298809Y-81622676D02*
G01*
X107007091Y-81622676D01*
X107007091Y-80391795D01*
X107149948Y-80391795D01*
X107158857Y-80442319D01*
X107198157Y-80475296D01*
X107223809Y-80479819D01*
X107434523Y-80479819D01*
X107434523Y-81404819D01*
X107452070Y-81453028D01*
X107496499Y-81478680D01*
X107547023Y-81469771D01*
X107580000Y-81430471D01*
X107584523Y-81404819D01*
X107584523Y-81381102D01*
X107914563Y-81381102D01*
X107915964Y-81432386D01*
X107950001Y-81470771D01*
X108000750Y-81478296D01*
X108044462Y-81451441D01*
X108056865Y-81428536D01*
X108135009Y-81194104D01*
X108503085Y-81194104D01*
X108581229Y-81428536D01*
X108613120Y-81468722D01*
X108663381Y-81479008D01*
X108708495Y-81454579D01*
X108727352Y-81406867D01*
X108727048Y-81404819D01*
X108910714Y-81404819D01*
X108928261Y-81453028D01*
X108972690Y-81478680D01*
X109023214Y-81469771D01*
X109056191Y-81430471D01*
X109060714Y-81404819D01*
X109060714Y-81003628D01*
X109184760Y-81003628D01*
X109495700Y-81447829D01*
X109537721Y-81477261D01*
X109588829Y-81472797D01*
X109625111Y-81436525D01*
X109629590Y-81385418D01*
X109618585Y-81361810D01*
X109367615Y-81003282D01*
X109370879Y-81002094D01*
X109375240Y-81003136D01*
X109400207Y-80995710D01*
X109439133Y-80976247D01*
X109863095Y-80976247D01*
X109864280Y-80979504D01*
X109865334Y-80994437D01*
X109912953Y-81184913D01*
X109914941Y-81187857D01*
X109918632Y-81200264D01*
X109966251Y-81295502D01*
X109967437Y-81296625D01*
X109980300Y-81314994D01*
X110075538Y-81410233D01*
X110079602Y-81412128D01*
X110081949Y-81415948D01*
X110104854Y-81428351D01*
X110247710Y-81475970D01*
X110249345Y-81475925D01*
X110271428Y-81479819D01*
X110366666Y-81479819D01*
X110368204Y-81479258D01*
X110390383Y-81475970D01*
X110533240Y-81428351D01*
X110536751Y-81425563D01*
X110541220Y-81425173D01*
X110562557Y-81410232D01*
X110567970Y-81404819D01*
X110910714Y-81404819D01*
X110917377Y-81423127D01*
X110920762Y-81442319D01*
X110925946Y-81446669D01*
X110928261Y-81453028D01*
X110945134Y-81462770D01*
X110960062Y-81475296D01*
X110969804Y-81477013D01*
X110972690Y-81478680D01*
X110975972Y-81478101D01*
X110985714Y-81479819D01*
X111461904Y-81479819D01*
X111510113Y-81462272D01*
X111535765Y-81417843D01*
X111526856Y-81367319D01*
X111487556Y-81334342D01*
X111461904Y-81329819D01*
X111060714Y-81329819D01*
X111060714Y-80956009D01*
X111319047Y-80956009D01*
X111367256Y-80938462D01*
X111392908Y-80894033D01*
X111383999Y-80843509D01*
X111344699Y-80810532D01*
X111319047Y-80806009D01*
X111060714Y-80806009D01*
X111060714Y-80479819D01*
X111461904Y-80479819D01*
X111510113Y-80462272D01*
X111535765Y-80417843D01*
X111531172Y-80391795D01*
X111673758Y-80391795D01*
X111682667Y-80442319D01*
X111721967Y-80475296D01*
X111747619Y-80479819D01*
X111958333Y-80479819D01*
X111958333Y-81404819D01*
X111975880Y-81453028D01*
X112020309Y-81478680D01*
X112070833Y-81469771D01*
X112103810Y-81430471D01*
X112108333Y-81404819D01*
X113339286Y-81404819D01*
X113356833Y-81453028D01*
X113401262Y-81478680D01*
X113451786Y-81469771D01*
X113484763Y-81430471D01*
X113489286Y-81404819D01*
X113489286Y-81071485D01*
X114291667Y-81071485D01*
X114292852Y-81074742D01*
X114293906Y-81089675D01*
X114341525Y-81280151D01*
X114345667Y-81286283D01*
X114346312Y-81293657D01*
X114361253Y-81314994D01*
X114456491Y-81410233D01*
X114457973Y-81410924D01*
X114475983Y-81424282D01*
X114571221Y-81471901D01*
X114575674Y-81472413D01*
X114579110Y-81475296D01*
X114604762Y-81479819D01*
X114795238Y-81479819D01*
X114799451Y-81478285D01*
X114803812Y-81479327D01*
X114828779Y-81471901D01*
X114924017Y-81424282D01*
X114925142Y-81423092D01*
X114943509Y-81410233D01*
X115038748Y-81314993D01*
X115041875Y-81308285D01*
X115047865Y-81303940D01*
X115058475Y-81280151D01*
X115106094Y-81089675D01*
X115105733Y-81086226D01*
X115108333Y-81071485D01*
X115108333Y-80738152D01*
X115107147Y-80734894D01*
X115106094Y-80719962D01*
X115058475Y-80529486D01*
X115054333Y-80523353D01*
X115053688Y-80515980D01*
X115038747Y-80494643D01*
X114943509Y-80399405D01*
X114942027Y-80398714D01*
X114938621Y-80396188D01*
X115292165Y-80396188D01*
X115293707Y-80422191D01*
X115531802Y-81422191D01*
X115536131Y-81428759D01*
X115536827Y-81436597D01*
X115549887Y-81449626D01*
X115560038Y-81465024D01*
X115567576Y-81467272D01*
X115573147Y-81472830D01*
X115591523Y-81474415D01*
X115609200Y-81479688D01*
X115616422Y-81476563D01*
X115624260Y-81477240D01*
X115639356Y-81466642D01*
X115656286Y-81459319D01*
X115659809Y-81452284D01*
X115666250Y-81447764D01*
X115677230Y-81424144D01*
X115795237Y-80981613D01*
X115913246Y-81424144D01*
X115917751Y-81430595D01*
X115918657Y-81438410D01*
X115932062Y-81451083D01*
X115942623Y-81466204D01*
X115950217Y-81468248D01*
X115955936Y-81473655D01*
X115974349Y-81474746D01*
X115992161Y-81479542D01*
X115999297Y-81476224D01*
X116007150Y-81476690D01*
X116021953Y-81465693D01*
X116038684Y-81457916D01*
X116042018Y-81450787D01*
X116048333Y-81446097D01*
X116058674Y-81422191D01*
X116062810Y-81404819D01*
X116529762Y-81404819D01*
X116536425Y-81423127D01*
X116539810Y-81442319D01*
X116544994Y-81446669D01*
X116547309Y-81453028D01*
X116564182Y-81462770D01*
X116579110Y-81475296D01*
X116588852Y-81477013D01*
X116591738Y-81478680D01*
X116595020Y-81478101D01*
X116604762Y-81479819D01*
X117080952Y-81479819D01*
X117129161Y-81462272D01*
X117154813Y-81417843D01*
X117152516Y-81404819D01*
X117434524Y-81404819D01*
X117452071Y-81453028D01*
X117496500Y-81478680D01*
X117547024Y-81469771D01*
X117580001Y-81430471D01*
X117584524Y-81404819D01*
X117584524Y-81003628D01*
X117708570Y-81003628D01*
X118019510Y-81447829D01*
X118061531Y-81477261D01*
X118112639Y-81472797D01*
X118148921Y-81436525D01*
X118153400Y-81385418D01*
X118142395Y-81361810D01*
X117891425Y-81003282D01*
X117894689Y-81002094D01*
X117899050Y-81003136D01*
X117924017Y-80995710D01*
X118019255Y-80948091D01*
X118020380Y-80946901D01*
X118038747Y-80934042D01*
X118086366Y-80886423D01*
X118087057Y-80884941D01*
X118100415Y-80866931D01*
X118148034Y-80771693D01*
X118148546Y-80767239D01*
X118151429Y-80763804D01*
X118155952Y-80738152D01*
X118155952Y-80595295D01*
X118154418Y-80591081D01*
X118155460Y-80586720D01*
X118148034Y-80561754D01*
X118100415Y-80466516D01*
X118099225Y-80465390D01*
X118086366Y-80447024D01*
X118038747Y-80399405D01*
X118037265Y-80398714D01*
X118019255Y-80385356D01*
X117924017Y-80337737D01*
X117919563Y-80337224D01*
X117916128Y-80334342D01*
X117890476Y-80329819D01*
X117509524Y-80329819D01*
X117491215Y-80336482D01*
X117472024Y-80339867D01*
X117467673Y-80345051D01*
X117461315Y-80347366D01*
X117451572Y-80364239D01*
X117439047Y-80379167D01*
X117437329Y-80388909D01*
X117435663Y-80391795D01*
X117436241Y-80395077D01*
X117434524Y-80404819D01*
X117434524Y-81404819D01*
X117152516Y-81404819D01*
X117145904Y-81367319D01*
X117106604Y-81334342D01*
X117080952Y-81329819D01*
X116679762Y-81329819D01*
X116679762Y-80956009D01*
X116938095Y-80956009D01*
X116986304Y-80938462D01*
X117011956Y-80894033D01*
X117003047Y-80843509D01*
X116963747Y-80810532D01*
X116938095Y-80806009D01*
X116679762Y-80806009D01*
X116679762Y-80479819D01*
X117080952Y-80479819D01*
X117129161Y-80462272D01*
X117154813Y-80417843D01*
X117145904Y-80367319D01*
X117106604Y-80334342D01*
X117080952Y-80329819D01*
X116604762Y-80329819D01*
X116586453Y-80336482D01*
X116567262Y-80339867D01*
X116562911Y-80345051D01*
X116556553Y-80347366D01*
X116546810Y-80364239D01*
X116534285Y-80379167D01*
X116532567Y-80388909D01*
X116530901Y-80391795D01*
X116531479Y-80395077D01*
X116529762Y-80404819D01*
X116529762Y-81404819D01*
X116062810Y-81404819D01*
X116296770Y-80422191D01*
X116290867Y-80371228D01*
X116253588Y-80335983D01*
X116202374Y-80332948D01*
X116161191Y-80363541D01*
X116150850Y-80387448D01*
X115981597Y-81098303D01*
X115867706Y-80671208D01*
X115863778Y-80665585D01*
X115863173Y-80658755D01*
X115849435Y-80645049D01*
X115838329Y-80629148D01*
X115831710Y-80627365D01*
X115826854Y-80622521D01*
X115807520Y-80620852D01*
X115788791Y-80615810D01*
X115782572Y-80618700D01*
X115775740Y-80618111D01*
X115759860Y-80629258D01*
X115742269Y-80637436D01*
X115739363Y-80643647D01*
X115733750Y-80647588D01*
X115722770Y-80671208D01*
X115608878Y-81098303D01*
X115439627Y-80387447D01*
X115411391Y-80344614D01*
X115362229Y-80329950D01*
X115315143Y-80350319D01*
X115292165Y-80396188D01*
X114938621Y-80396188D01*
X114924017Y-80385356D01*
X114828779Y-80337737D01*
X114824325Y-80337224D01*
X114820890Y-80334342D01*
X114795238Y-80329819D01*
X114604762Y-80329819D01*
X114600548Y-80331352D01*
X114596187Y-80330311D01*
X114571221Y-80337737D01*
X114475983Y-80385356D01*
X114474859Y-80386542D01*
X114456491Y-80399405D01*
X114361253Y-80494643D01*
X114358125Y-80501350D01*
X114352135Y-80505697D01*
X114341525Y-80529486D01*
X114293906Y-80719962D01*
X114294266Y-80723410D01*
X114291667Y-80738152D01*
X114291667Y-81071485D01*
X113489286Y-81071485D01*
X113489286Y-81003628D01*
X113795238Y-81003628D01*
X113799451Y-81002094D01*
X113803812Y-81003136D01*
X113828779Y-80995710D01*
X113924017Y-80948091D01*
X113925142Y-80946901D01*
X113943509Y-80934042D01*
X113991128Y-80886423D01*
X113991819Y-80884941D01*
X114005177Y-80866931D01*
X114052796Y-80771693D01*
X114053308Y-80767239D01*
X114056191Y-80763804D01*
X114060714Y-80738152D01*
X114060714Y-80595295D01*
X114059180Y-80591081D01*
X114060222Y-80586720D01*
X114052796Y-80561754D01*
X114005177Y-80466516D01*
X114003987Y-80465390D01*
X113991128Y-80447024D01*
X113943509Y-80399405D01*
X113942027Y-80398714D01*
X113924017Y-80385356D01*
X113828779Y-80337737D01*
X113824325Y-80337224D01*
X113820890Y-80334342D01*
X113795238Y-80329819D01*
X113414286Y-80329819D01*
X113395977Y-80336482D01*
X113376786Y-80339867D01*
X113372435Y-80345051D01*
X113366077Y-80347366D01*
X113356334Y-80364239D01*
X113343809Y-80379167D01*
X113342091Y-80388909D01*
X113340425Y-80391795D01*
X113341003Y-80395077D01*
X113339286Y-80404819D01*
X113339286Y-81404819D01*
X112108333Y-81404819D01*
X112108333Y-80479819D01*
X112319047Y-80479819D01*
X112367256Y-80462272D01*
X112392908Y-80417843D01*
X112383999Y-80367319D01*
X112344699Y-80334342D01*
X112319047Y-80329819D01*
X111747619Y-80329819D01*
X111699410Y-80347366D01*
X111673758Y-80391795D01*
X111531172Y-80391795D01*
X111526856Y-80367319D01*
X111487556Y-80334342D01*
X111461904Y-80329819D01*
X110985714Y-80329819D01*
X110967405Y-80336482D01*
X110948214Y-80339867D01*
X110943863Y-80345051D01*
X110937505Y-80347366D01*
X110927762Y-80364239D01*
X110915237Y-80379167D01*
X110913519Y-80388909D01*
X110911853Y-80391795D01*
X110912431Y-80395077D01*
X110910714Y-80404819D01*
X110910714Y-81404819D01*
X110567970Y-81404819D01*
X110610175Y-81362613D01*
X110617093Y-81347775D01*
X110627619Y-81335232D01*
X110630462Y-81319104D01*
X110631856Y-81316116D01*
X110631333Y-81314165D01*
X110632142Y-81309580D01*
X110632142Y-80976247D01*
X110625478Y-80957938D01*
X110622094Y-80938747D01*
X110616909Y-80934396D01*
X110614595Y-80928038D01*
X110597721Y-80918295D01*
X110582794Y-80905770D01*
X110573051Y-80904052D01*
X110570166Y-80902386D01*
X110566883Y-80902964D01*
X110557142Y-80901247D01*
X110366666Y-80901247D01*
X110318457Y-80918794D01*
X110292805Y-80963223D01*
X110301714Y-81013747D01*
X110341014Y-81046724D01*
X110366666Y-81051247D01*
X110482142Y-81051247D01*
X110482142Y-81278514D01*
X110469009Y-81291647D01*
X110354496Y-81329819D01*
X110283598Y-81329819D01*
X110169085Y-81291648D01*
X110094972Y-81217534D01*
X110056478Y-81140547D01*
X110013095Y-80967013D01*
X110013095Y-80842624D01*
X110056478Y-80669090D01*
X110094972Y-80592103D01*
X110169085Y-80517990D01*
X110283598Y-80479819D01*
X110396580Y-80479819D01*
X110475982Y-80519520D01*
X110526948Y-80525385D01*
X110569761Y-80497119D01*
X110584388Y-80447944D01*
X110563985Y-80400873D01*
X110543064Y-80385356D01*
X110447826Y-80337737D01*
X110443372Y-80337224D01*
X110439937Y-80334342D01*
X110414285Y-80329819D01*
X110271428Y-80329819D01*
X110269890Y-80330378D01*
X110247710Y-80333668D01*
X110104854Y-80381287D01*
X110101343Y-80384073D01*
X110096875Y-80384464D01*
X110075538Y-80399405D01*
X109980300Y-80494643D01*
X109979609Y-80496124D01*
X109966251Y-80514135D01*
X109918632Y-80609373D01*
X109918225Y-80612901D01*
X109912953Y-80624724D01*
X109865334Y-80815200D01*
X109865694Y-80818648D01*
X109863095Y-80833390D01*
X109863095Y-80976247D01*
X109439133Y-80976247D01*
X109495445Y-80948091D01*
X109496570Y-80946901D01*
X109514937Y-80934042D01*
X109562556Y-80886423D01*
X109563247Y-80884941D01*
X109576605Y-80866931D01*
X109624224Y-80771693D01*
X109624736Y-80767239D01*
X109627619Y-80763804D01*
X109632142Y-80738152D01*
X109632142Y-80595295D01*
X109630608Y-80591081D01*
X109631650Y-80586720D01*
X109624224Y-80561754D01*
X109576605Y-80466516D01*
X109575415Y-80465390D01*
X109562556Y-80447024D01*
X109514937Y-80399405D01*
X109513455Y-80398714D01*
X109495445Y-80385356D01*
X109400207Y-80337737D01*
X109395753Y-80337224D01*
X109392318Y-80334342D01*
X109366666Y-80329819D01*
X108985714Y-80329819D01*
X108967405Y-80336482D01*
X108948214Y-80339867D01*
X108943863Y-80345051D01*
X108937505Y-80347366D01*
X108927762Y-80364239D01*
X108915237Y-80379167D01*
X108913519Y-80388909D01*
X108911853Y-80391795D01*
X108912431Y-80395077D01*
X108910714Y-80404819D01*
X108910714Y-81404819D01*
X108727048Y-81404819D01*
X108723531Y-81381102D01*
X108390198Y-80381102D01*
X108388855Y-80379410D01*
X108388797Y-80377253D01*
X108373055Y-80359500D01*
X108358307Y-80340916D01*
X108356192Y-80340483D01*
X108354759Y-80338867D01*
X108331290Y-80335387D01*
X108308046Y-80330630D01*
X108306146Y-80331658D01*
X108304011Y-80331342D01*
X108283793Y-80343762D01*
X108262932Y-80355059D01*
X108262138Y-80357066D01*
X108260298Y-80358197D01*
X108247896Y-80381102D01*
X107914563Y-81381102D01*
X107584523Y-81381102D01*
X107584523Y-80479819D01*
X107795237Y-80479819D01*
X107843446Y-80462272D01*
X107869098Y-80417843D01*
X107860189Y-80367319D01*
X107820889Y-80334342D01*
X107795237Y-80329819D01*
X107223809Y-80329819D01*
X107175600Y-80347366D01*
X107149948Y-80391795D01*
X107007091Y-80391795D01*
X107007091Y-80186962D01*
X118298809Y-80186962D01*
X118298809Y-81622676D01*
G37*
G36*
X107468799Y-95014104D02*
G01*
X107200723Y-95014104D01*
X107334761Y-94611989D01*
X107468799Y-95014104D01*
G37*
G36*
X108433191Y-94484077D02*
G01*
X108463598Y-94514484D01*
X108497856Y-94583000D01*
X108497856Y-94690447D01*
X108463598Y-94758963D01*
X108433191Y-94789370D01*
X108364675Y-94823628D01*
X108076428Y-94823628D01*
X108076428Y-94449819D01*
X108364675Y-94449819D01*
X108433191Y-94484077D01*
G37*
G36*
X112861763Y-94484077D02*
G01*
X112892170Y-94514484D01*
X112926428Y-94583000D01*
X112926428Y-94690447D01*
X112892170Y-94758963D01*
X112861763Y-94789370D01*
X112793247Y-94823628D01*
X112505000Y-94823628D01*
X112505000Y-94449819D01*
X112793247Y-94449819D01*
X112861763Y-94484077D01*
G37*
G36*
X116837194Y-95592676D02*
G01*
X106022805Y-95592676D01*
X106022805Y-94361795D01*
X106165662Y-94361795D01*
X106174571Y-94412319D01*
X106213871Y-94445296D01*
X106239523Y-94449819D01*
X106450237Y-94449819D01*
X106450237Y-95374819D01*
X106467784Y-95423028D01*
X106512213Y-95448680D01*
X106562737Y-95439771D01*
X106595714Y-95400471D01*
X106600237Y-95374819D01*
X106600237Y-95351102D01*
X106930277Y-95351102D01*
X106931678Y-95402386D01*
X106965715Y-95440771D01*
X107016464Y-95448296D01*
X107060176Y-95421441D01*
X107072579Y-95398536D01*
X107150723Y-95164104D01*
X107518799Y-95164104D01*
X107596943Y-95398536D01*
X107628834Y-95438722D01*
X107679095Y-95449008D01*
X107724209Y-95424579D01*
X107743066Y-95376867D01*
X107742762Y-95374819D01*
X107926428Y-95374819D01*
X107943975Y-95423028D01*
X107988404Y-95448680D01*
X108038928Y-95439771D01*
X108071905Y-95400471D01*
X108076428Y-95374819D01*
X108076428Y-94973628D01*
X108200474Y-94973628D01*
X108511414Y-95417829D01*
X108553435Y-95447261D01*
X108604543Y-95442797D01*
X108640825Y-95406525D01*
X108645304Y-95355418D01*
X108634299Y-95331810D01*
X108383329Y-94973282D01*
X108386593Y-94972094D01*
X108390954Y-94973136D01*
X108415921Y-94965710D01*
X108454847Y-94946247D01*
X108878809Y-94946247D01*
X108879994Y-94949504D01*
X108881048Y-94964437D01*
X108928667Y-95154913D01*
X108930655Y-95157857D01*
X108934346Y-95170264D01*
X108981965Y-95265502D01*
X108983151Y-95266625D01*
X108996014Y-95284994D01*
X109091252Y-95380233D01*
X109095316Y-95382128D01*
X109097663Y-95385948D01*
X109120568Y-95398351D01*
X109263424Y-95445970D01*
X109265059Y-95445925D01*
X109287142Y-95449819D01*
X109382380Y-95449819D01*
X109383918Y-95449258D01*
X109406097Y-95445970D01*
X109548954Y-95398351D01*
X109552465Y-95395563D01*
X109556934Y-95395173D01*
X109578271Y-95380232D01*
X109583684Y-95374819D01*
X109926428Y-95374819D01*
X109933091Y-95393127D01*
X109936476Y-95412319D01*
X109941660Y-95416669D01*
X109943975Y-95423028D01*
X109960848Y-95432770D01*
X109975776Y-95445296D01*
X109985518Y-95447013D01*
X109988404Y-95448680D01*
X109991686Y-95448101D01*
X110001428Y-95449819D01*
X110477618Y-95449819D01*
X110525827Y-95432272D01*
X110551479Y-95387843D01*
X110542570Y-95337319D01*
X110503270Y-95304342D01*
X110477618Y-95299819D01*
X110076428Y-95299819D01*
X110076428Y-94926009D01*
X110334761Y-94926009D01*
X110382970Y-94908462D01*
X110408622Y-94864033D01*
X110399713Y-94813509D01*
X110360413Y-94780532D01*
X110334761Y-94776009D01*
X110076428Y-94776009D01*
X110076428Y-94449819D01*
X110477618Y-94449819D01*
X110525827Y-94432272D01*
X110551479Y-94387843D01*
X110546886Y-94361795D01*
X110689472Y-94361795D01*
X110698381Y-94412319D01*
X110737681Y-94445296D01*
X110763333Y-94449819D01*
X110974047Y-94449819D01*
X110974047Y-95374819D01*
X110991594Y-95423028D01*
X111036023Y-95448680D01*
X111086547Y-95439771D01*
X111119524Y-95400471D01*
X111124047Y-95374819D01*
X112355000Y-95374819D01*
X112372547Y-95423028D01*
X112416976Y-95448680D01*
X112467500Y-95439771D01*
X112500477Y-95400471D01*
X112505000Y-95374819D01*
X112505000Y-94973628D01*
X112629046Y-94973628D01*
X112939986Y-95417829D01*
X112982007Y-95447261D01*
X113033115Y-95442797D01*
X113069397Y-95406525D01*
X113072176Y-95374819D01*
X113355000Y-95374819D01*
X113361663Y-95393127D01*
X113365048Y-95412319D01*
X113370232Y-95416669D01*
X113372547Y-95423028D01*
X113389420Y-95432770D01*
X113404348Y-95445296D01*
X113414090Y-95447013D01*
X113416976Y-95448680D01*
X113420258Y-95448101D01*
X113430000Y-95449819D01*
X113906190Y-95449819D01*
X113954399Y-95432272D01*
X113980051Y-95387843D01*
X113971142Y-95337319D01*
X113931842Y-95304342D01*
X113906190Y-95299819D01*
X113505000Y-95299819D01*
X113505000Y-94926009D01*
X113763333Y-94926009D01*
X113811542Y-94908462D01*
X113837194Y-94864033D01*
X113828285Y-94813509D01*
X113788985Y-94780532D01*
X113763333Y-94776009D01*
X113505000Y-94776009D01*
X113505000Y-94660533D01*
X114212143Y-94660533D01*
X114213676Y-94664746D01*
X114212635Y-94669107D01*
X114220061Y-94694074D01*
X114267680Y-94789312D01*
X114268869Y-94790437D01*
X114281729Y-94808804D01*
X114329348Y-94856423D01*
X114330829Y-94857114D01*
X114348840Y-94870472D01*
X114444078Y-94918091D01*
X114447606Y-94918497D01*
X114459429Y-94923770D01*
X114641919Y-94969392D01*
X114718906Y-95007886D01*
X114749313Y-95038293D01*
X114783571Y-95106809D01*
X114783571Y-95166637D01*
X114749312Y-95235153D01*
X114718905Y-95265561D01*
X114650390Y-95299819D01*
X114442170Y-95299819D01*
X114310860Y-95256049D01*
X114259576Y-95257450D01*
X114221191Y-95291487D01*
X114213666Y-95342236D01*
X114240521Y-95385948D01*
X114263426Y-95398351D01*
X114406282Y-95445970D01*
X114407917Y-95445925D01*
X114430000Y-95449819D01*
X114668095Y-95449819D01*
X114672308Y-95448285D01*
X114676669Y-95449327D01*
X114701636Y-95441901D01*
X114796874Y-95394282D01*
X114797998Y-95393094D01*
X114816367Y-95380232D01*
X114821780Y-95374819D01*
X115212143Y-95374819D01*
X115218806Y-95393127D01*
X115222191Y-95412319D01*
X115227375Y-95416669D01*
X115229690Y-95423028D01*
X115246563Y-95432770D01*
X115261491Y-95445296D01*
X115271233Y-95447013D01*
X115274119Y-95448680D01*
X115277401Y-95448101D01*
X115287143Y-95449819D01*
X115763333Y-95449819D01*
X115811542Y-95432272D01*
X115837194Y-95387843D01*
X115828285Y-95337319D01*
X115788985Y-95304342D01*
X115763333Y-95299819D01*
X115362143Y-95299819D01*
X115362143Y-94926009D01*
X115620476Y-94926009D01*
X115668685Y-94908462D01*
X115694337Y-94864033D01*
X115685428Y-94813509D01*
X115646128Y-94780532D01*
X115620476Y-94776009D01*
X115362143Y-94776009D01*
X115362143Y-94449819D01*
X115763333Y-94449819D01*
X115811542Y-94432272D01*
X115837194Y-94387843D01*
X115832601Y-94361795D01*
X115975187Y-94361795D01*
X115984096Y-94412319D01*
X116023396Y-94445296D01*
X116049048Y-94449819D01*
X116259762Y-94449819D01*
X116259762Y-95374819D01*
X116277309Y-95423028D01*
X116321738Y-95448680D01*
X116372262Y-95439771D01*
X116405239Y-95400471D01*
X116409762Y-95374819D01*
X116409762Y-94449819D01*
X116620476Y-94449819D01*
X116668685Y-94432272D01*
X116694337Y-94387843D01*
X116685428Y-94337319D01*
X116646128Y-94304342D01*
X116620476Y-94299819D01*
X116049048Y-94299819D01*
X116000839Y-94317366D01*
X115975187Y-94361795D01*
X115832601Y-94361795D01*
X115828285Y-94337319D01*
X115788985Y-94304342D01*
X115763333Y-94299819D01*
X115287143Y-94299819D01*
X115268834Y-94306482D01*
X115249643Y-94309867D01*
X115245292Y-94315051D01*
X115238934Y-94317366D01*
X115229191Y-94334239D01*
X115216666Y-94349167D01*
X115214948Y-94358909D01*
X115213282Y-94361795D01*
X115213860Y-94365077D01*
X115212143Y-94374819D01*
X115212143Y-95374819D01*
X114821780Y-95374819D01*
X114863985Y-95332613D01*
X114864675Y-95331131D01*
X114878034Y-95313121D01*
X114925653Y-95217883D01*
X114926165Y-95213429D01*
X114929048Y-95209994D01*
X114933571Y-95184342D01*
X114933571Y-95089104D01*
X114932037Y-95084890D01*
X114933079Y-95080529D01*
X114925653Y-95055563D01*
X114878034Y-94960325D01*
X114876844Y-94959199D01*
X114863985Y-94940833D01*
X114816366Y-94893214D01*
X114814884Y-94892523D01*
X114796874Y-94879165D01*
X114701636Y-94831546D01*
X114698107Y-94831139D01*
X114686285Y-94825867D01*
X114503795Y-94780244D01*
X114426808Y-94741751D01*
X114396401Y-94711344D01*
X114362143Y-94642828D01*
X114362143Y-94583000D01*
X114396401Y-94514484D01*
X114426808Y-94484077D01*
X114495324Y-94449819D01*
X114703544Y-94449819D01*
X114834853Y-94493589D01*
X114886137Y-94492188D01*
X114924523Y-94458150D01*
X114932048Y-94407402D01*
X114905193Y-94363689D01*
X114882288Y-94351287D01*
X114739431Y-94303668D01*
X114737796Y-94303712D01*
X114715714Y-94299819D01*
X114477619Y-94299819D01*
X114473405Y-94301352D01*
X114469044Y-94300311D01*
X114444078Y-94307737D01*
X114348840Y-94355356D01*
X114347714Y-94356545D01*
X114329348Y-94369405D01*
X114281729Y-94417024D01*
X114281038Y-94418505D01*
X114267680Y-94436516D01*
X114220061Y-94531754D01*
X114219548Y-94536207D01*
X114216666Y-94539643D01*
X114212143Y-94565295D01*
X114212143Y-94660533D01*
X113505000Y-94660533D01*
X113505000Y-94449819D01*
X113906190Y-94449819D01*
X113954399Y-94432272D01*
X113980051Y-94387843D01*
X113971142Y-94337319D01*
X113931842Y-94304342D01*
X113906190Y-94299819D01*
X113430000Y-94299819D01*
X113411691Y-94306482D01*
X113392500Y-94309867D01*
X113388149Y-94315051D01*
X113381791Y-94317366D01*
X113372048Y-94334239D01*
X113359523Y-94349167D01*
X113357805Y-94358909D01*
X113356139Y-94361795D01*
X113356717Y-94365077D01*
X113355000Y-94374819D01*
X113355000Y-95374819D01*
X113072176Y-95374819D01*
X113073876Y-95355418D01*
X113062871Y-95331810D01*
X112811901Y-94973282D01*
X112815165Y-94972094D01*
X112819526Y-94973136D01*
X112844493Y-94965710D01*
X112939731Y-94918091D01*
X112940856Y-94916901D01*
X112959223Y-94904042D01*
X113006842Y-94856423D01*
X113007533Y-94854941D01*
X113020891Y-94836931D01*
X113068510Y-94741693D01*
X113069022Y-94737239D01*
X113071905Y-94733804D01*
X113076428Y-94708152D01*
X113076428Y-94565295D01*
X113074894Y-94561081D01*
X113075936Y-94556720D01*
X113068510Y-94531754D01*
X113020891Y-94436516D01*
X113019701Y-94435390D01*
X113006842Y-94417024D01*
X112959223Y-94369405D01*
X112957741Y-94368714D01*
X112939731Y-94355356D01*
X112844493Y-94307737D01*
X112840039Y-94307224D01*
X112836604Y-94304342D01*
X112810952Y-94299819D01*
X112430000Y-94299819D01*
X112411691Y-94306482D01*
X112392500Y-94309867D01*
X112388149Y-94315051D01*
X112381791Y-94317366D01*
X112372048Y-94334239D01*
X112359523Y-94349167D01*
X112357805Y-94358909D01*
X112356139Y-94361795D01*
X112356717Y-94365077D01*
X112355000Y-94374819D01*
X112355000Y-95374819D01*
X111124047Y-95374819D01*
X111124047Y-94449819D01*
X111334761Y-94449819D01*
X111382970Y-94432272D01*
X111408622Y-94387843D01*
X111399713Y-94337319D01*
X111360413Y-94304342D01*
X111334761Y-94299819D01*
X110763333Y-94299819D01*
X110715124Y-94317366D01*
X110689472Y-94361795D01*
X110546886Y-94361795D01*
X110542570Y-94337319D01*
X110503270Y-94304342D01*
X110477618Y-94299819D01*
X110001428Y-94299819D01*
X109983119Y-94306482D01*
X109963928Y-94309867D01*
X109959577Y-94315051D01*
X109953219Y-94317366D01*
X109943476Y-94334239D01*
X109930951Y-94349167D01*
X109929233Y-94358909D01*
X109927567Y-94361795D01*
X109928145Y-94365077D01*
X109926428Y-94374819D01*
X109926428Y-95374819D01*
X109583684Y-95374819D01*
X109625889Y-95332613D01*
X109632807Y-95317775D01*
X109643333Y-95305232D01*
X109646176Y-95289104D01*
X109647570Y-95286116D01*
X109647047Y-95284165D01*
X109647856Y-95279580D01*
X109647856Y-94946247D01*
X109641192Y-94927938D01*
X109637808Y-94908747D01*
X109632623Y-94904396D01*
X109630309Y-94898038D01*
X109613435Y-94888295D01*
X109598508Y-94875770D01*
X109588765Y-94874052D01*
X109585880Y-94872386D01*
X109582597Y-94872964D01*
X109572856Y-94871247D01*
X109382380Y-94871247D01*
X109334171Y-94888794D01*
X109308519Y-94933223D01*
X109317428Y-94983747D01*
X109356728Y-95016724D01*
X109382380Y-95021247D01*
X109497856Y-95021247D01*
X109497856Y-95248514D01*
X109484723Y-95261647D01*
X109370210Y-95299819D01*
X109299312Y-95299819D01*
X109184799Y-95261648D01*
X109110686Y-95187534D01*
X109072192Y-95110547D01*
X109028809Y-94937013D01*
X109028809Y-94812624D01*
X109072192Y-94639090D01*
X109110686Y-94562103D01*
X109184799Y-94487990D01*
X109299312Y-94449819D01*
X109412294Y-94449819D01*
X109491696Y-94489520D01*
X109542662Y-94495385D01*
X109585475Y-94467119D01*
X109600102Y-94417944D01*
X109579699Y-94370873D01*
X109558778Y-94355356D01*
X109463540Y-94307737D01*
X109459086Y-94307224D01*
X109455651Y-94304342D01*
X109429999Y-94299819D01*
X109287142Y-94299819D01*
X109285604Y-94300378D01*
X109263424Y-94303668D01*
X109120568Y-94351287D01*
X109117057Y-94354073D01*
X109112589Y-94354464D01*
X109091252Y-94369405D01*
X108996014Y-94464643D01*
X108995323Y-94466124D01*
X108981965Y-94484135D01*
X108934346Y-94579373D01*
X108933939Y-94582901D01*
X108928667Y-94594724D01*
X108881048Y-94785200D01*
X108881408Y-94788648D01*
X108878809Y-94803390D01*
X108878809Y-94946247D01*
X108454847Y-94946247D01*
X108511159Y-94918091D01*
X108512284Y-94916901D01*
X108530651Y-94904042D01*
X108578270Y-94856423D01*
X108578961Y-94854941D01*
X108592319Y-94836931D01*
X108639938Y-94741693D01*
X108640450Y-94737239D01*
X108643333Y-94733804D01*
X108647856Y-94708152D01*
X108647856Y-94565295D01*
X108646322Y-94561081D01*
X108647364Y-94556720D01*
X108639938Y-94531754D01*
X108592319Y-94436516D01*
X108591129Y-94435390D01*
X108578270Y-94417024D01*
X108530651Y-94369405D01*
X108529169Y-94368714D01*
X108511159Y-94355356D01*
X108415921Y-94307737D01*
X108411467Y-94307224D01*
X108408032Y-94304342D01*
X108382380Y-94299819D01*
X108001428Y-94299819D01*
X107983119Y-94306482D01*
X107963928Y-94309867D01*
X107959577Y-94315051D01*
X107953219Y-94317366D01*
X107943476Y-94334239D01*
X107930951Y-94349167D01*
X107929233Y-94358909D01*
X107927567Y-94361795D01*
X107928145Y-94365077D01*
X107926428Y-94374819D01*
X107926428Y-95374819D01*
X107742762Y-95374819D01*
X107739245Y-95351102D01*
X107405912Y-94351102D01*
X107404569Y-94349410D01*
X107404511Y-94347253D01*
X107388769Y-94329500D01*
X107374021Y-94310916D01*
X107371906Y-94310483D01*
X107370473Y-94308867D01*
X107347004Y-94305387D01*
X107323760Y-94300630D01*
X107321860Y-94301658D01*
X107319725Y-94301342D01*
X107299507Y-94313762D01*
X107278646Y-94325059D01*
X107277852Y-94327066D01*
X107276012Y-94328197D01*
X107263610Y-94351102D01*
X106930277Y-95351102D01*
X106600237Y-95351102D01*
X106600237Y-94449819D01*
X106810951Y-94449819D01*
X106859160Y-94432272D01*
X106884812Y-94387843D01*
X106875903Y-94337319D01*
X106836603Y-94304342D01*
X106810951Y-94299819D01*
X106239523Y-94299819D01*
X106191314Y-94317366D01*
X106165662Y-94361795D01*
X106022805Y-94361795D01*
X106022805Y-94156962D01*
X116837194Y-94156962D01*
X116837194Y-95592676D01*
G37*
D12*
G36*
X130122956Y-96379165D02*
G01*
X130196103Y-96452312D01*
X130279523Y-96619151D01*
X130279523Y-96881866D01*
X130196103Y-97048705D01*
X130122956Y-97121852D01*
X129956120Y-97205271D01*
X129250952Y-97205271D01*
X129250952Y-96295747D01*
X129956120Y-96295747D01*
X130122956Y-96379165D01*
G37*
G36*
X131036666Y-99152890D02*
G01*
X122422381Y-99152890D01*
X122422381Y-98595747D01*
X122779524Y-98595747D01*
X122799330Y-98682524D01*
X122854826Y-98752113D01*
X122935020Y-98790733D01*
X123024028Y-98790733D01*
X123104222Y-98752113D01*
X123159718Y-98682524D01*
X123179524Y-98595747D01*
X123179524Y-97524319D01*
X123850952Y-97524319D01*
X123856418Y-97548269D01*
X123856924Y-97572826D01*
X123975972Y-98049017D01*
X123985908Y-98068607D01*
X123991114Y-98089951D01*
X124110161Y-98328046D01*
X124130546Y-98352844D01*
X124147625Y-98380025D01*
X124385720Y-98618121D01*
X124387007Y-98618930D01*
X124387836Y-98620206D01*
X124424627Y-98642568D01*
X124461086Y-98665477D01*
X124462597Y-98665647D01*
X124463897Y-98666437D01*
X124821040Y-98785484D01*
X124852988Y-98788603D01*
X124884285Y-98795747D01*
X125122381Y-98795747D01*
X125153677Y-98788603D01*
X125185626Y-98785484D01*
X125542769Y-98666437D01*
X125544068Y-98665647D01*
X125545579Y-98665477D01*
X125582008Y-98642586D01*
X125618829Y-98620206D01*
X125619658Y-98618929D01*
X125620944Y-98618121D01*
X125739992Y-98499074D01*
X125787348Y-98423708D01*
X125797313Y-98335260D01*
X125767916Y-98251245D01*
X125704978Y-98188307D01*
X125620963Y-98158910D01*
X125532515Y-98168875D01*
X125457149Y-98216231D01*
X125371487Y-98301893D01*
X125089925Y-98395747D01*
X124916742Y-98395747D01*
X124635178Y-98301893D01*
X124453418Y-98120132D01*
X124358704Y-97930703D01*
X124250952Y-97499699D01*
X124250952Y-97191795D01*
X124346393Y-96810033D01*
X126350952Y-96810033D01*
X126351290Y-96811515D01*
X126350974Y-96813003D01*
X126361173Y-96854816D01*
X126370758Y-96896810D01*
X126371706Y-96897999D01*
X126372067Y-96899476D01*
X126491115Y-97137571D01*
X126511499Y-97162368D01*
X126528578Y-97189549D01*
X126647625Y-97308597D01*
X126674805Y-97325676D01*
X126699605Y-97346062D01*
X126937700Y-97465109D01*
X126959044Y-97470315D01*
X126978635Y-97480251D01*
X127433529Y-97593975D01*
X127622955Y-97688689D01*
X127696104Y-97761836D01*
X127779523Y-97928674D01*
X127779523Y-98072343D01*
X127696104Y-98239180D01*
X127622957Y-98312328D01*
X127456119Y-98395747D01*
X126940552Y-98395747D01*
X126614197Y-98286963D01*
X126525610Y-98278312D01*
X126442043Y-98308954D01*
X126380045Y-98372820D01*
X126351899Y-98457261D01*
X126363177Y-98545552D01*
X126411646Y-98620206D01*
X126487707Y-98666437D01*
X126844850Y-98785484D01*
X126876798Y-98788603D01*
X126908095Y-98795747D01*
X127503333Y-98795747D01*
X127504815Y-98795408D01*
X127506302Y-98795725D01*
X127548131Y-98785522D01*
X127590110Y-98775941D01*
X127591298Y-98774993D01*
X127592775Y-98774633D01*
X127830870Y-98655586D01*
X127855671Y-98635198D01*
X127882849Y-98618121D01*
X127905223Y-98595747D01*
X128850952Y-98595747D01*
X128870758Y-98682524D01*
X128926254Y-98752113D01*
X129006448Y-98790733D01*
X129095456Y-98790733D01*
X129175650Y-98752113D01*
X129231146Y-98682524D01*
X129250952Y-98595747D01*
X129250952Y-97605271D01*
X130003333Y-97605271D01*
X130004815Y-97604932D01*
X130006303Y-97605249D01*
X130048116Y-97595049D01*
X130090110Y-97585465D01*
X130091299Y-97584516D01*
X130092776Y-97584156D01*
X130330871Y-97465108D01*
X130355670Y-97444721D01*
X130382849Y-97427644D01*
X130501896Y-97308597D01*
X130518973Y-97281418D01*
X130539360Y-97256619D01*
X130658408Y-97018523D01*
X130658768Y-97017046D01*
X130659717Y-97015857D01*
X130669301Y-96973863D01*
X130679501Y-96932050D01*
X130679184Y-96930562D01*
X130679523Y-96929080D01*
X130679523Y-96571938D01*
X130679184Y-96570455D01*
X130679501Y-96568968D01*
X130669301Y-96527154D01*
X130659717Y-96485161D01*
X130658768Y-96483971D01*
X130658408Y-96482495D01*
X130539360Y-96244399D01*
X130518973Y-96219599D01*
X130501896Y-96192421D01*
X130382849Y-96073374D01*
X130355670Y-96056296D01*
X130330871Y-96035910D01*
X130092776Y-95916862D01*
X130091299Y-95916501D01*
X130090110Y-95915553D01*
X130048116Y-95905968D01*
X130006303Y-95895769D01*
X130004815Y-95896085D01*
X130003333Y-95895747D01*
X129050952Y-95895747D01*
X129028984Y-95900761D01*
X129006448Y-95900761D01*
X128986144Y-95910538D01*
X128964175Y-95915553D01*
X128946555Y-95929604D01*
X128926254Y-95939381D01*
X128912203Y-95956998D01*
X128894586Y-95971049D01*
X128884809Y-95991350D01*
X128870758Y-96008970D01*
X128865743Y-96030939D01*
X128855966Y-96051243D01*
X128855966Y-96073778D01*
X128850952Y-96095747D01*
X128850952Y-98595747D01*
X127905223Y-98595747D01*
X128001897Y-98499074D01*
X128018976Y-98471893D01*
X128039362Y-98447094D01*
X128158409Y-98208999D01*
X128158769Y-98207522D01*
X128159717Y-98206334D01*
X128169298Y-98164355D01*
X128179501Y-98122526D01*
X128179184Y-98121039D01*
X128179523Y-98119557D01*
X128179523Y-97881461D01*
X128179184Y-97879978D01*
X128179501Y-97878492D01*
X128169298Y-97836662D01*
X128159717Y-97794684D01*
X128158769Y-97793495D01*
X128158409Y-97792019D01*
X128039362Y-97553924D01*
X128018976Y-97529124D01*
X128001897Y-97501944D01*
X127882849Y-97382897D01*
X127855668Y-97365818D01*
X127830871Y-97345434D01*
X127592776Y-97226386D01*
X127571433Y-97221180D01*
X127551841Y-97211243D01*
X127096950Y-97097520D01*
X126907517Y-97002804D01*
X126834370Y-96929655D01*
X126750952Y-96762819D01*
X126750952Y-96619151D01*
X126834371Y-96452313D01*
X126907518Y-96379165D01*
X127074355Y-96295747D01*
X127589924Y-96295747D01*
X127916277Y-96404532D01*
X128004864Y-96413183D01*
X128088432Y-96382541D01*
X128150429Y-96318675D01*
X128178576Y-96234235D01*
X128167298Y-96145944D01*
X128118830Y-96071290D01*
X128042769Y-96025058D01*
X127685627Y-95906010D01*
X127653676Y-95902889D01*
X127622381Y-95895747D01*
X127027142Y-95895747D01*
X127025660Y-95896085D01*
X127024173Y-95895769D01*
X126982366Y-95905966D01*
X126940365Y-95915553D01*
X126939175Y-95916501D01*
X126937699Y-95916862D01*
X126699604Y-96035910D01*
X126674806Y-96056295D01*
X126647626Y-96073374D01*
X126528579Y-96192421D01*
X126511501Y-96219598D01*
X126491114Y-96244400D01*
X126372067Y-96482495D01*
X126371706Y-96483971D01*
X126370758Y-96485161D01*
X126361171Y-96527162D01*
X126350974Y-96568969D01*
X126351290Y-96570455D01*
X126350952Y-96571938D01*
X126350952Y-96810033D01*
X124346393Y-96810033D01*
X124358704Y-96760790D01*
X124453419Y-96571359D01*
X124635176Y-96389602D01*
X124916742Y-96295747D01*
X125089924Y-96295747D01*
X125371487Y-96389602D01*
X125457151Y-96475264D01*
X125532516Y-96522620D01*
X125620965Y-96532584D01*
X125704979Y-96503187D01*
X125767917Y-96440248D01*
X125797314Y-96356234D01*
X125787348Y-96267786D01*
X125739992Y-96192420D01*
X125620944Y-96073373D01*
X125619657Y-96072564D01*
X125618830Y-96071290D01*
X125582025Y-96048919D01*
X125545578Y-96026018D01*
X125544068Y-96025847D01*
X125542769Y-96025058D01*
X125185627Y-95906010D01*
X125153676Y-95902889D01*
X125122381Y-95895747D01*
X124884285Y-95895747D01*
X124852989Y-95902889D01*
X124821039Y-95906010D01*
X124463896Y-96025058D01*
X124462596Y-96025847D01*
X124461086Y-96026018D01*
X124424656Y-96048908D01*
X124387836Y-96071289D01*
X124387006Y-96072565D01*
X124385721Y-96073374D01*
X124147626Y-96311469D01*
X124130548Y-96338646D01*
X124110161Y-96363448D01*
X123991114Y-96601543D01*
X123985908Y-96622886D01*
X123975972Y-96642477D01*
X123856924Y-97118669D01*
X123856418Y-97143225D01*
X123850952Y-97167176D01*
X123850952Y-97524319D01*
X123179524Y-97524319D01*
X123179524Y-96095747D01*
X123159718Y-96008970D01*
X123104222Y-95939381D01*
X123024028Y-95900761D01*
X122935020Y-95900761D01*
X122854826Y-95939381D01*
X122799330Y-96008970D01*
X122779524Y-96095747D01*
X122779524Y-98595747D01*
X122422381Y-98595747D01*
X122422381Y-95538604D01*
X131036666Y-95538604D01*
X131036666Y-99152890D01*
G37*
D10*
G36*
X108060334Y-71624077D02*
G01*
X108132276Y-71696019D01*
X108172618Y-71857386D01*
X108172618Y-72172251D01*
X108132276Y-72333617D01*
X108060333Y-72405561D01*
X107991818Y-72439819D01*
X107836752Y-72439819D01*
X107768236Y-72405561D01*
X107696293Y-72333617D01*
X107655952Y-72172251D01*
X107655952Y-71857386D01*
X107696293Y-71696019D01*
X107768236Y-71624077D01*
X107836752Y-71589819D01*
X107991818Y-71589819D01*
X108060334Y-71624077D01*
G37*
G36*
X110572133Y-72154104D02*
G01*
X110304057Y-72154104D01*
X110438095Y-71751989D01*
X110572133Y-72154104D01*
G37*
G36*
X118988147Y-72732676D02*
G01*
X106410742Y-72732676D01*
X106410742Y-71512770D01*
X106553599Y-71512770D01*
X106557420Y-71538536D01*
X106890753Y-72538536D01*
X106892095Y-72540227D01*
X106892154Y-72542386D01*
X106907903Y-72560147D01*
X106922644Y-72578722D01*
X106924757Y-72579154D01*
X106926191Y-72580771D01*
X106949661Y-72584251D01*
X106972905Y-72589008D01*
X106974804Y-72587979D01*
X106976940Y-72588296D01*
X106997153Y-72575877D01*
X107018019Y-72564579D01*
X107018812Y-72562571D01*
X107020652Y-72561441D01*
X107033055Y-72538536D01*
X107152072Y-72181485D01*
X107505952Y-72181485D01*
X107507137Y-72184742D01*
X107508191Y-72199675D01*
X107555810Y-72390151D01*
X107559952Y-72396283D01*
X107560597Y-72403657D01*
X107575538Y-72424994D01*
X107670776Y-72520233D01*
X107672258Y-72520924D01*
X107690268Y-72534282D01*
X107785506Y-72581901D01*
X107789959Y-72582413D01*
X107793395Y-72585296D01*
X107819047Y-72589819D01*
X108009523Y-72589819D01*
X108013736Y-72588285D01*
X108018097Y-72589327D01*
X108043064Y-72581901D01*
X108138302Y-72534282D01*
X108139427Y-72533092D01*
X108157794Y-72520233D01*
X108163208Y-72514819D01*
X108601190Y-72514819D01*
X108607853Y-72533127D01*
X108611238Y-72552319D01*
X108616422Y-72556669D01*
X108618737Y-72563028D01*
X108635610Y-72572770D01*
X108650538Y-72585296D01*
X108660280Y-72587013D01*
X108663166Y-72588680D01*
X108666448Y-72588101D01*
X108676190Y-72589819D01*
X109152380Y-72589819D01*
X109200589Y-72572272D01*
X109226241Y-72527843D01*
X109217332Y-72477319D01*
X109178032Y-72444342D01*
X109152380Y-72439819D01*
X108751190Y-72439819D01*
X108751190Y-71514819D01*
X108746450Y-71501795D01*
X109268996Y-71501795D01*
X109277905Y-71552319D01*
X109317205Y-71585296D01*
X109342857Y-71589819D01*
X109553571Y-71589819D01*
X109553571Y-72514819D01*
X109571118Y-72563028D01*
X109615547Y-72588680D01*
X109666071Y-72579771D01*
X109699048Y-72540471D01*
X109703571Y-72514819D01*
X109703571Y-72491102D01*
X110033611Y-72491102D01*
X110035012Y-72542386D01*
X110069049Y-72580771D01*
X110119798Y-72588296D01*
X110163510Y-72561441D01*
X110175913Y-72538536D01*
X110254057Y-72304104D01*
X110622133Y-72304104D01*
X110700277Y-72538536D01*
X110732168Y-72578722D01*
X110782429Y-72589008D01*
X110827543Y-72564579D01*
X110846400Y-72516867D01*
X110842579Y-72491102D01*
X110707627Y-72086247D01*
X110982143Y-72086247D01*
X110983328Y-72089504D01*
X110984382Y-72104437D01*
X111032001Y-72294913D01*
X111033989Y-72297857D01*
X111037680Y-72310264D01*
X111085299Y-72405502D01*
X111086485Y-72406625D01*
X111099348Y-72424994D01*
X111194586Y-72520233D01*
X111198650Y-72522128D01*
X111200997Y-72525948D01*
X111223902Y-72538351D01*
X111366758Y-72585970D01*
X111368393Y-72585925D01*
X111390476Y-72589819D01*
X111485714Y-72589819D01*
X111487252Y-72589258D01*
X111509431Y-72585970D01*
X111652288Y-72538351D01*
X111655799Y-72535563D01*
X111660268Y-72535173D01*
X111681605Y-72520232D01*
X111687018Y-72514819D01*
X112029762Y-72514819D01*
X112036425Y-72533127D01*
X112039810Y-72552319D01*
X112044994Y-72556669D01*
X112047309Y-72563028D01*
X112064182Y-72572770D01*
X112079110Y-72585296D01*
X112088852Y-72587013D01*
X112091738Y-72588680D01*
X112095020Y-72588101D01*
X112104762Y-72589819D01*
X112580952Y-72589819D01*
X112629161Y-72572272D01*
X112654813Y-72527843D01*
X112645904Y-72477319D01*
X112606604Y-72444342D01*
X112580952Y-72439819D01*
X112179762Y-72439819D01*
X112179762Y-72066009D01*
X112438095Y-72066009D01*
X112486304Y-72048462D01*
X112511956Y-72004033D01*
X112503047Y-71953509D01*
X112463747Y-71920532D01*
X112438095Y-71916009D01*
X112179762Y-71916009D01*
X112179762Y-71800533D01*
X113648810Y-71800533D01*
X113650343Y-71804746D01*
X113649302Y-71809107D01*
X113656728Y-71834074D01*
X113704347Y-71929312D01*
X113705536Y-71930437D01*
X113718396Y-71948804D01*
X113766015Y-71996423D01*
X113767496Y-71997114D01*
X113785507Y-72010472D01*
X113880745Y-72058091D01*
X113884273Y-72058497D01*
X113896096Y-72063770D01*
X114078586Y-72109392D01*
X114155573Y-72147886D01*
X114185980Y-72178293D01*
X114220238Y-72246809D01*
X114220238Y-72306637D01*
X114185979Y-72375153D01*
X114155572Y-72405561D01*
X114087057Y-72439819D01*
X113878837Y-72439819D01*
X113747527Y-72396049D01*
X113696243Y-72397450D01*
X113657858Y-72431487D01*
X113650333Y-72482236D01*
X113677188Y-72525948D01*
X113700093Y-72538351D01*
X113842949Y-72585970D01*
X113844584Y-72585925D01*
X113866667Y-72589819D01*
X114104762Y-72589819D01*
X114108975Y-72588285D01*
X114113336Y-72589327D01*
X114138303Y-72581901D01*
X114233541Y-72534282D01*
X114234665Y-72533094D01*
X114253034Y-72520232D01*
X114258447Y-72514819D01*
X114648810Y-72514819D01*
X114655473Y-72533127D01*
X114658858Y-72552319D01*
X114664042Y-72556669D01*
X114666357Y-72563028D01*
X114683230Y-72572770D01*
X114698158Y-72585296D01*
X114707900Y-72587013D01*
X114710786Y-72588680D01*
X114714068Y-72588101D01*
X114723810Y-72589819D01*
X115200000Y-72589819D01*
X115248209Y-72572272D01*
X115273861Y-72527843D01*
X115271564Y-72514819D01*
X115553572Y-72514819D01*
X115560235Y-72533127D01*
X115563620Y-72552319D01*
X115568804Y-72556669D01*
X115571119Y-72563028D01*
X115587992Y-72572770D01*
X115602920Y-72585296D01*
X115612662Y-72587013D01*
X115615548Y-72588680D01*
X115618830Y-72588101D01*
X115628572Y-72589819D01*
X116104762Y-72589819D01*
X116152971Y-72572272D01*
X116178623Y-72527843D01*
X116176326Y-72514819D01*
X116363096Y-72514819D01*
X116369759Y-72533127D01*
X116373144Y-72552319D01*
X116378328Y-72556669D01*
X116380643Y-72563028D01*
X116397516Y-72572770D01*
X116412444Y-72585296D01*
X116422186Y-72587013D01*
X116425072Y-72588680D01*
X116428354Y-72588101D01*
X116438096Y-72589819D01*
X116914286Y-72589819D01*
X116962495Y-72572272D01*
X116988147Y-72527843D01*
X116979238Y-72477319D01*
X116939938Y-72444342D01*
X116914286Y-72439819D01*
X116513096Y-72439819D01*
X116513096Y-72086247D01*
X117220239Y-72086247D01*
X117221424Y-72089504D01*
X117222478Y-72104437D01*
X117270097Y-72294913D01*
X117272085Y-72297857D01*
X117275776Y-72310264D01*
X117323395Y-72405502D01*
X117324581Y-72406625D01*
X117337444Y-72424994D01*
X117432682Y-72520233D01*
X117436746Y-72522128D01*
X117439093Y-72525948D01*
X117461998Y-72538351D01*
X117604854Y-72585970D01*
X117606489Y-72585925D01*
X117628572Y-72589819D01*
X117723810Y-72589819D01*
X117725348Y-72589258D01*
X117747527Y-72585970D01*
X117890384Y-72538351D01*
X117893895Y-72535563D01*
X117898364Y-72535173D01*
X117919701Y-72520232D01*
X117967319Y-72472613D01*
X117989000Y-72426116D01*
X117975722Y-72376561D01*
X117933697Y-72347135D01*
X117882589Y-72351607D01*
X117861252Y-72366548D01*
X117826153Y-72401647D01*
X117711640Y-72439819D01*
X117640742Y-72439819D01*
X117526229Y-72401648D01*
X117452116Y-72327534D01*
X117413622Y-72250547D01*
X117370239Y-72077013D01*
X117370239Y-71952624D01*
X117413622Y-71779090D01*
X117452116Y-71702103D01*
X117526229Y-71627990D01*
X117640742Y-71589819D01*
X117711640Y-71589819D01*
X117826153Y-71627990D01*
X117861253Y-71663090D01*
X117907749Y-71684771D01*
X117957304Y-71671494D01*
X117986730Y-71629468D01*
X117982259Y-71578361D01*
X117967319Y-71557024D01*
X117919700Y-71509405D01*
X117915636Y-71507510D01*
X117913289Y-71503689D01*
X117909791Y-71501795D01*
X118126140Y-71501795D01*
X118135049Y-71552319D01*
X118174349Y-71585296D01*
X118200001Y-71589819D01*
X118410715Y-71589819D01*
X118410715Y-72514819D01*
X118428262Y-72563028D01*
X118472691Y-72588680D01*
X118523215Y-72579771D01*
X118556192Y-72540471D01*
X118560715Y-72514819D01*
X118560715Y-71589819D01*
X118771429Y-71589819D01*
X118819638Y-71572272D01*
X118845290Y-71527843D01*
X118836381Y-71477319D01*
X118797081Y-71444342D01*
X118771429Y-71439819D01*
X118200001Y-71439819D01*
X118151792Y-71457366D01*
X118126140Y-71501795D01*
X117909791Y-71501795D01*
X117890384Y-71491287D01*
X117747527Y-71443668D01*
X117745892Y-71443712D01*
X117723810Y-71439819D01*
X117628572Y-71439819D01*
X117627034Y-71440378D01*
X117604854Y-71443668D01*
X117461998Y-71491287D01*
X117458487Y-71494073D01*
X117454019Y-71494464D01*
X117432682Y-71509405D01*
X117337444Y-71604643D01*
X117336753Y-71606124D01*
X117323395Y-71624135D01*
X117275776Y-71719373D01*
X117275369Y-71722901D01*
X117270097Y-71734724D01*
X117222478Y-71925200D01*
X117222838Y-71928648D01*
X117220239Y-71943390D01*
X117220239Y-72086247D01*
X116513096Y-72086247D01*
X116513096Y-72066009D01*
X116771429Y-72066009D01*
X116819638Y-72048462D01*
X116845290Y-72004033D01*
X116836381Y-71953509D01*
X116797081Y-71920532D01*
X116771429Y-71916009D01*
X116513096Y-71916009D01*
X116513096Y-71589819D01*
X116914286Y-71589819D01*
X116962495Y-71572272D01*
X116988147Y-71527843D01*
X116979238Y-71477319D01*
X116939938Y-71444342D01*
X116914286Y-71439819D01*
X116438096Y-71439819D01*
X116419787Y-71446482D01*
X116400596Y-71449867D01*
X116396245Y-71455051D01*
X116389887Y-71457366D01*
X116380144Y-71474239D01*
X116367619Y-71489167D01*
X116365901Y-71498909D01*
X116364235Y-71501795D01*
X116364813Y-71505077D01*
X116363096Y-71514819D01*
X116363096Y-72514819D01*
X116176326Y-72514819D01*
X116169714Y-72477319D01*
X116130414Y-72444342D01*
X116104762Y-72439819D01*
X115703572Y-72439819D01*
X115703572Y-71514819D01*
X115686025Y-71466610D01*
X115641596Y-71440958D01*
X115591072Y-71449867D01*
X115558095Y-71489167D01*
X115553572Y-71514819D01*
X115553572Y-72514819D01*
X115271564Y-72514819D01*
X115264952Y-72477319D01*
X115225652Y-72444342D01*
X115200000Y-72439819D01*
X114798810Y-72439819D01*
X114798810Y-72066009D01*
X115057143Y-72066009D01*
X115105352Y-72048462D01*
X115131004Y-72004033D01*
X115122095Y-71953509D01*
X115082795Y-71920532D01*
X115057143Y-71916009D01*
X114798810Y-71916009D01*
X114798810Y-71589819D01*
X115200000Y-71589819D01*
X115248209Y-71572272D01*
X115273861Y-71527843D01*
X115264952Y-71477319D01*
X115225652Y-71444342D01*
X115200000Y-71439819D01*
X114723810Y-71439819D01*
X114705501Y-71446482D01*
X114686310Y-71449867D01*
X114681959Y-71455051D01*
X114675601Y-71457366D01*
X114665858Y-71474239D01*
X114653333Y-71489167D01*
X114651615Y-71498909D01*
X114649949Y-71501795D01*
X114650527Y-71505077D01*
X114648810Y-71514819D01*
X114648810Y-72514819D01*
X114258447Y-72514819D01*
X114300652Y-72472613D01*
X114301342Y-72471131D01*
X114314701Y-72453121D01*
X114362320Y-72357883D01*
X114362832Y-72353429D01*
X114365715Y-72349994D01*
X114370238Y-72324342D01*
X114370238Y-72229104D01*
X114368704Y-72224890D01*
X114369746Y-72220529D01*
X114362320Y-72195563D01*
X114314701Y-72100325D01*
X114313511Y-72099199D01*
X114300652Y-72080833D01*
X114253033Y-72033214D01*
X114251551Y-72032523D01*
X114233541Y-72019165D01*
X114138303Y-71971546D01*
X114134774Y-71971139D01*
X114122952Y-71965867D01*
X113940462Y-71920244D01*
X113863475Y-71881751D01*
X113833068Y-71851344D01*
X113798810Y-71782828D01*
X113798810Y-71723000D01*
X113833068Y-71654484D01*
X113863475Y-71624077D01*
X113931991Y-71589819D01*
X114140211Y-71589819D01*
X114271520Y-71633589D01*
X114322804Y-71632188D01*
X114361190Y-71598150D01*
X114368715Y-71547402D01*
X114341860Y-71503689D01*
X114318955Y-71491287D01*
X114176098Y-71443668D01*
X114174463Y-71443712D01*
X114152381Y-71439819D01*
X113914286Y-71439819D01*
X113910072Y-71441352D01*
X113905711Y-71440311D01*
X113880745Y-71447737D01*
X113785507Y-71495356D01*
X113784381Y-71496545D01*
X113766015Y-71509405D01*
X113718396Y-71557024D01*
X113717705Y-71558505D01*
X113704347Y-71576516D01*
X113656728Y-71671754D01*
X113656215Y-71676207D01*
X113653333Y-71679643D01*
X113648810Y-71705295D01*
X113648810Y-71800533D01*
X112179762Y-71800533D01*
X112179762Y-71589819D01*
X112580952Y-71589819D01*
X112629161Y-71572272D01*
X112654813Y-71527843D01*
X112645904Y-71477319D01*
X112606604Y-71444342D01*
X112580952Y-71439819D01*
X112104762Y-71439819D01*
X112086453Y-71446482D01*
X112067262Y-71449867D01*
X112062911Y-71455051D01*
X112056553Y-71457366D01*
X112046810Y-71474239D01*
X112034285Y-71489167D01*
X112032567Y-71498909D01*
X112030901Y-71501795D01*
X112031479Y-71505077D01*
X112029762Y-71514819D01*
X112029762Y-72514819D01*
X111687018Y-72514819D01*
X111729223Y-72472613D01*
X111736141Y-72457775D01*
X111746667Y-72445232D01*
X111749510Y-72429104D01*
X111750904Y-72426116D01*
X111750381Y-72424165D01*
X111751190Y-72419580D01*
X111751190Y-72086247D01*
X111744526Y-72067938D01*
X111741142Y-72048747D01*
X111735957Y-72044396D01*
X111733643Y-72038038D01*
X111716769Y-72028295D01*
X111701842Y-72015770D01*
X111692099Y-72014052D01*
X111689214Y-72012386D01*
X111685931Y-72012964D01*
X111676190Y-72011247D01*
X111485714Y-72011247D01*
X111437505Y-72028794D01*
X111411853Y-72073223D01*
X111420762Y-72123747D01*
X111460062Y-72156724D01*
X111485714Y-72161247D01*
X111601190Y-72161247D01*
X111601190Y-72388514D01*
X111588057Y-72401647D01*
X111473544Y-72439819D01*
X111402646Y-72439819D01*
X111288133Y-72401648D01*
X111214020Y-72327534D01*
X111175526Y-72250547D01*
X111132143Y-72077013D01*
X111132143Y-71952624D01*
X111175526Y-71779090D01*
X111214020Y-71702103D01*
X111288133Y-71627990D01*
X111402646Y-71589819D01*
X111515628Y-71589819D01*
X111595030Y-71629520D01*
X111645996Y-71635385D01*
X111688809Y-71607119D01*
X111703436Y-71557944D01*
X111683033Y-71510873D01*
X111662112Y-71495356D01*
X111566874Y-71447737D01*
X111562420Y-71447224D01*
X111558985Y-71444342D01*
X111533333Y-71439819D01*
X111390476Y-71439819D01*
X111388938Y-71440378D01*
X111366758Y-71443668D01*
X111223902Y-71491287D01*
X111220391Y-71494073D01*
X111215923Y-71494464D01*
X111194586Y-71509405D01*
X111099348Y-71604643D01*
X111098657Y-71606124D01*
X111085299Y-71624135D01*
X111037680Y-71719373D01*
X111037273Y-71722901D01*
X111032001Y-71734724D01*
X110984382Y-71925200D01*
X110984742Y-71928648D01*
X110982143Y-71943390D01*
X110982143Y-72086247D01*
X110707627Y-72086247D01*
X110509246Y-71491102D01*
X110507903Y-71489410D01*
X110507845Y-71487253D01*
X110492103Y-71469500D01*
X110477355Y-71450916D01*
X110475240Y-71450483D01*
X110473807Y-71448867D01*
X110450338Y-71445387D01*
X110427094Y-71440630D01*
X110425194Y-71441658D01*
X110423059Y-71441342D01*
X110402841Y-71453762D01*
X110381980Y-71465059D01*
X110381186Y-71467066D01*
X110379346Y-71468197D01*
X110366944Y-71491102D01*
X110033611Y-72491102D01*
X109703571Y-72491102D01*
X109703571Y-71589819D01*
X109914285Y-71589819D01*
X109962494Y-71572272D01*
X109988146Y-71527843D01*
X109979237Y-71477319D01*
X109939937Y-71444342D01*
X109914285Y-71439819D01*
X109342857Y-71439819D01*
X109294648Y-71457366D01*
X109268996Y-71501795D01*
X108746450Y-71501795D01*
X108733643Y-71466610D01*
X108689214Y-71440958D01*
X108638690Y-71449867D01*
X108605713Y-71489167D01*
X108601190Y-71514819D01*
X108601190Y-72514819D01*
X108163208Y-72514819D01*
X108253033Y-72424993D01*
X108256160Y-72418285D01*
X108262150Y-72413940D01*
X108272760Y-72390151D01*
X108320379Y-72199675D01*
X108320018Y-72196226D01*
X108322618Y-72181485D01*
X108322618Y-71848152D01*
X108321432Y-71844894D01*
X108320379Y-71829962D01*
X108272760Y-71639486D01*
X108268618Y-71633353D01*
X108267973Y-71625980D01*
X108253032Y-71604643D01*
X108157794Y-71509405D01*
X108156312Y-71508714D01*
X108138302Y-71495356D01*
X108043064Y-71447737D01*
X108038610Y-71447224D01*
X108035175Y-71444342D01*
X108009523Y-71439819D01*
X107819047Y-71439819D01*
X107814833Y-71441352D01*
X107810472Y-71440311D01*
X107785506Y-71447737D01*
X107690268Y-71495356D01*
X107689144Y-71496542D01*
X107670776Y-71509405D01*
X107575538Y-71604643D01*
X107572410Y-71611350D01*
X107566420Y-71615697D01*
X107555810Y-71639486D01*
X107508191Y-71829962D01*
X107508551Y-71833410D01*
X107505952Y-71848152D01*
X107505952Y-72181485D01*
X107152072Y-72181485D01*
X107366388Y-71538536D01*
X107364987Y-71487253D01*
X107330949Y-71448867D01*
X107280201Y-71441342D01*
X107236488Y-71468197D01*
X107224086Y-71491102D01*
X106961904Y-72277648D01*
X106699722Y-71491102D01*
X106667831Y-71450916D01*
X106617570Y-71440630D01*
X106572456Y-71465059D01*
X106553599Y-71512770D01*
X106410742Y-71512770D01*
X106410742Y-71296962D01*
X118988147Y-71296962D01*
X118988147Y-72732676D01*
G37*
D13*
X113373558Y-60492019D02*
X114040225Y-60492019D01*
X114325939Y-61539638D02*
X113373558Y-61539638D01*
X113373558Y-61539638D02*
X113373558Y-59539638D01*
X113373558Y-59539638D02*
X114325939Y-59539638D01*
X116325939Y-61539638D02*
X115659272Y-60587257D01*
X115183082Y-61539638D02*
X115183082Y-59539638D01*
X115183082Y-59539638D02*
X115944987Y-59539638D01*
X115944987Y-59539638D02*
X116135463Y-59634876D01*
X116135463Y-59634876D02*
X116230701Y-59730114D01*
X116230701Y-59730114D02*
X116325939Y-59920590D01*
X116325939Y-59920590D02*
X116325939Y-60206304D01*
X116325939Y-60206304D02*
X116230701Y-60396780D01*
X116230701Y-60396780D02*
X116135463Y-60492019D01*
X116135463Y-60492019D02*
X115944987Y-60587257D01*
X115944987Y-60587257D02*
X115183082Y-60587257D01*
X118325939Y-61539638D02*
X117659272Y-60587257D01*
X117183082Y-61539638D02*
X117183082Y-59539638D01*
X117183082Y-59539638D02*
X117944987Y-59539638D01*
X117944987Y-59539638D02*
X118135463Y-59634876D01*
X118135463Y-59634876D02*
X118230701Y-59730114D01*
X118230701Y-59730114D02*
X118325939Y-59920590D01*
X118325939Y-59920590D02*
X118325939Y-60206304D01*
X118325939Y-60206304D02*
X118230701Y-60396780D01*
X118230701Y-60396780D02*
X118135463Y-60492019D01*
X118135463Y-60492019D02*
X117944987Y-60587257D01*
X117944987Y-60587257D02*
X117183082Y-60587257D01*
X119564034Y-59539638D02*
X119944987Y-59539638D01*
X119944987Y-59539638D02*
X120135463Y-59634876D01*
X120135463Y-59634876D02*
X120325939Y-59825352D01*
X120325939Y-59825352D02*
X120421177Y-60206304D01*
X120421177Y-60206304D02*
X120421177Y-60872971D01*
X120421177Y-60872971D02*
X120325939Y-61253923D01*
X120325939Y-61253923D02*
X120135463Y-61444400D01*
X120135463Y-61444400D02*
X119944987Y-61539638D01*
X119944987Y-61539638D02*
X119564034Y-61539638D01*
X119564034Y-61539638D02*
X119373558Y-61444400D01*
X119373558Y-61444400D02*
X119183082Y-61253923D01*
X119183082Y-61253923D02*
X119087844Y-60872971D01*
X119087844Y-60872971D02*
X119087844Y-60206304D01*
X119087844Y-60206304D02*
X119183082Y-59825352D01*
X119183082Y-59825352D02*
X119373558Y-59634876D01*
X119373558Y-59634876D02*
X119564034Y-59539638D01*
X122421177Y-61539638D02*
X121754510Y-60587257D01*
X121278320Y-61539638D02*
X121278320Y-59539638D01*
X121278320Y-59539638D02*
X122040225Y-59539638D01*
X122040225Y-59539638D02*
X122230701Y-59634876D01*
X122230701Y-59634876D02*
X122325939Y-59730114D01*
X122325939Y-59730114D02*
X122421177Y-59920590D01*
X122421177Y-59920590D02*
X122421177Y-60206304D01*
X122421177Y-60206304D02*
X122325939Y-60396780D01*
X122325939Y-60396780D02*
X122230701Y-60492019D01*
X122230701Y-60492019D02*
X122040225Y-60587257D01*
X122040225Y-60587257D02*
X121278320Y-60587257D01*
X113373558Y-55189638D02*
X113373558Y-53189638D01*
X113373558Y-53189638D02*
X114135463Y-53189638D01*
X114135463Y-53189638D02*
X114325939Y-53284876D01*
X114325939Y-53284876D02*
X114421177Y-53380114D01*
X114421177Y-53380114D02*
X114516415Y-53570590D01*
X114516415Y-53570590D02*
X114516415Y-53856304D01*
X114516415Y-53856304D02*
X114421177Y-54046780D01*
X114421177Y-54046780D02*
X114325939Y-54142019D01*
X114325939Y-54142019D02*
X114135463Y-54237257D01*
X114135463Y-54237257D02*
X113373558Y-54237257D01*
X116516415Y-55189638D02*
X115849748Y-54237257D01*
X115373558Y-55189638D02*
X115373558Y-53189638D01*
X115373558Y-53189638D02*
X116135463Y-53189638D01*
X116135463Y-53189638D02*
X116325939Y-53284876D01*
X116325939Y-53284876D02*
X116421177Y-53380114D01*
X116421177Y-53380114D02*
X116516415Y-53570590D01*
X116516415Y-53570590D02*
X116516415Y-53856304D01*
X116516415Y-53856304D02*
X116421177Y-54046780D01*
X116421177Y-54046780D02*
X116325939Y-54142019D01*
X116325939Y-54142019D02*
X116135463Y-54237257D01*
X116135463Y-54237257D02*
X115373558Y-54237257D01*
X117754510Y-53189638D02*
X118135463Y-53189638D01*
X118135463Y-53189638D02*
X118325939Y-53284876D01*
X118325939Y-53284876D02*
X118516415Y-53475352D01*
X118516415Y-53475352D02*
X118611653Y-53856304D01*
X118611653Y-53856304D02*
X118611653Y-54522971D01*
X118611653Y-54522971D02*
X118516415Y-54903923D01*
X118516415Y-54903923D02*
X118325939Y-55094400D01*
X118325939Y-55094400D02*
X118135463Y-55189638D01*
X118135463Y-55189638D02*
X117754510Y-55189638D01*
X117754510Y-55189638D02*
X117564034Y-55094400D01*
X117564034Y-55094400D02*
X117373558Y-54903923D01*
X117373558Y-54903923D02*
X117278320Y-54522971D01*
X117278320Y-54522971D02*
X117278320Y-53856304D01*
X117278320Y-53856304D02*
X117373558Y-53475352D01*
X117373558Y-53475352D02*
X117564034Y-53284876D01*
X117564034Y-53284876D02*
X117754510Y-53189638D01*
X120516415Y-53284876D02*
X120325939Y-53189638D01*
X120325939Y-53189638D02*
X120040225Y-53189638D01*
X120040225Y-53189638D02*
X119754510Y-53284876D01*
X119754510Y-53284876D02*
X119564034Y-53475352D01*
X119564034Y-53475352D02*
X119468796Y-53665828D01*
X119468796Y-53665828D02*
X119373558Y-54046780D01*
X119373558Y-54046780D02*
X119373558Y-54332495D01*
X119373558Y-54332495D02*
X119468796Y-54713447D01*
X119468796Y-54713447D02*
X119564034Y-54903923D01*
X119564034Y-54903923D02*
X119754510Y-55094400D01*
X119754510Y-55094400D02*
X120040225Y-55189638D01*
X120040225Y-55189638D02*
X120230701Y-55189638D01*
X120230701Y-55189638D02*
X120516415Y-55094400D01*
X120516415Y-55094400D02*
X120611653Y-54999161D01*
X120611653Y-54999161D02*
X120611653Y-54332495D01*
X120611653Y-54332495D02*
X120230701Y-54332495D01*
X122611653Y-55189638D02*
X121944986Y-54237257D01*
X121468796Y-55189638D02*
X121468796Y-53189638D01*
X121468796Y-53189638D02*
X122230701Y-53189638D01*
X122230701Y-53189638D02*
X122421177Y-53284876D01*
X122421177Y-53284876D02*
X122516415Y-53380114D01*
X122516415Y-53380114D02*
X122611653Y-53570590D01*
X122611653Y-53570590D02*
X122611653Y-53856304D01*
X122611653Y-53856304D02*
X122516415Y-54046780D01*
X122516415Y-54046780D02*
X122421177Y-54142019D01*
X122421177Y-54142019D02*
X122230701Y-54237257D01*
X122230701Y-54237257D02*
X121468796Y-54237257D01*
X123373558Y-54618209D02*
X124325939Y-54618209D01*
X123183082Y-55189638D02*
X123849748Y-53189638D01*
X123849748Y-53189638D02*
X124516415Y-55189638D01*
X125183082Y-55189638D02*
X125183082Y-53189638D01*
X125183082Y-53189638D02*
X125849749Y-54618209D01*
X125849749Y-54618209D02*
X126516415Y-53189638D01*
X126516415Y-53189638D02*
X126516415Y-55189638D01*
X127468796Y-55189638D02*
X127468796Y-53189638D01*
X127468796Y-53189638D02*
X128135463Y-54618209D01*
X128135463Y-54618209D02*
X128802129Y-53189638D01*
X128802129Y-53189638D02*
X128802129Y-55189638D01*
X129754510Y-55189638D02*
X129754510Y-53189638D01*
X130706891Y-55189638D02*
X130706891Y-53189638D01*
X130706891Y-53189638D02*
X131849748Y-55189638D01*
X131849748Y-55189638D02*
X131849748Y-53189638D01*
X133849748Y-53284876D02*
X133659272Y-53189638D01*
X133659272Y-53189638D02*
X133373558Y-53189638D01*
X133373558Y-53189638D02*
X133087843Y-53284876D01*
X133087843Y-53284876D02*
X132897367Y-53475352D01*
X132897367Y-53475352D02*
X132802129Y-53665828D01*
X132802129Y-53665828D02*
X132706891Y-54046780D01*
X132706891Y-54046780D02*
X132706891Y-54332495D01*
X132706891Y-54332495D02*
X132802129Y-54713447D01*
X132802129Y-54713447D02*
X132897367Y-54903923D01*
X132897367Y-54903923D02*
X133087843Y-55094400D01*
X133087843Y-55094400D02*
X133373558Y-55189638D01*
X133373558Y-55189638D02*
X133564034Y-55189638D01*
X133564034Y-55189638D02*
X133849748Y-55094400D01*
X133849748Y-55094400D02*
X133944986Y-54999161D01*
X133944986Y-54999161D02*
X133944986Y-54332495D01*
X133944986Y-54332495D02*
X133564034Y-54332495D01*
X113373558Y-48839638D02*
X113373558Y-46839638D01*
X113373558Y-47792019D02*
X114516415Y-47792019D01*
X114516415Y-48839638D02*
X114516415Y-46839638D01*
X115468796Y-47792019D02*
X116135463Y-47792019D01*
X116421177Y-48839638D02*
X115468796Y-48839638D01*
X115468796Y-48839638D02*
X115468796Y-46839638D01*
X115468796Y-46839638D02*
X116421177Y-46839638D01*
X117183082Y-48268209D02*
X118135463Y-48268209D01*
X116992606Y-48839638D02*
X117659272Y-46839638D01*
X117659272Y-46839638D02*
X118325939Y-48839638D01*
X120135463Y-48839638D02*
X119468796Y-47887257D01*
X118992606Y-48839638D02*
X118992606Y-46839638D01*
X118992606Y-46839638D02*
X119754511Y-46839638D01*
X119754511Y-46839638D02*
X119944987Y-46934876D01*
X119944987Y-46934876D02*
X120040225Y-47030114D01*
X120040225Y-47030114D02*
X120135463Y-47220590D01*
X120135463Y-47220590D02*
X120135463Y-47506304D01*
X120135463Y-47506304D02*
X120040225Y-47696780D01*
X120040225Y-47696780D02*
X119944987Y-47792019D01*
X119944987Y-47792019D02*
X119754511Y-47887257D01*
X119754511Y-47887257D02*
X118992606Y-47887257D01*
X120706892Y-46839638D02*
X121849749Y-46839638D01*
X121278320Y-48839638D02*
X121278320Y-46839638D01*
X123183083Y-47792019D02*
X123468797Y-47887257D01*
X123468797Y-47887257D02*
X123564035Y-47982495D01*
X123564035Y-47982495D02*
X123659273Y-48172971D01*
X123659273Y-48172971D02*
X123659273Y-48458685D01*
X123659273Y-48458685D02*
X123564035Y-48649161D01*
X123564035Y-48649161D02*
X123468797Y-48744400D01*
X123468797Y-48744400D02*
X123278321Y-48839638D01*
X123278321Y-48839638D02*
X122516416Y-48839638D01*
X122516416Y-48839638D02*
X122516416Y-46839638D01*
X122516416Y-46839638D02*
X123183083Y-46839638D01*
X123183083Y-46839638D02*
X123373559Y-46934876D01*
X123373559Y-46934876D02*
X123468797Y-47030114D01*
X123468797Y-47030114D02*
X123564035Y-47220590D01*
X123564035Y-47220590D02*
X123564035Y-47411066D01*
X123564035Y-47411066D02*
X123468797Y-47601542D01*
X123468797Y-47601542D02*
X123373559Y-47696780D01*
X123373559Y-47696780D02*
X123183083Y-47792019D01*
X123183083Y-47792019D02*
X122516416Y-47792019D01*
X124516416Y-47792019D02*
X125183083Y-47792019D01*
X125468797Y-48839638D02*
X124516416Y-48839638D01*
X124516416Y-48839638D02*
X124516416Y-46839638D01*
X124516416Y-46839638D02*
X125468797Y-46839638D01*
X126230702Y-48268209D02*
X127183083Y-48268209D01*
X126040226Y-48839638D02*
X126706892Y-46839638D01*
X126706892Y-46839638D02*
X127373559Y-48839638D01*
X127754512Y-46839638D02*
X128897369Y-46839638D01*
X128325940Y-48839638D02*
X128325940Y-46839638D01*
D14*
%TO.C,JP2*%
X111370000Y-75870000D02*
X111370000Y-74540000D01*
X111370000Y-79740000D02*
X114030000Y-79740000D01*
X111370000Y-77140000D02*
X111370000Y-79740000D01*
X111370000Y-77140000D02*
X114030000Y-77140000D01*
X111370000Y-74540000D02*
X112700000Y-74540000D01*
X114030000Y-77140000D02*
X114030000Y-79740000D01*
%TO.C,C2*%
X122350000Y-79044420D02*
X122350000Y-79325580D01*
X123370000Y-79044420D02*
X123370000Y-79325580D01*
%TO.C,C1*%
X123370000Y-75235580D02*
X123370000Y-74954420D01*
X122350000Y-75235580D02*
X122350000Y-74954420D01*
D15*
%TO.C,SW1*%
X114930000Y-85070000D02*
X114430000Y-85070000D01*
X112430000Y-85070000D02*
X110430000Y-85070000D01*
X108430000Y-85070000D02*
X107930000Y-85070000D01*
X107930000Y-85070000D02*
X107930000Y-92070000D01*
X114930000Y-92070000D02*
X114930000Y-85070000D01*
X114430000Y-92070000D02*
X114930000Y-92070000D01*
X112430000Y-92070000D02*
X110430000Y-92070000D01*
X107930000Y-92070000D02*
X108430000Y-92070000D01*
D13*
X115080000Y-92820000D02*
G75*
G03*
X114780000Y-92820000I-150000J0D01*
G01*
X114780000Y-92820000D02*
G75*
G03*
X115080000Y-92820000I150000J0D01*
G01*
D14*
%TO.C,U1*%
X124060000Y-77140000D02*
X124060000Y-74940000D01*
X129280000Y-77140000D02*
X129280000Y-74940000D01*
X129280000Y-77140000D02*
X129280000Y-79340000D01*
X124060000Y-77140000D02*
X124060000Y-80740000D01*
%TO.C,R4*%
X119785000Y-75031436D02*
X119785000Y-75485564D01*
X118315000Y-75031436D02*
X118315000Y-75485564D01*
%TO.C,R3*%
X141175000Y-64667064D02*
X141175000Y-64212936D01*
X142645000Y-64667064D02*
X142645000Y-64212936D01*
%TO.C,R2*%
X143715000Y-64667064D02*
X143715000Y-64212936D01*
X145185000Y-64667064D02*
X145185000Y-64212936D01*
%TO.C,R1*%
X146255000Y-64667064D02*
X146255000Y-64212936D01*
X147725000Y-64667064D02*
X147725000Y-64212936D01*
%TO.C,J5*%
X123630000Y-94520000D02*
X124630000Y-94520000D01*
X124630000Y-94520000D02*
X124130000Y-93520000D01*
X124130000Y-93520000D02*
X123630000Y-94520000D01*
X118920000Y-93130000D02*
X118920000Y-84010000D01*
X124620000Y-93130000D02*
X124620000Y-91820000D01*
X134420000Y-93130000D02*
X118920000Y-93130000D01*
X120220000Y-91820000D02*
X120220000Y-85320000D01*
X124620000Y-91820000D02*
X120220000Y-91820000D01*
X128720000Y-91820000D02*
X128720000Y-93130000D01*
X128720000Y-91820000D02*
X128720000Y-91820000D01*
X133120000Y-91820000D02*
X128720000Y-91820000D01*
X120220000Y-85320000D02*
X133120000Y-85320000D01*
X133120000Y-85320000D02*
X133120000Y-91820000D01*
X118920000Y-84010000D02*
X134420000Y-84010000D01*
X134420000Y-84010000D02*
X134420000Y-93130000D01*
%TO.C,JP1*%
X111430000Y-68190000D02*
X116570000Y-68190000D01*
X116570000Y-70850000D02*
X116570000Y-68190000D01*
X111430000Y-70850000D02*
X111430000Y-68190000D01*
X111430000Y-70850000D02*
X116570000Y-70850000D01*
X110160000Y-70850000D02*
X108830000Y-70850000D01*
X108830000Y-70850000D02*
X108830000Y-69520000D01*
%TO.C,D2*%
X107330000Y-59394000D02*
X107330000Y-59550000D01*
X107330000Y-61710000D02*
X107330000Y-61866000D01*
X110562334Y-59551392D02*
G75*
G03*
X107330001Y-59394485I-1672334J-1078608D01*
G01*
X109931129Y-59550164D02*
G75*
G03*
X107849040Y-59550001I-1041129J-1079836D01*
G01*
X107849040Y-61709999D02*
G75*
G03*
X109931129Y-61709836I1040960J1079999D01*
G01*
X107330001Y-61865515D02*
G75*
G03*
X110562334Y-61708608I1559999J1235515D01*
G01*
%TO.C,D3*%
X107330000Y-53044000D02*
X107330000Y-53200000D01*
X107330000Y-55360000D02*
X107330000Y-55516000D01*
X110562334Y-53201392D02*
G75*
G03*
X107330001Y-53044485I-1672334J-1078608D01*
G01*
X109931129Y-53200164D02*
G75*
G03*
X107849040Y-53200001I-1041129J-1079836D01*
G01*
X107849040Y-55359999D02*
G75*
G03*
X109931129Y-55359836I1040960J1079999D01*
G01*
X107330001Y-55515515D02*
G75*
G03*
X110562334Y-55358608I1559999J1235515D01*
G01*
%TO.C,D1*%
X107330000Y-46694000D02*
X107330000Y-46850000D01*
X107330000Y-49010000D02*
X107330000Y-49166000D01*
X110562334Y-46851392D02*
G75*
G03*
X107330001Y-46694485I-1672334J-1078608D01*
G01*
X109931129Y-46850164D02*
G75*
G03*
X107849040Y-46850001I-1041129J-1079836D01*
G01*
X107849040Y-49009999D02*
G75*
G03*
X109931129Y-49009836I1040960J1079999D01*
G01*
X107330001Y-49165515D02*
G75*
G03*
X110562334Y-49008608I1559999J1235515D01*
G01*
%TD*%
%LPC*%
D16*
%TO.C,JP2*%
X112700000Y-75870000D03*
D17*
X112700000Y-78410000D03*
%TD*%
D18*
%TO.C,C2*%
X122860000Y-78410000D03*
X122860000Y-79960000D03*
%TD*%
D19*
%TO.C,C1*%
X122860000Y-75870000D03*
X122860000Y-74320000D03*
%TD*%
D20*
%TO.C,SW1*%
X113430000Y-91570000D03*
X113430000Y-85570000D03*
X109430000Y-85570000D03*
X109430000Y-91570000D03*
%TD*%
D21*
%TO.C,U1*%
X124720000Y-80002500D03*
X125370000Y-80002500D03*
X126020000Y-80002500D03*
X126670000Y-80002500D03*
X127320000Y-80002500D03*
X127970000Y-80002500D03*
X128620000Y-80002500D03*
X128620000Y-74277500D03*
X127970000Y-74277500D03*
X127320000Y-74277500D03*
X126670000Y-74277500D03*
X126020000Y-74277500D03*
X125370000Y-74277500D03*
X124720000Y-74277500D03*
%TD*%
D22*
%TO.C,R4*%
X119050000Y-74346000D03*
X119050000Y-76171000D03*
%TD*%
D23*
%TO.C,R3*%
X141910000Y-65352500D03*
X141910000Y-63527500D03*
%TD*%
%TO.C,R2*%
X144450000Y-65352500D03*
X144450000Y-63527500D03*
%TD*%
%TO.C,R1*%
X146990000Y-65352500D03*
X146990000Y-63527500D03*
%TD*%
D24*
%TO.C,J5*%
X124130000Y-89840000D03*
D25*
X124130000Y-87300000D03*
X126670000Y-89840000D03*
X126670000Y-87300000D03*
X129210000Y-89840000D03*
X129210000Y-87300000D03*
%TD*%
D26*
%TO.C,MH1*%
X150800000Y-46660000D03*
%TD*%
D17*
%TO.C,JP1*%
X115240000Y-69520000D03*
X112700000Y-69520000D03*
D16*
X110160000Y-69520000D03*
%TD*%
D27*
%TO.C,D2*%
X107620000Y-60630000D03*
D28*
X110160000Y-60630000D03*
%TD*%
D27*
%TO.C,D3*%
X107620000Y-54280000D03*
D28*
X110160000Y-54280000D03*
%TD*%
D27*
%TO.C,D1*%
X107620000Y-47930000D03*
D28*
X110160000Y-47930000D03*
%TD*%
D26*
%TO.C,MH2*%
X102540000Y-45390000D03*
%TD*%
%TO.C,MH3*%
X135560000Y-97460000D03*
%TD*%
%TO.C,MH4*%
X107620000Y-97460000D03*
%TD*%
D16*
%TO.C,J1*%
X102540000Y-59360000D03*
D17*
X102540000Y-61900000D03*
X102540000Y-64440000D03*
X102540000Y-66980000D03*
X102540000Y-69520000D03*
X102540000Y-72060000D03*
X102540000Y-74600000D03*
X102540000Y-77140000D03*
%TD*%
D16*
%TO.C,J3*%
X102540000Y-82220000D03*
D17*
X102540000Y-84760000D03*
X102540000Y-87300000D03*
X102540000Y-89840000D03*
X102540000Y-92380000D03*
X102540000Y-94920000D03*
%TD*%
D16*
%TO.C,J2*%
X150800000Y-50216000D03*
D17*
X150800000Y-52756000D03*
X150800000Y-55296000D03*
X150800000Y-57836000D03*
X150800000Y-60376000D03*
X150800000Y-62916000D03*
X150800000Y-65456000D03*
X150800000Y-67996000D03*
X150800000Y-70536000D03*
X150800000Y-73076000D03*
%TD*%
D16*
%TO.C,J4*%
X150800000Y-77140000D03*
D17*
X150800000Y-79680000D03*
X150800000Y-82220000D03*
X150800000Y-84760000D03*
X150800000Y-87300000D03*
X150800000Y-89840000D03*
X150800000Y-92380000D03*
X150800000Y-94920000D03*
%TD*%
%LPD*%
M02*
