%TF.GenerationSoftware,KiCad,Pcbnew,7.0.10-7.0.10~ubuntu22.04.1*%
%TF.CreationDate,2024-01-23T12:26:40-05:00*%
%TF.ProjectId,arduino_icsp_shield,61726475-696e-46f5-9f69-6373705f7368,0.1*%
%TF.SameCoordinates,Original*%
%TF.FileFunction,Copper,L1,Top*%
%TF.FilePolarity,Positive*%
%FSLAX46Y46*%
G04 Gerber Fmt 4.6, Leading zero omitted, Abs format (unit mm)*
G04 Created by KiCad (PCBNEW 7.0.10-7.0.10~ubuntu22.04.1) date 2024-01-23 12:26:40*
%MOMM*%
%LPD*%
G01*
G04 APERTURE LIST*
G04 Aperture macros list*
%AMRoundRect*
0 Rectangle with rounded corners*
0 $1 Rounding radius*
0 $2 $3 $4 $5 $6 $7 $8 $9 X,Y pos of 4 corners*
0 Add a 4 corners polygon primitive as box body*
4,1,4,$2,$3,$4,$5,$6,$7,$8,$9,$2,$3,0*
0 Add four circle primitives for the rounded corners*
1,1,$1+$1,$2,$3*
1,1,$1+$1,$4,$5*
1,1,$1+$1,$6,$7*
1,1,$1+$1,$8,$9*
0 Add four rect primitives between the rounded corners*
20,1,$1+$1,$2,$3,$4,$5,0*
20,1,$1+$1,$4,$5,$6,$7,0*
20,1,$1+$1,$6,$7,$8,$9,0*
20,1,$1+$1,$8,$9,$2,$3,0*%
G04 Aperture macros list end*
%TA.AperFunction,ComponentPad*%
%ADD10RoundRect,0.250000X0.600000X-0.600000X0.600000X0.600000X-0.600000X0.600000X-0.600000X-0.600000X0*%
%TD*%
%TA.AperFunction,ComponentPad*%
%ADD11C,1.700000*%
%TD*%
%TA.AperFunction,SMDPad,CuDef*%
%ADD12RoundRect,0.225000X-0.250000X0.225000X-0.250000X-0.225000X0.250000X-0.225000X0.250000X0.225000X0*%
%TD*%
%TA.AperFunction,SMDPad,CuDef*%
%ADD13RoundRect,0.250000X0.450000X-0.262500X0.450000X0.262500X-0.450000X0.262500X-0.450000X-0.262500X0*%
%TD*%
%TA.AperFunction,ComponentPad*%
%ADD14R,1.700000X1.700000*%
%TD*%
%TA.AperFunction,ComponentPad*%
%ADD15O,1.700000X1.700000*%
%TD*%
%TA.AperFunction,SMDPad,CuDef*%
%ADD16R,1.000000X3.000000*%
%TD*%
%TA.AperFunction,ComponentPad*%
%ADD17R,1.800000X1.800000*%
%TD*%
%TA.AperFunction,ComponentPad*%
%ADD18C,1.800000*%
%TD*%
%TA.AperFunction,SMDPad,CuDef*%
%ADD19RoundRect,0.100000X0.100000X-0.637500X0.100000X0.637500X-0.100000X0.637500X-0.100000X-0.637500X0*%
%TD*%
%TA.AperFunction,SMDPad,CuDef*%
%ADD20RoundRect,0.225000X0.250000X-0.225000X0.250000X0.225000X-0.250000X0.225000X-0.250000X-0.225000X0*%
%TD*%
%TA.AperFunction,ViaPad*%
%ADD21C,0.600000*%
%TD*%
%TA.AperFunction,ViaPad*%
%ADD22C,0.800000*%
%TD*%
%TA.AperFunction,Conductor*%
%ADD23C,0.400000*%
%TD*%
%TA.AperFunction,Conductor*%
%ADD24C,0.600000*%
%TD*%
G04 APERTURE END LIST*
D10*
%TO.P,J5,1,Pin_1*%
%TO.N,/ICSP_MISO*%
X124130000Y-89840000D03*
D11*
%TO.P,J5,2,Pin_2*%
%TO.N,/ICSP_VOUT*%
X124130000Y-87300000D03*
%TO.P,J5,3,Pin_3*%
%TO.N,/ICSP_SCK*%
X126670000Y-89840000D03*
%TO.P,J5,4,Pin_4*%
%TO.N,/ICSP_MOSI*%
X126670000Y-87300000D03*
%TO.P,J5,5,Pin_5*%
%TO.N,/ICSP_RESET*%
X129210000Y-89840000D03*
%TO.P,J5,6,Pin_6*%
%TO.N,GND*%
X129210000Y-87300000D03*
%TD*%
D12*
%TO.P,C2,1*%
%TO.N,GND*%
X122860000Y-78410000D03*
%TO.P,C2,2*%
%TO.N,/ICSP_VCC*%
X122860000Y-79960000D03*
%TD*%
D13*
%TO.P,R4,1*%
%TO.N,/ICSP_VCC*%
X119558000Y-79934000D03*
%TO.P,R4,2*%
%TO.N,/ENABLE*%
X119558000Y-78109000D03*
%TD*%
%TO.P,R3,1*%
%TO.N,/D7{slash}PROG*%
X141910000Y-65352500D03*
%TO.P,R3,2*%
%TO.N,/PROG_LED*%
X141910000Y-63527500D03*
%TD*%
D14*
%TO.P,JP1,1,A*%
%TO.N,+5V*%
X110160000Y-69520000D03*
D15*
%TO.P,JP1,2,C*%
%TO.N,/ICSP_VCC*%
X112700000Y-69520000D03*
%TO.P,JP1,3,B*%
%TO.N,+3V3*%
X115240000Y-69520000D03*
%TD*%
D16*
%TO.P,SW1,1,C*%
%TO.N,/ICSP_RESET*%
X113430000Y-91570000D03*
%TO.P,SW1,2,NC*%
%TO.N,/RESET*%
X113430000Y-85570000D03*
%TO.P,SW1,3,NO*%
%TO.N,GND*%
X109430000Y-85570000D03*
X109430000Y-91570000D03*
%TD*%
D13*
%TO.P,R1,1*%
%TO.N,/D9{slash}HB*%
X146990000Y-65352500D03*
%TO.P,R1,2*%
%TO.N,/HB_LED*%
X146990000Y-63527500D03*
%TD*%
D17*
%TO.P,D2,1,K*%
%TO.N,GND*%
X107620000Y-60630000D03*
D18*
%TO.P,D2,2,A*%
%TO.N,/ERR_LED*%
X110160000Y-60630000D03*
%TD*%
D17*
%TO.P,D3,1,K*%
%TO.N,GND*%
X107620000Y-54280000D03*
D18*
%TO.P,D3,2,A*%
%TO.N,/PROG_LED*%
X110160000Y-54280000D03*
%TD*%
D17*
%TO.P,D1,1,K*%
%TO.N,GND*%
X107620000Y-47930000D03*
D18*
%TO.P,D1,2,A*%
%TO.N,/HB_LED*%
X110160000Y-47930000D03*
%TD*%
D13*
%TO.P,R2,1*%
%TO.N,/D8{slash}ERROR*%
X144450000Y-65352500D03*
%TO.P,R2,2*%
%TO.N,/ERR_LED*%
X144450000Y-63527500D03*
%TD*%
D14*
%TO.P,JP2,1,A*%
%TO.N,/ICSP_VCC*%
X112700000Y-75870000D03*
D15*
%TO.P,JP2,2,B*%
%TO.N,/ICSP_VOUT*%
X112700000Y-78410000D03*
%TD*%
D19*
%TO.P,U1,1,VCCA*%
%TO.N,/ICSP_VCC*%
X124720000Y-80002500D03*
%TO.P,U1,2,A1*%
%TO.N,/RESET*%
X125370000Y-80002500D03*
%TO.P,U1,3,A2*%
%TO.N,/ICSP_MISO*%
X126020000Y-80002500D03*
%TO.P,U1,4,A3*%
%TO.N,/ICSP_MOSI*%
X126670000Y-80002500D03*
%TO.P,U1,5,A4*%
%TO.N,/ICSP_SCK*%
X127320000Y-80002500D03*
%TO.P,U1,6,NC*%
%TO.N,unconnected-(U1-NC-Pad6)*%
X127970000Y-80002500D03*
%TO.P,U1,7,GND*%
%TO.N,GND*%
X128620000Y-80002500D03*
%TO.P,U1,8,EN*%
%TO.N,/ENABLE*%
X128620000Y-74277500D03*
%TO.P,U1,9,NC*%
%TO.N,unconnected-(U1-NC-Pad9)*%
X127970000Y-74277500D03*
%TO.P,U1,10,Y4*%
%TO.N,/D13{slash}SCK*%
X127320000Y-74277500D03*
%TO.P,U1,11,Y3*%
%TO.N,/D11{slash}MOSI*%
X126670000Y-74277500D03*
%TO.P,U1,12,Y2*%
%TO.N,/D12{slash}MISO*%
X126020000Y-74277500D03*
%TO.P,U1,13,Y1*%
%TO.N,/D10{slash}RESET*%
X125370000Y-74277500D03*
%TO.P,U1,14,VCCY*%
%TO.N,+5V*%
X124720000Y-74277500D03*
%TD*%
D20*
%TO.P,C1,1*%
%TO.N,GND*%
X122860000Y-75870000D03*
%TO.P,C1,2*%
%TO.N,+5V*%
X122860000Y-74320000D03*
%TD*%
D14*
%TO.P,J1,1,Pin_1*%
%TO.N,unconnected-(J1-Pin_1-Pad1)*%
X102540000Y-59360000D03*
D15*
%TO.P,J1,2,Pin_2*%
%TO.N,/IOREF*%
X102540000Y-61900000D03*
%TO.P,J1,3,Pin_3*%
%TO.N,/~{RESET}*%
X102540000Y-64440000D03*
%TO.P,J1,4,Pin_4*%
%TO.N,+3V3*%
X102540000Y-66980000D03*
%TO.P,J1,5,Pin_5*%
%TO.N,+5V*%
X102540000Y-69520000D03*
%TO.P,J1,6,Pin_6*%
%TO.N,GND*%
X102540000Y-72060000D03*
%TO.P,J1,7,Pin_7*%
X102540000Y-74600000D03*
%TO.P,J1,8,Pin_8*%
%TO.N,/Vin*%
X102540000Y-77140000D03*
%TD*%
D14*
%TO.P,J3,1,Pin_1*%
%TO.N,/A0*%
X102540000Y-82220000D03*
D15*
%TO.P,J3,2,Pin_2*%
%TO.N,/A1*%
X102540000Y-84760000D03*
%TO.P,J3,3,Pin_3*%
%TO.N,/A2*%
X102540000Y-87300000D03*
%TO.P,J3,4,Pin_4*%
%TO.N,/A3*%
X102540000Y-89840000D03*
%TO.P,J3,5,Pin_5*%
%TO.N,/A4*%
X102540000Y-92380000D03*
%TO.P,J3,6,Pin_6*%
%TO.N,/A5*%
X102540000Y-94920000D03*
%TD*%
D14*
%TO.P,J2,1,Pin_1*%
%TO.N,/SCL*%
X150800000Y-50216000D03*
D15*
%TO.P,J2,2,Pin_2*%
%TO.N,/SDA*%
X150800000Y-52756000D03*
%TO.P,J2,3,Pin_3*%
%TO.N,/AREF*%
X150800000Y-55296000D03*
%TO.P,J2,4,Pin_4*%
%TO.N,GND*%
X150800000Y-57836000D03*
%TO.P,J2,5,Pin_5*%
%TO.N,/D13{slash}SCK*%
X150800000Y-60376000D03*
%TO.P,J2,6,Pin_6*%
%TO.N,/D12{slash}MISO*%
X150800000Y-62916000D03*
%TO.P,J2,7,Pin_7*%
%TO.N,/D11{slash}MOSI*%
X150800000Y-65456000D03*
%TO.P,J2,8,Pin_8*%
%TO.N,/D10{slash}RESET*%
X150800000Y-67996000D03*
%TO.P,J2,9,Pin_9*%
%TO.N,/D9{slash}HB*%
X150800000Y-70536000D03*
%TO.P,J2,10,Pin_10*%
%TO.N,/D8{slash}ERROR*%
X150800000Y-73076000D03*
%TD*%
D14*
%TO.P,J4,1,Pin_1*%
%TO.N,/D7{slash}PROG*%
X150800000Y-77140000D03*
D15*
%TO.P,J4,2,Pin_2*%
%TO.N,/D6*%
X150800000Y-79680000D03*
%TO.P,J4,3,Pin_3*%
%TO.N,/D5*%
X150800000Y-82220000D03*
%TO.P,J4,4,Pin_4*%
%TO.N,/D4*%
X150800000Y-84760000D03*
%TO.P,J4,5,Pin_5*%
%TO.N,/D3*%
X150800000Y-87300000D03*
%TO.P,J4,6,Pin_6*%
%TO.N,/D0*%
X150800000Y-89840000D03*
%TO.P,J4,7,Pin_7*%
%TO.N,/TX{slash}1*%
X150800000Y-92380000D03*
%TO.P,J4,8,Pin_8*%
%TO.N,/RX{slash}0*%
X150800000Y-94920000D03*
%TD*%
D21*
%TO.N,GND*%
X117526000Y-78410000D03*
X114605000Y-75870000D03*
X130480000Y-86030000D03*
X121590000Y-99365000D03*
X121420000Y-75750000D03*
X130480000Y-88570000D03*
X107620000Y-93015000D03*
D22*
X151435000Y-75235000D03*
D21*
X136195000Y-89205000D03*
X136830000Y-73330000D03*
X144450000Y-54280000D03*
X122170000Y-90500000D03*
X126670000Y-58725000D03*
X108890000Y-44755000D03*
X121420000Y-78500000D03*
X144450000Y-80315000D03*
X140005000Y-64440000D03*
X123495000Y-72695000D03*
X137465000Y-99365000D03*
X111430000Y-93015000D03*
X126670000Y-32690000D03*
X111430000Y-90475000D03*
X116670000Y-84500000D03*
X144450000Y-73330000D03*
X104445000Y-99365000D03*
X150800000Y-96825000D03*
X144450000Y-45390000D03*
X126670000Y-51105000D03*
X143180000Y-60630000D03*
X100635000Y-56820000D03*
X101270000Y-47930000D03*
X108890000Y-88570000D03*
X100635000Y-79680000D03*
X106985000Y-75870000D03*
X152705000Y-48565000D03*
X129210000Y-81585000D03*
X122670000Y-81500000D03*
X108890000Y-51105000D03*
X131750000Y-87300000D03*
X129845000Y-80950000D03*
X111430000Y-84125000D03*
X107620000Y-84125000D03*
X124670000Y-78250000D03*
X120170000Y-83500000D03*
X101270000Y-32690000D03*
X148260000Y-87935000D03*
X122170000Y-86000000D03*
X108890000Y-63805000D03*
X129210000Y-84760000D03*
X113970000Y-70790000D03*
X113970000Y-82220000D03*
X126670000Y-45390000D03*
X136195000Y-78410000D03*
X113670000Y-88500000D03*
X100635000Y-96190000D03*
X128575000Y-66980000D03*
X124670000Y-76000000D03*
X111430000Y-73330000D03*
X108890000Y-57455000D03*
X140005000Y-66980000D03*
X148260000Y-61265000D03*
X124170000Y-83500000D03*
X119685000Y-72695000D03*
X139370000Y-61900000D03*
X152070000Y-32690000D03*
X129845000Y-79680000D03*
X118170000Y-82000000D03*
X111430000Y-86030000D03*
X128670000Y-78250000D03*
X129845000Y-73330000D03*
X140640000Y-96825000D03*
%TO.N,/D13{slash}SCK*%
X127320000Y-68250000D03*
%TO.N,/D12{slash}MISO*%
X125370000Y-69520000D03*
%TO.N,/D11{slash}MOSI*%
X126620000Y-70790000D03*
%TO.N,/D10{slash}RESET*%
X124720000Y-72060000D03*
D22*
%TO.N,/HB_LED*%
X146990000Y-61900000D03*
%TO.N,/ERR_LED*%
X144450000Y-61900000D03*
%TO.N,/PROG_LED*%
X141910000Y-61900000D03*
D21*
%TO.N,/ENABLE*%
X119558000Y-77140000D03*
X128620000Y-76000000D03*
%TD*%
D23*
%TO.N,/ENABLE*%
X119558000Y-78109000D02*
X119558000Y-77140000D01*
%TO.N,GND*%
X128620000Y-78300000D02*
X128670000Y-78250000D01*
X128620000Y-80002500D02*
X128620000Y-78300000D01*
X112660000Y-73330000D02*
X114605000Y-75275000D01*
X111430000Y-73330000D02*
X112660000Y-73330000D01*
X114605000Y-75275000D02*
X114605000Y-75870000D01*
%TO.N,+5V*%
X122860000Y-74320000D02*
X124677500Y-74320000D01*
D24*
X114960000Y-74320000D02*
X122860000Y-74320000D01*
X110160000Y-69520000D02*
X114960000Y-74320000D01*
D23*
X124677500Y-74320000D02*
X124720000Y-74277500D01*
D24*
%TO.N,/ICSP_VCC*%
X116790000Y-79960000D02*
X112700000Y-75870000D01*
D23*
X124677500Y-79960000D02*
X124720000Y-80002500D01*
D24*
X122860000Y-79960000D02*
X116790000Y-79960000D01*
D23*
X122860000Y-79960000D02*
X124677500Y-79960000D01*
%TO.N,/D13{slash}SCK*%
X127320000Y-74277500D02*
X127320000Y-68250000D01*
%TO.N,/D12{slash}MISO*%
X126020000Y-74277500D02*
X126020000Y-71179950D01*
X126020000Y-71179950D02*
X125370000Y-70529950D01*
X125370000Y-70529950D02*
X125370000Y-69520000D01*
%TO.N,/D11{slash}MOSI*%
X126620000Y-70790000D02*
X126670000Y-70840000D01*
X126670000Y-70840000D02*
X126670000Y-74277500D01*
%TO.N,/D10{slash}RESET*%
X125370000Y-72710000D02*
X125370000Y-74277500D01*
X124720000Y-72060000D02*
X125370000Y-72710000D01*
D24*
%TO.N,/HB_LED*%
X146990000Y-63527500D02*
X146990000Y-61900000D01*
%TO.N,/ERR_LED*%
X144450000Y-63527500D02*
X144450000Y-61900000D01*
%TO.N,/PROG_LED*%
X141910000Y-63527500D02*
X141910000Y-61900000D01*
%TO.N,/D9{slash}HB*%
X146990000Y-66726000D02*
X150800000Y-70536000D01*
X146990000Y-65352500D02*
X146990000Y-66726000D01*
%TO.N,/D8{slash}ERROR*%
X144450000Y-65352500D02*
X144450000Y-66726000D01*
X144450000Y-66726000D02*
X150800000Y-73076000D01*
%TO.N,/D7{slash}PROG*%
X141910000Y-68250000D02*
X150800000Y-77140000D01*
X141910000Y-65352500D02*
X141910000Y-68250000D01*
D23*
%TO.N,/ICSP_MISO*%
X124130000Y-89840000D02*
X125420000Y-88550000D01*
X125420000Y-88550000D02*
X125420000Y-82200000D01*
X125420000Y-82200000D02*
X126020000Y-81600000D01*
X126020000Y-81600000D02*
X126020000Y-80002500D01*
%TO.N,/ICSP_SCK*%
X126670000Y-89840000D02*
X127920000Y-88590000D01*
X127320000Y-81000000D02*
X127320000Y-80002500D01*
X127920000Y-88590000D02*
X127920000Y-81600000D01*
X127920000Y-81600000D02*
X127320000Y-81000000D01*
%TO.N,/ICSP_MOSI*%
X126670000Y-80002500D02*
X126670000Y-87300000D01*
%TO.N,/ICSP_RESET*%
X129210000Y-89840000D02*
X127480000Y-91570000D01*
X127480000Y-91570000D02*
X113430000Y-91570000D01*
%TO.N,/ENABLE*%
X128620000Y-76000000D02*
X128620000Y-74277500D01*
%TO.N,/RESET*%
X125370000Y-80799878D02*
X120599878Y-85570000D01*
X125370000Y-80002500D02*
X125370000Y-80799878D01*
X120599878Y-85570000D02*
X113430000Y-85570000D01*
%TD*%
%TA.AperFunction,Conductor*%
%TO.N,GND*%
G36*
X102790000Y-74164498D02*
G01*
X102682315Y-74115320D01*
X102575763Y-74100000D01*
X102504237Y-74100000D01*
X102397685Y-74115320D01*
X102290000Y-74164498D01*
X102290000Y-72495501D01*
X102397685Y-72544680D01*
X102504237Y-72560000D01*
X102575763Y-72560000D01*
X102682315Y-72544680D01*
X102790000Y-72495501D01*
X102790000Y-74164498D01*
G37*
%TD.AperFunction*%
%TA.AperFunction,Conductor*%
G36*
X152584061Y-31496097D02*
G01*
X152699777Y-31507494D01*
X152723612Y-31512234D01*
X152829037Y-31544215D01*
X152851476Y-31553510D01*
X152948629Y-31605439D01*
X152968839Y-31618943D01*
X153053988Y-31688823D01*
X153071176Y-31706011D01*
X153141056Y-31791160D01*
X153154561Y-31811372D01*
X153206486Y-31908517D01*
X153215786Y-31930968D01*
X153242625Y-32019445D01*
X153247763Y-32036381D01*
X153252505Y-32060221D01*
X153263903Y-32175937D01*
X153264500Y-32188092D01*
X153264500Y-94837364D01*
X153244815Y-94904403D01*
X153228181Y-94925045D01*
X150805045Y-97348181D01*
X150743722Y-97381666D01*
X150717364Y-97384500D01*
X140684986Y-97384500D01*
X140665713Y-97381962D01*
X140643710Y-97383887D01*
X140642101Y-97384028D01*
X140631296Y-97384500D01*
X140626683Y-97384500D01*
X140622136Y-97385301D01*
X140611435Y-97386710D01*
X140606043Y-97387181D01*
X140596461Y-97391649D01*
X140588352Y-97398453D01*
X140587744Y-97399508D01*
X140568042Y-97425182D01*
X138105045Y-99888181D01*
X138043722Y-99921666D01*
X138017364Y-99924500D01*
X103892636Y-99924500D01*
X103825597Y-99904815D01*
X103804955Y-99888181D01*
X101355197Y-97438423D01*
X101343366Y-97423003D01*
X101325210Y-97407768D01*
X101317236Y-97400461D01*
X101313975Y-97397200D01*
X101310200Y-97394557D01*
X101301616Y-97387971D01*
X101300676Y-97387182D01*
X101297480Y-97384500D01*
X101297479Y-97384500D01*
X101287536Y-97380880D01*
X101277003Y-97379959D01*
X101275826Y-97380275D01*
X101243732Y-97384500D01*
X100768093Y-97384500D01*
X100755939Y-97383903D01*
X100747995Y-97383120D01*
X100640221Y-97372505D01*
X100616381Y-97367763D01*
X100599445Y-97362625D01*
X100510968Y-97335786D01*
X100488517Y-97326486D01*
X100391372Y-97274561D01*
X100371160Y-97261056D01*
X100286011Y-97191176D01*
X100268823Y-97173988D01*
X100198943Y-97088839D01*
X100185438Y-97068627D01*
X100133510Y-96971476D01*
X100124215Y-96949037D01*
X100092234Y-96843612D01*
X100087494Y-96819777D01*
X100076097Y-96704061D01*
X100075500Y-96691907D01*
X100075500Y-94920005D01*
X101176844Y-94920005D01*
X101195434Y-95144359D01*
X101195436Y-95144371D01*
X101250703Y-95362614D01*
X101341140Y-95568792D01*
X101464276Y-95757265D01*
X101464284Y-95757276D01*
X101616756Y-95922902D01*
X101616760Y-95922906D01*
X101794424Y-96061189D01*
X101794425Y-96061189D01*
X101794427Y-96061191D01*
X101921135Y-96129761D01*
X101992426Y-96168342D01*
X102205365Y-96241444D01*
X102427431Y-96278500D01*
X102652569Y-96278500D01*
X102874635Y-96241444D01*
X103087574Y-96168342D01*
X103285576Y-96061189D01*
X103463240Y-95922906D01*
X103615722Y-95757268D01*
X103738860Y-95568791D01*
X103829296Y-95362616D01*
X103884564Y-95144368D01*
X103884565Y-95144359D01*
X103903156Y-94920005D01*
X103903156Y-94919994D01*
X103884565Y-94695640D01*
X103884563Y-94695628D01*
X103829296Y-94477385D01*
X103738859Y-94271207D01*
X103615723Y-94082734D01*
X103615715Y-94082723D01*
X103463243Y-93917097D01*
X103463238Y-93917092D01*
X103285577Y-93778812D01*
X103285578Y-93778812D01*
X103285576Y-93778811D01*
X103249070Y-93759055D01*
X103199479Y-93709836D01*
X103184371Y-93641619D01*
X103208541Y-93576064D01*
X103249070Y-93540945D01*
X103249084Y-93540936D01*
X103285576Y-93521189D01*
X103463240Y-93382906D01*
X103615722Y-93217268D01*
X103680679Y-93117844D01*
X108430000Y-93117844D01*
X108436401Y-93177372D01*
X108436403Y-93177379D01*
X108486645Y-93312086D01*
X108486649Y-93312093D01*
X108572809Y-93427187D01*
X108572812Y-93427190D01*
X108687906Y-93513350D01*
X108687913Y-93513354D01*
X108822620Y-93563596D01*
X108822627Y-93563598D01*
X108882155Y-93569999D01*
X108882172Y-93570000D01*
X109977828Y-93570000D01*
X109977844Y-93569999D01*
X110037372Y-93563598D01*
X110037379Y-93563596D01*
X110172086Y-93513354D01*
X110172093Y-93513350D01*
X110287187Y-93427190D01*
X110287190Y-93427187D01*
X110373350Y-93312093D01*
X110373354Y-93312086D01*
X110423596Y-93177379D01*
X110423598Y-93177372D01*
X110429999Y-93117844D01*
X110430000Y-93117827D01*
X110430000Y-92923553D01*
X109430000Y-91923553D01*
X108430000Y-92923552D01*
X108430000Y-93117844D01*
X103680679Y-93117844D01*
X103738860Y-93028791D01*
X103829296Y-92822616D01*
X103884564Y-92604368D01*
X103903156Y-92380000D01*
X103899465Y-92335461D01*
X103884565Y-92155640D01*
X103884563Y-92155628D01*
X103829296Y-91937385D01*
X103738859Y-91731207D01*
X103615723Y-91542734D01*
X103615715Y-91542723D01*
X103463243Y-91377097D01*
X103463238Y-91377092D01*
X103285577Y-91238812D01*
X103285578Y-91238812D01*
X103285576Y-91238811D01*
X103249070Y-91219055D01*
X103199479Y-91169836D01*
X103184371Y-91101619D01*
X103208541Y-91036064D01*
X103249070Y-91000945D01*
X103249084Y-91000936D01*
X103285576Y-90981189D01*
X103359627Y-90923552D01*
X108430000Y-90923552D01*
X108430000Y-92216447D01*
X109076447Y-91570000D01*
X109783553Y-91570000D01*
X110429999Y-92216447D01*
X110430000Y-92216446D01*
X110430000Y-90923553D01*
X110429999Y-90923552D01*
X109783553Y-91569999D01*
X109783553Y-91570000D01*
X109076447Y-91570000D01*
X109076447Y-91569999D01*
X108430000Y-90923552D01*
X103359627Y-90923552D01*
X103463240Y-90842906D01*
X103615722Y-90677268D01*
X103738860Y-90488791D01*
X103829296Y-90282616D01*
X103846052Y-90216447D01*
X108430000Y-90216447D01*
X109430000Y-91216447D01*
X110429999Y-90216447D01*
X110430000Y-90216446D01*
X110430000Y-90022172D01*
X110429999Y-90022155D01*
X110423598Y-89962627D01*
X110423596Y-89962620D01*
X110373354Y-89827913D01*
X110373350Y-89827906D01*
X110287190Y-89712812D01*
X110287187Y-89712809D01*
X110172093Y-89626649D01*
X110172086Y-89626645D01*
X110037379Y-89576403D01*
X110037372Y-89576401D01*
X109977844Y-89570000D01*
X108882155Y-89570000D01*
X108822627Y-89576401D01*
X108822620Y-89576403D01*
X108687913Y-89626645D01*
X108687906Y-89626649D01*
X108572812Y-89712809D01*
X108572809Y-89712812D01*
X108486649Y-89827906D01*
X108486645Y-89827913D01*
X108436403Y-89962620D01*
X108436401Y-89962627D01*
X108430000Y-90022155D01*
X108430000Y-90216447D01*
X103846052Y-90216447D01*
X103884564Y-90064368D01*
X103892995Y-89962627D01*
X103903156Y-89840005D01*
X103903156Y-89839994D01*
X103884565Y-89615640D01*
X103884563Y-89615628D01*
X103829296Y-89397385D01*
X103738859Y-89191207D01*
X103615723Y-89002734D01*
X103615715Y-89002723D01*
X103463243Y-88837097D01*
X103463238Y-88837092D01*
X103285577Y-88698812D01*
X103285578Y-88698812D01*
X103285576Y-88698811D01*
X103249070Y-88679055D01*
X103199479Y-88629836D01*
X103184371Y-88561619D01*
X103208541Y-88496064D01*
X103249070Y-88460945D01*
X103253074Y-88458778D01*
X103285576Y-88441189D01*
X103463240Y-88302906D01*
X103615722Y-88137268D01*
X103738860Y-87948791D01*
X103829296Y-87742616D01*
X103884564Y-87524368D01*
X103884565Y-87524359D01*
X103903156Y-87300005D01*
X103903156Y-87299994D01*
X103888062Y-87117844D01*
X108430000Y-87117844D01*
X108436401Y-87177372D01*
X108436403Y-87177379D01*
X108486645Y-87312086D01*
X108486649Y-87312093D01*
X108572809Y-87427187D01*
X108572812Y-87427190D01*
X108687906Y-87513350D01*
X108687913Y-87513354D01*
X108822620Y-87563596D01*
X108822627Y-87563598D01*
X108882155Y-87569999D01*
X108882172Y-87570000D01*
X109977828Y-87570000D01*
X109977844Y-87569999D01*
X110037372Y-87563598D01*
X110037379Y-87563596D01*
X110172086Y-87513354D01*
X110172093Y-87513350D01*
X110287187Y-87427190D01*
X110287190Y-87427187D01*
X110373350Y-87312093D01*
X110373354Y-87312086D01*
X110423596Y-87177379D01*
X110423598Y-87177372D01*
X110429999Y-87117844D01*
X110430000Y-87117827D01*
X110430000Y-86923553D01*
X109430000Y-85923553D01*
X108430000Y-86923552D01*
X108430000Y-87117844D01*
X103888062Y-87117844D01*
X103884565Y-87075640D01*
X103884563Y-87075628D01*
X103829296Y-86857385D01*
X103820142Y-86836516D01*
X103738860Y-86651209D01*
X103615722Y-86462732D01*
X103615719Y-86462729D01*
X103615715Y-86462723D01*
X103463243Y-86297097D01*
X103463238Y-86297092D01*
X103344797Y-86204905D01*
X103285576Y-86158811D01*
X103249070Y-86139055D01*
X103199479Y-86089836D01*
X103184371Y-86021619D01*
X103208541Y-85956064D01*
X103249070Y-85920945D01*
X103249084Y-85920936D01*
X103285576Y-85901189D01*
X103463240Y-85762906D01*
X103615722Y-85597268D01*
X103738860Y-85408791D01*
X103829296Y-85202616D01*
X103884564Y-84984368D01*
X103884565Y-84984359D01*
X103889604Y-84923552D01*
X108430000Y-84923552D01*
X108430000Y-86216447D01*
X109076447Y-85570000D01*
X109783553Y-85570000D01*
X110429999Y-86216447D01*
X110430000Y-86216446D01*
X110430000Y-84923553D01*
X110429999Y-84923552D01*
X109783553Y-85569999D01*
X109783553Y-85570000D01*
X109076447Y-85570000D01*
X109076447Y-85569999D01*
X108430000Y-84923552D01*
X103889604Y-84923552D01*
X103903156Y-84760005D01*
X103903156Y-84759994D01*
X103884565Y-84535640D01*
X103884563Y-84535628D01*
X103829296Y-84317385D01*
X103785021Y-84216447D01*
X108430000Y-84216447D01*
X109430000Y-85216447D01*
X110429999Y-84216447D01*
X110430000Y-84216446D01*
X110430000Y-84022172D01*
X110429999Y-84022155D01*
X110423598Y-83962627D01*
X110423596Y-83962620D01*
X110373354Y-83827913D01*
X110373350Y-83827906D01*
X110287190Y-83712812D01*
X110287187Y-83712809D01*
X110172093Y-83626649D01*
X110172086Y-83626645D01*
X110037379Y-83576403D01*
X110037372Y-83576401D01*
X109977844Y-83570000D01*
X108882155Y-83570000D01*
X108822627Y-83576401D01*
X108822620Y-83576403D01*
X108687913Y-83626645D01*
X108687906Y-83626649D01*
X108572812Y-83712809D01*
X108572809Y-83712812D01*
X108486649Y-83827906D01*
X108486645Y-83827913D01*
X108436403Y-83962620D01*
X108436401Y-83962627D01*
X108430000Y-84022155D01*
X108430000Y-84216447D01*
X103785021Y-84216447D01*
X103738859Y-84111207D01*
X103677291Y-84016970D01*
X103615722Y-83922732D01*
X103615719Y-83922729D01*
X103615715Y-83922723D01*
X103470510Y-83764991D01*
X103439587Y-83702337D01*
X103447447Y-83632911D01*
X103491594Y-83578755D01*
X103518405Y-83564827D01*
X103598584Y-83534920D01*
X103636204Y-83520889D01*
X103753261Y-83433261D01*
X103840889Y-83316204D01*
X103891989Y-83179201D01*
X103895591Y-83145692D01*
X103898499Y-83118654D01*
X103898500Y-83118637D01*
X103898500Y-81321362D01*
X103898499Y-81321345D01*
X103892798Y-81268325D01*
X103891989Y-81260799D01*
X103884265Y-81240091D01*
X103861817Y-81179906D01*
X103840889Y-81123796D01*
X103753261Y-81006739D01*
X103636204Y-80919111D01*
X103634563Y-80918499D01*
X103499203Y-80868011D01*
X103438654Y-80861500D01*
X103438638Y-80861500D01*
X101641362Y-80861500D01*
X101641345Y-80861500D01*
X101580797Y-80868011D01*
X101580795Y-80868011D01*
X101443795Y-80919111D01*
X101326739Y-81006739D01*
X101239111Y-81123795D01*
X101188011Y-81260795D01*
X101188011Y-81260797D01*
X101181500Y-81321345D01*
X101181500Y-83118654D01*
X101188011Y-83179202D01*
X101188011Y-83179204D01*
X101239111Y-83316204D01*
X101326739Y-83433261D01*
X101443796Y-83520889D01*
X101495737Y-83540262D01*
X101561595Y-83564827D01*
X101617528Y-83606699D01*
X101641944Y-83672163D01*
X101627092Y-83740436D01*
X101609490Y-83764991D01*
X101464279Y-83922730D01*
X101464276Y-83922734D01*
X101341140Y-84111207D01*
X101250703Y-84317385D01*
X101195436Y-84535628D01*
X101195434Y-84535640D01*
X101176844Y-84759994D01*
X101176844Y-84760005D01*
X101195434Y-84984359D01*
X101195436Y-84984371D01*
X101250703Y-85202614D01*
X101341140Y-85408792D01*
X101464276Y-85597265D01*
X101464284Y-85597276D01*
X101616756Y-85762902D01*
X101616760Y-85762906D01*
X101794424Y-85901189D01*
X101794429Y-85901191D01*
X101794431Y-85901193D01*
X101830930Y-85920946D01*
X101880520Y-85970165D01*
X101895628Y-86038382D01*
X101871457Y-86103937D01*
X101830930Y-86139054D01*
X101794431Y-86158806D01*
X101794422Y-86158812D01*
X101616761Y-86297092D01*
X101616756Y-86297097D01*
X101464284Y-86462723D01*
X101464276Y-86462734D01*
X101341140Y-86651207D01*
X101250703Y-86857385D01*
X101195436Y-87075628D01*
X101195434Y-87075640D01*
X101176844Y-87299994D01*
X101176844Y-87300005D01*
X101195434Y-87524359D01*
X101195436Y-87524371D01*
X101250703Y-87742614D01*
X101341140Y-87948792D01*
X101464276Y-88137265D01*
X101464284Y-88137276D01*
X101616756Y-88302902D01*
X101616760Y-88302906D01*
X101794424Y-88441189D01*
X101794429Y-88441191D01*
X101794431Y-88441193D01*
X101830930Y-88460946D01*
X101880520Y-88510165D01*
X101895628Y-88578382D01*
X101871457Y-88643937D01*
X101830930Y-88679054D01*
X101794431Y-88698806D01*
X101794422Y-88698812D01*
X101616761Y-88837092D01*
X101616756Y-88837097D01*
X101464284Y-89002723D01*
X101464276Y-89002734D01*
X101341140Y-89191207D01*
X101250703Y-89397385D01*
X101195436Y-89615628D01*
X101195434Y-89615640D01*
X101176844Y-89839994D01*
X101176844Y-89840005D01*
X101195434Y-90064359D01*
X101195436Y-90064371D01*
X101250703Y-90282614D01*
X101341140Y-90488792D01*
X101464276Y-90677265D01*
X101464284Y-90677276D01*
X101616756Y-90842902D01*
X101616761Y-90842907D01*
X101640649Y-90861500D01*
X101794424Y-90981189D01*
X101794429Y-90981191D01*
X101794431Y-90981193D01*
X101830930Y-91000946D01*
X101880520Y-91050165D01*
X101895628Y-91118382D01*
X101871457Y-91183937D01*
X101830930Y-91219054D01*
X101794431Y-91238806D01*
X101794422Y-91238812D01*
X101616761Y-91377092D01*
X101616756Y-91377097D01*
X101464284Y-91542723D01*
X101464276Y-91542734D01*
X101341140Y-91731207D01*
X101250703Y-91937385D01*
X101195436Y-92155628D01*
X101195434Y-92155640D01*
X101176844Y-92379994D01*
X101176844Y-92380005D01*
X101195434Y-92604359D01*
X101195436Y-92604371D01*
X101250703Y-92822614D01*
X101341140Y-93028792D01*
X101464276Y-93217265D01*
X101464284Y-93217276D01*
X101616756Y-93382902D01*
X101616760Y-93382906D01*
X101794424Y-93521189D01*
X101794429Y-93521191D01*
X101794431Y-93521193D01*
X101830930Y-93540946D01*
X101880520Y-93590165D01*
X101895628Y-93658382D01*
X101871457Y-93723937D01*
X101830930Y-93759054D01*
X101794431Y-93778806D01*
X101794422Y-93778812D01*
X101616761Y-93917092D01*
X101616756Y-93917097D01*
X101464284Y-94082723D01*
X101464276Y-94082734D01*
X101341140Y-94271207D01*
X101250703Y-94477385D01*
X101195436Y-94695628D01*
X101195434Y-94695640D01*
X101176844Y-94919994D01*
X101176844Y-94920005D01*
X100075500Y-94920005D01*
X100075500Y-77140005D01*
X101176844Y-77140005D01*
X101195434Y-77364359D01*
X101195436Y-77364371D01*
X101250703Y-77582614D01*
X101341140Y-77788792D01*
X101464276Y-77977265D01*
X101464284Y-77977276D01*
X101616756Y-78142902D01*
X101616760Y-78142906D01*
X101794424Y-78281189D01*
X101794425Y-78281189D01*
X101794427Y-78281191D01*
X101921135Y-78349761D01*
X101992426Y-78388342D01*
X102205365Y-78461444D01*
X102427431Y-78498500D01*
X102652569Y-78498500D01*
X102874635Y-78461444D01*
X103087574Y-78388342D01*
X103285576Y-78281189D01*
X103463240Y-78142906D01*
X103615722Y-77977268D01*
X103738860Y-77788791D01*
X103829296Y-77582616D01*
X103884564Y-77364368D01*
X103884565Y-77364359D01*
X103903156Y-77140005D01*
X103903156Y-77139994D01*
X103884565Y-76915640D01*
X103884563Y-76915628D01*
X103858730Y-76813616D01*
X103829296Y-76697384D01*
X103738860Y-76491209D01*
X103683815Y-76406957D01*
X103644501Y-76346782D01*
X103615722Y-76302732D01*
X103615719Y-76302729D01*
X103615715Y-76302723D01*
X103463243Y-76137097D01*
X103463238Y-76137092D01*
X103287107Y-76000003D01*
X103285577Y-75998811D01*
X103242303Y-75975393D01*
X103192713Y-75926173D01*
X103177605Y-75857957D01*
X103201775Y-75792401D01*
X103230198Y-75764763D01*
X103411079Y-75638108D01*
X103578105Y-75471082D01*
X103713600Y-75277578D01*
X103813429Y-75063492D01*
X103813432Y-75063486D01*
X103870636Y-74850000D01*
X102973686Y-74850000D01*
X102999493Y-74809844D01*
X103040000Y-74671889D01*
X103040000Y-74528111D01*
X102999493Y-74390156D01*
X102973686Y-74350000D01*
X103870636Y-74350000D01*
X103870635Y-74349999D01*
X103813432Y-74136513D01*
X103813429Y-74136507D01*
X103713600Y-73922422D01*
X103713599Y-73922420D01*
X103578113Y-73728926D01*
X103578108Y-73728920D01*
X103411082Y-73561894D01*
X103224968Y-73431575D01*
X103181344Y-73376998D01*
X103174151Y-73307499D01*
X103205673Y-73245145D01*
X103224968Y-73228425D01*
X103411082Y-73098105D01*
X103578105Y-72931082D01*
X103713600Y-72737578D01*
X103813429Y-72523492D01*
X103813432Y-72523486D01*
X103870636Y-72310000D01*
X102973686Y-72310000D01*
X102999493Y-72269844D01*
X103040000Y-72131889D01*
X103040000Y-71988111D01*
X102999493Y-71850156D01*
X102973686Y-71810000D01*
X103870636Y-71810000D01*
X103870635Y-71809999D01*
X103813432Y-71596513D01*
X103813429Y-71596507D01*
X103713600Y-71382422D01*
X103713599Y-71382420D01*
X103578113Y-71188926D01*
X103578108Y-71188920D01*
X103411082Y-71021894D01*
X103230197Y-70895236D01*
X103186572Y-70840659D01*
X103179380Y-70771160D01*
X103210902Y-70708806D01*
X103242300Y-70684608D01*
X103285576Y-70661189D01*
X103463240Y-70522906D01*
X103559212Y-70418654D01*
X108801500Y-70418654D01*
X108808011Y-70479202D01*
X108808011Y-70479204D01*
X108859111Y-70616204D01*
X108946739Y-70733261D01*
X109063796Y-70820889D01*
X109118906Y-70841444D01*
X109195900Y-70870162D01*
X109200799Y-70871989D01*
X109228050Y-70874918D01*
X109261345Y-70878499D01*
X109261362Y-70878500D01*
X110323746Y-70878500D01*
X110390785Y-70898185D01*
X110411427Y-70914819D01*
X113822974Y-74326366D01*
X113856459Y-74387689D01*
X113851475Y-74457381D01*
X113809603Y-74513314D01*
X113744139Y-74537731D01*
X113691959Y-74530229D01*
X113659201Y-74518010D01*
X113598654Y-74511500D01*
X113598638Y-74511500D01*
X111801362Y-74511500D01*
X111801345Y-74511500D01*
X111740797Y-74518011D01*
X111740795Y-74518011D01*
X111603795Y-74569111D01*
X111486739Y-74656739D01*
X111399111Y-74773795D01*
X111348011Y-74910795D01*
X111348011Y-74910797D01*
X111341500Y-74971345D01*
X111341500Y-76768654D01*
X111348011Y-76829202D01*
X111348011Y-76829204D01*
X111380247Y-76915628D01*
X111399111Y-76966204D01*
X111486739Y-77083261D01*
X111603796Y-77170889D01*
X111655737Y-77190262D01*
X111721595Y-77214827D01*
X111777528Y-77256699D01*
X111801944Y-77322163D01*
X111787092Y-77390436D01*
X111769490Y-77414991D01*
X111624279Y-77572730D01*
X111624276Y-77572734D01*
X111501140Y-77761207D01*
X111410703Y-77967385D01*
X111355436Y-78185628D01*
X111355434Y-78185640D01*
X111336844Y-78409994D01*
X111336844Y-78410005D01*
X111355434Y-78634359D01*
X111355436Y-78634371D01*
X111410703Y-78852614D01*
X111501140Y-79058792D01*
X111624276Y-79247265D01*
X111624284Y-79247276D01*
X111696457Y-79325675D01*
X111776760Y-79412906D01*
X111954424Y-79551189D01*
X111954425Y-79551189D01*
X111954427Y-79551191D01*
X112081135Y-79619761D01*
X112152426Y-79658342D01*
X112365365Y-79731444D01*
X112587431Y-79768500D01*
X112812569Y-79768500D01*
X113034635Y-79731444D01*
X113247574Y-79658342D01*
X113445576Y-79551189D01*
X113623240Y-79412906D01*
X113775722Y-79247268D01*
X113898860Y-79058791D01*
X113989296Y-78852616D01*
X114044564Y-78634368D01*
X114044563Y-78634368D01*
X114045823Y-78629397D01*
X114047056Y-78629709D01*
X114074876Y-78572228D01*
X114134484Y-78535777D01*
X114204336Y-78537338D01*
X114254432Y-78567824D01*
X116149548Y-80462939D01*
X116149558Y-80462950D01*
X116153888Y-80467280D01*
X116153889Y-80467281D01*
X116282719Y-80596111D01*
X116315517Y-80616719D01*
X116326851Y-80624761D01*
X116357130Y-80648908D01*
X116392018Y-80665709D01*
X116404188Y-80672435D01*
X116436985Y-80693043D01*
X116473535Y-80705832D01*
X116486384Y-80711154D01*
X116521279Y-80727959D01*
X116521285Y-80727960D01*
X116521287Y-80727961D01*
X116559041Y-80736578D01*
X116572405Y-80740428D01*
X116585759Y-80745101D01*
X116608953Y-80753217D01*
X116647443Y-80757553D01*
X116661142Y-80759881D01*
X116698903Y-80768500D01*
X116744594Y-80768500D01*
X118557063Y-80768500D01*
X118624102Y-80788185D01*
X118633976Y-80795236D01*
X118634344Y-80795527D01*
X118634346Y-80795528D01*
X118634348Y-80795530D01*
X118785262Y-80888615D01*
X118953574Y-80944387D01*
X119057455Y-80955000D01*
X120058544Y-80954999D01*
X120162426Y-80944387D01*
X120330738Y-80888615D01*
X120481652Y-80795530D01*
X120481655Y-80795527D01*
X120482024Y-80795236D01*
X120482324Y-80795114D01*
X120487799Y-80791738D01*
X120488375Y-80792673D01*
X120546819Y-80769094D01*
X120558937Y-80768500D01*
X122123627Y-80768500D01*
X122188724Y-80786962D01*
X122297890Y-80854297D01*
X122297893Y-80854298D01*
X122297899Y-80854302D01*
X122460664Y-80908236D01*
X122561128Y-80918500D01*
X122561133Y-80918500D01*
X123158867Y-80918500D01*
X123158872Y-80918500D01*
X123259336Y-80908236D01*
X123422101Y-80854302D01*
X123568040Y-80764285D01*
X123627506Y-80704819D01*
X123688829Y-80671334D01*
X123715187Y-80668500D01*
X123901256Y-80668500D01*
X123968295Y-80688185D01*
X124014050Y-80740989D01*
X124024195Y-80776317D01*
X124027159Y-80798841D01*
X124027163Y-80798853D01*
X124088473Y-80946870D01*
X124089420Y-80948510D01*
X124089798Y-80950068D01*
X124091586Y-80954385D01*
X124090912Y-80954663D01*
X124105893Y-81016410D01*
X124083041Y-81082437D01*
X124069714Y-81098192D01*
X120342727Y-84825181D01*
X120281404Y-84858666D01*
X120255046Y-84861500D01*
X114562500Y-84861500D01*
X114495461Y-84841815D01*
X114449706Y-84789011D01*
X114438500Y-84737500D01*
X114438500Y-84021362D01*
X114438499Y-84021345D01*
X114435157Y-83990270D01*
X114431989Y-83960799D01*
X114417791Y-83922734D01*
X114409522Y-83900564D01*
X114380889Y-83823796D01*
X114293261Y-83706739D01*
X114176204Y-83619111D01*
X114175386Y-83618806D01*
X114039203Y-83568011D01*
X113978654Y-83561500D01*
X113978638Y-83561500D01*
X112881362Y-83561500D01*
X112881345Y-83561500D01*
X112820797Y-83568011D01*
X112820795Y-83568011D01*
X112683795Y-83619111D01*
X112566739Y-83706739D01*
X112479111Y-83823795D01*
X112428011Y-83960795D01*
X112428011Y-83960797D01*
X112421500Y-84021345D01*
X112421500Y-87118654D01*
X112428011Y-87179202D01*
X112428011Y-87179204D01*
X112473069Y-87300005D01*
X112479111Y-87316204D01*
X112566739Y-87433261D01*
X112683796Y-87520889D01*
X112798297Y-87563596D01*
X112815463Y-87569999D01*
X112820799Y-87571989D01*
X112848050Y-87574918D01*
X112881345Y-87578499D01*
X112881362Y-87578500D01*
X113978638Y-87578500D01*
X113978654Y-87578499D01*
X114005692Y-87575591D01*
X114039201Y-87571989D01*
X114044537Y-87569999D01*
X114061703Y-87563596D01*
X114176204Y-87520889D01*
X114293261Y-87433261D01*
X114380889Y-87316204D01*
X114431989Y-87179201D01*
X114435591Y-87145692D01*
X114438499Y-87118654D01*
X114438500Y-87118637D01*
X114438500Y-86402500D01*
X114458185Y-86335461D01*
X114510989Y-86289706D01*
X114562500Y-86278500D01*
X120574715Y-86278500D01*
X120582202Y-86278726D01*
X120642971Y-86282402D01*
X120702877Y-86271423D01*
X120710247Y-86270302D01*
X120770679Y-86262965D01*
X120780377Y-86259286D01*
X120801994Y-86253260D01*
X120812207Y-86251389D01*
X120867751Y-86226389D01*
X120874604Y-86223551D01*
X120931553Y-86201954D01*
X120940091Y-86196060D01*
X120959642Y-86185033D01*
X120969104Y-86180775D01*
X121017035Y-86143221D01*
X121023021Y-86138816D01*
X121073151Y-86104215D01*
X121113536Y-86058628D01*
X121118638Y-86053208D01*
X124499821Y-82672026D01*
X124561142Y-82638543D01*
X124630834Y-82643527D01*
X124686767Y-82685399D01*
X124711184Y-82750863D01*
X124711500Y-82759709D01*
X124711500Y-85889631D01*
X124691815Y-85956670D01*
X124639011Y-86002425D01*
X124569853Y-86012369D01*
X124547238Y-86006913D01*
X124464634Y-85978555D01*
X124242569Y-85941500D01*
X124017431Y-85941500D01*
X123795362Y-85978556D01*
X123582430Y-86051656D01*
X123582419Y-86051661D01*
X123384427Y-86158808D01*
X123384422Y-86158812D01*
X123206761Y-86297092D01*
X123206756Y-86297097D01*
X123054284Y-86462723D01*
X123054276Y-86462734D01*
X122931140Y-86651207D01*
X122840703Y-86857385D01*
X122785436Y-87075628D01*
X122785434Y-87075640D01*
X122766844Y-87299994D01*
X122766844Y-87300005D01*
X122785434Y-87524359D01*
X122785436Y-87524371D01*
X122840703Y-87742614D01*
X122931140Y-87948792D01*
X123054276Y-88137265D01*
X123054284Y-88137276D01*
X123206756Y-88302902D01*
X123206761Y-88302907D01*
X123244517Y-88332294D01*
X123285330Y-88389005D01*
X123289003Y-88458778D01*
X123254372Y-88519461D01*
X123213487Y-88544154D01*
X123213805Y-88544835D01*
X123207466Y-88547790D01*
X123207368Y-88547850D01*
X123207267Y-88547883D01*
X123207259Y-88547886D01*
X123056346Y-88640971D01*
X122930971Y-88766346D01*
X122837886Y-88917259D01*
X122837884Y-88917264D01*
X122782113Y-89085572D01*
X122771500Y-89189447D01*
X122771500Y-90490537D01*
X122771501Y-90490553D01*
X122782113Y-90594428D01*
X122816597Y-90698497D01*
X122818998Y-90768326D01*
X122783266Y-90828367D01*
X122720746Y-90859559D01*
X122698891Y-90861500D01*
X114562500Y-90861500D01*
X114495461Y-90841815D01*
X114449706Y-90789011D01*
X114438500Y-90737500D01*
X114438500Y-90021362D01*
X114438499Y-90021345D01*
X114435157Y-89990270D01*
X114431989Y-89960799D01*
X114380889Y-89823796D01*
X114293261Y-89706739D01*
X114176204Y-89619111D01*
X114166866Y-89615628D01*
X114039203Y-89568011D01*
X113978654Y-89561500D01*
X113978638Y-89561500D01*
X112881362Y-89561500D01*
X112881345Y-89561500D01*
X112820797Y-89568011D01*
X112820795Y-89568011D01*
X112683795Y-89619111D01*
X112566739Y-89706739D01*
X112479111Y-89823795D01*
X112428011Y-89960795D01*
X112428011Y-89960797D01*
X112421500Y-90021345D01*
X112421500Y-93118654D01*
X112428011Y-93179202D01*
X112428011Y-93179204D01*
X112442209Y-93217268D01*
X112479111Y-93316204D01*
X112566739Y-93433261D01*
X112683796Y-93520889D01*
X112798297Y-93563596D01*
X112815463Y-93569999D01*
X112820799Y-93571989D01*
X112848050Y-93574918D01*
X112881345Y-93578499D01*
X112881362Y-93578500D01*
X113978638Y-93578500D01*
X113978654Y-93578499D01*
X114005692Y-93575591D01*
X114039201Y-93571989D01*
X114044537Y-93569999D01*
X114061703Y-93563596D01*
X114176204Y-93520889D01*
X114293261Y-93433261D01*
X114380889Y-93316204D01*
X114431989Y-93179201D01*
X114435591Y-93145692D01*
X114438499Y-93118654D01*
X114438500Y-93118637D01*
X114438500Y-92402500D01*
X114458185Y-92335461D01*
X114510989Y-92289706D01*
X114562500Y-92278500D01*
X127454837Y-92278500D01*
X127462324Y-92278726D01*
X127523093Y-92282402D01*
X127582999Y-92271423D01*
X127590369Y-92270302D01*
X127650801Y-92262965D01*
X127660499Y-92259286D01*
X127682116Y-92253260D01*
X127692329Y-92251389D01*
X127747873Y-92226389D01*
X127754726Y-92223551D01*
X127811675Y-92201954D01*
X127820213Y-92196060D01*
X127839764Y-92185033D01*
X127849226Y-92180775D01*
X127897157Y-92143221D01*
X127903143Y-92138816D01*
X127953273Y-92104215D01*
X127993657Y-92058629D01*
X127998759Y-92053209D01*
X128843226Y-91208743D01*
X128904547Y-91175260D01*
X128951311Y-91174117D01*
X129097431Y-91198500D01*
X129097432Y-91198500D01*
X129322569Y-91198500D01*
X129544635Y-91161444D01*
X129757574Y-91088342D01*
X129955576Y-90981189D01*
X130133240Y-90842906D01*
X130285722Y-90677268D01*
X130408860Y-90488791D01*
X130499296Y-90282616D01*
X130554564Y-90064368D01*
X130562995Y-89962627D01*
X130573156Y-89840005D01*
X130573156Y-89839994D01*
X130554565Y-89615640D01*
X130554563Y-89615628D01*
X130499296Y-89397385D01*
X130408859Y-89191207D01*
X130285723Y-89002734D01*
X130285715Y-89002723D01*
X130133243Y-88837097D01*
X130133238Y-88837092D01*
X129955577Y-88698812D01*
X129955577Y-88698811D01*
X129912303Y-88675393D01*
X129862713Y-88626173D01*
X129847605Y-88557957D01*
X129871775Y-88492401D01*
X129900198Y-88464763D01*
X129971373Y-88414925D01*
X129342534Y-87786086D01*
X129352315Y-87784680D01*
X129483100Y-87724952D01*
X129591761Y-87630798D01*
X129669493Y-87509844D01*
X129693076Y-87429524D01*
X130324925Y-88061373D01*
X130324926Y-88061373D01*
X130383598Y-87977582D01*
X130383600Y-87977578D01*
X130483429Y-87763492D01*
X130483433Y-87763483D01*
X130544567Y-87535326D01*
X130544569Y-87535315D01*
X130565157Y-87300001D01*
X130565157Y-87299998D01*
X130544569Y-87064684D01*
X130544567Y-87064673D01*
X130483433Y-86836516D01*
X130483429Y-86836507D01*
X130383600Y-86622423D01*
X130383599Y-86622421D01*
X130324925Y-86538626D01*
X130324925Y-86538625D01*
X129693076Y-87170475D01*
X129669493Y-87090156D01*
X129591761Y-86969202D01*
X129483100Y-86875048D01*
X129352315Y-86815320D01*
X129342533Y-86813913D01*
X129971373Y-86185073D01*
X129971373Y-86185072D01*
X129887583Y-86126402D01*
X129887579Y-86126400D01*
X129673492Y-86026570D01*
X129673483Y-86026566D01*
X129445326Y-85965432D01*
X129445315Y-85965430D01*
X129210002Y-85944843D01*
X129209998Y-85944843D01*
X128974684Y-85965430D01*
X128974673Y-85965432D01*
X128784593Y-86016364D01*
X128714743Y-86014701D01*
X128656881Y-85975538D01*
X128629377Y-85911310D01*
X128628500Y-85896589D01*
X128628500Y-81625151D01*
X128628726Y-81617664D01*
X128632401Y-81556907D01*
X128621427Y-81497025D01*
X128620302Y-81489628D01*
X128612965Y-81429202D01*
X128612965Y-81429200D01*
X128609288Y-81419505D01*
X128603260Y-81397879D01*
X128601147Y-81386347D01*
X128608426Y-81316858D01*
X128652119Y-81262336D01*
X128718353Y-81240091D01*
X128723116Y-81239999D01*
X128759324Y-81239999D01*
X128876628Y-81224557D01*
X128876633Y-81224555D01*
X129022585Y-81164100D01*
X129147924Y-81067924D01*
X129244100Y-80942586D01*
X129304554Y-80796634D01*
X129304555Y-80796630D01*
X129319999Y-80679330D01*
X129320000Y-80679316D01*
X129320000Y-80202500D01*
X128802500Y-80202500D01*
X128735461Y-80182815D01*
X128689706Y-80130011D01*
X128678500Y-80078500D01*
X128678500Y-79926500D01*
X128698185Y-79859461D01*
X128750989Y-79813706D01*
X128802500Y-79802500D01*
X129319999Y-79802500D01*
X129319999Y-79325675D01*
X129304557Y-79208371D01*
X129304555Y-79208366D01*
X129244100Y-79062414D01*
X129147924Y-78937075D01*
X129022586Y-78840899D01*
X128876631Y-78780444D01*
X128820000Y-78772987D01*
X128820000Y-78977555D01*
X128800315Y-79044594D01*
X128747511Y-79090349D01*
X128678353Y-79100293D01*
X128614797Y-79071268D01*
X128597625Y-79053042D01*
X128528074Y-78962403D01*
X128503987Y-78931013D01*
X128503986Y-78931012D01*
X128468512Y-78903791D01*
X128427310Y-78847362D01*
X128420000Y-78805416D01*
X128420000Y-78772988D01*
X128363365Y-78780444D01*
X128353549Y-78784510D01*
X128284079Y-78791973D01*
X128258654Y-78784507D01*
X128228850Y-78772162D01*
X128228848Y-78772161D01*
X128109885Y-78756500D01*
X127830113Y-78756500D01*
X127711155Y-78772160D01*
X127711151Y-78772161D01*
X127692448Y-78779908D01*
X127622978Y-78787374D01*
X127597551Y-78779907D01*
X127578856Y-78772164D01*
X127578848Y-78772161D01*
X127459885Y-78756500D01*
X127180113Y-78756500D01*
X127061155Y-78772160D01*
X127061151Y-78772161D01*
X127042448Y-78779908D01*
X126972978Y-78787374D01*
X126947551Y-78779907D01*
X126928856Y-78772164D01*
X126928848Y-78772161D01*
X126809885Y-78756500D01*
X126530113Y-78756500D01*
X126411155Y-78772160D01*
X126411151Y-78772161D01*
X126392448Y-78779908D01*
X126322978Y-78787374D01*
X126297551Y-78779907D01*
X126278856Y-78772164D01*
X126278848Y-78772161D01*
X126159885Y-78756500D01*
X125880113Y-78756500D01*
X125761155Y-78772160D01*
X125761151Y-78772161D01*
X125742448Y-78779908D01*
X125672978Y-78787374D01*
X125647551Y-78779907D01*
X125628856Y-78772164D01*
X125628848Y-78772161D01*
X125509885Y-78756500D01*
X125230113Y-78756500D01*
X125111155Y-78772160D01*
X125111151Y-78772161D01*
X125092448Y-78779908D01*
X125022978Y-78787374D01*
X124997551Y-78779907D01*
X124978856Y-78772164D01*
X124978848Y-78772161D01*
X124859885Y-78756500D01*
X124580113Y-78756500D01*
X124461157Y-78772160D01*
X124461146Y-78772163D01*
X124313127Y-78833474D01*
X124313124Y-78833475D01*
X124313124Y-78833476D01*
X124288181Y-78852616D01*
X124186013Y-78931013D01*
X124088475Y-79058125D01*
X124040084Y-79174953D01*
X123996243Y-79229356D01*
X123929949Y-79251421D01*
X123925523Y-79251500D01*
X123803735Y-79251500D01*
X123736696Y-79231815D01*
X123690941Y-79179011D01*
X123680997Y-79109853D01*
X123698197Y-79062403D01*
X123771542Y-78943492D01*
X123771547Y-78943481D01*
X123824855Y-78782606D01*
X123834999Y-78683322D01*
X123835000Y-78683309D01*
X123835000Y-78660000D01*
X121885001Y-78660000D01*
X121885001Y-78683322D01*
X121895144Y-78782607D01*
X121948452Y-78943481D01*
X121948457Y-78943492D01*
X121960122Y-78962403D01*
X121978563Y-79029795D01*
X121957641Y-79096459D01*
X121903999Y-79141228D01*
X121854584Y-79151500D01*
X120612044Y-79151500D01*
X120545005Y-79131815D01*
X120524363Y-79115181D01*
X120518363Y-79109181D01*
X120484878Y-79047858D01*
X120489862Y-78978166D01*
X120518363Y-78933819D01*
X120548391Y-78903791D01*
X120607030Y-78845152D01*
X120700115Y-78694238D01*
X120755887Y-78525926D01*
X120766500Y-78422045D01*
X120766500Y-78160000D01*
X121885000Y-78160000D01*
X122610000Y-78160000D01*
X122610000Y-77460000D01*
X123110000Y-77460000D01*
X123110000Y-78160000D01*
X123834999Y-78160000D01*
X123834999Y-78136692D01*
X123834998Y-78136677D01*
X123824855Y-78037392D01*
X123771547Y-77876518D01*
X123771542Y-77876507D01*
X123682575Y-77732271D01*
X123682572Y-77732267D01*
X123562732Y-77612427D01*
X123562728Y-77612424D01*
X123418492Y-77523457D01*
X123418481Y-77523452D01*
X123257606Y-77470144D01*
X123158322Y-77460000D01*
X123110000Y-77460000D01*
X122610000Y-77460000D01*
X122609999Y-77459999D01*
X122561693Y-77460000D01*
X122561675Y-77460001D01*
X122462392Y-77470144D01*
X122301518Y-77523452D01*
X122301507Y-77523457D01*
X122157271Y-77612424D01*
X122157267Y-77612427D01*
X122037427Y-77732267D01*
X122037424Y-77732271D01*
X121948457Y-77876507D01*
X121948452Y-77876518D01*
X121895144Y-78037393D01*
X121885000Y-78136677D01*
X121885000Y-78160000D01*
X120766500Y-78160000D01*
X120766499Y-77795956D01*
X120755887Y-77692074D01*
X120700115Y-77523762D01*
X120607030Y-77372848D01*
X120481652Y-77247470D01*
X120481651Y-77247469D01*
X120427776Y-77214238D01*
X120381052Y-77162289D01*
X120369654Y-77122583D01*
X120351218Y-76958958D01*
X120351217Y-76958953D01*
X120348048Y-76949896D01*
X120291043Y-76786985D01*
X120194111Y-76632719D01*
X120065281Y-76503889D01*
X119911015Y-76406957D01*
X119856693Y-76387949D01*
X119739046Y-76346782D01*
X119739041Y-76346781D01*
X119558004Y-76326384D01*
X119557996Y-76326384D01*
X119376958Y-76346781D01*
X119376953Y-76346782D01*
X119204982Y-76406958D01*
X119050718Y-76503889D01*
X118921889Y-76632718D01*
X118824958Y-76786982D01*
X118764782Y-76958953D01*
X118764781Y-76958957D01*
X118746345Y-77122584D01*
X118719278Y-77186998D01*
X118688223Y-77214238D01*
X118634349Y-77247468D01*
X118508969Y-77372849D01*
X118415886Y-77523759D01*
X118415884Y-77523764D01*
X118360113Y-77692072D01*
X118349500Y-77795947D01*
X118349500Y-78422037D01*
X118349501Y-78422053D01*
X118360113Y-78525927D01*
X118396043Y-78634359D01*
X118415885Y-78694238D01*
X118507477Y-78842732D01*
X118508971Y-78845153D01*
X118597637Y-78933819D01*
X118631122Y-78995142D01*
X118626138Y-79064834D01*
X118597637Y-79109181D01*
X118591637Y-79115181D01*
X118530314Y-79148666D01*
X118503956Y-79151500D01*
X117176253Y-79151500D01*
X117109214Y-79131815D01*
X117088572Y-79115181D01*
X114094819Y-76121427D01*
X114094040Y-76120000D01*
X121885001Y-76120000D01*
X121885001Y-76143322D01*
X121895144Y-76242607D01*
X121948452Y-76403481D01*
X121948457Y-76403492D01*
X122037424Y-76547728D01*
X122037427Y-76547732D01*
X122157267Y-76667572D01*
X122157271Y-76667575D01*
X122301507Y-76756542D01*
X122301518Y-76756547D01*
X122462393Y-76809855D01*
X122561683Y-76819999D01*
X122609999Y-76819998D01*
X122610000Y-76819998D01*
X122610000Y-76120000D01*
X123110000Y-76120000D01*
X123110000Y-76819999D01*
X123158308Y-76819999D01*
X123158322Y-76819998D01*
X123257607Y-76809855D01*
X123418481Y-76756547D01*
X123418492Y-76756542D01*
X123562728Y-76667575D01*
X123562732Y-76667572D01*
X123682572Y-76547732D01*
X123682575Y-76547728D01*
X123771542Y-76403492D01*
X123771547Y-76403481D01*
X123824855Y-76242606D01*
X123834999Y-76143322D01*
X123835000Y-76143309D01*
X123835000Y-76120000D01*
X123110000Y-76120000D01*
X122610000Y-76120000D01*
X121885001Y-76120000D01*
X114094040Y-76120000D01*
X114061334Y-76060104D01*
X114058500Y-76033746D01*
X114058500Y-74971362D01*
X114058499Y-74971345D01*
X114054139Y-74930798D01*
X114051989Y-74910799D01*
X114039771Y-74878041D01*
X114034785Y-74808350D01*
X114068269Y-74747026D01*
X114129592Y-74713540D01*
X114199284Y-74718524D01*
X114243633Y-74747025D01*
X114452718Y-74956110D01*
X114452721Y-74956112D01*
X114485504Y-74976711D01*
X114496847Y-74984759D01*
X114527130Y-75008909D01*
X114547367Y-75018654D01*
X114562028Y-75025715D01*
X114574193Y-75032438D01*
X114606985Y-75053043D01*
X114636831Y-75063486D01*
X114643533Y-75065831D01*
X114656379Y-75071151D01*
X114691280Y-75087959D01*
X114729036Y-75096576D01*
X114742394Y-75100425D01*
X114778946Y-75113215D01*
X114778948Y-75113215D01*
X114778953Y-75113217D01*
X114817441Y-75117552D01*
X114831143Y-75119881D01*
X114868903Y-75128500D01*
X114914594Y-75128500D01*
X121854584Y-75128500D01*
X121921623Y-75148185D01*
X121967378Y-75200989D01*
X121977322Y-75270147D01*
X121960122Y-75317597D01*
X121948457Y-75336507D01*
X121948452Y-75336518D01*
X121895144Y-75497393D01*
X121885000Y-75596677D01*
X121885000Y-75620000D01*
X123834999Y-75620000D01*
X123834999Y-75596692D01*
X123834998Y-75596677D01*
X123824855Y-75497392D01*
X123771547Y-75336518D01*
X123771542Y-75336507D01*
X123698197Y-75217597D01*
X123679756Y-75150205D01*
X123700678Y-75083541D01*
X123754320Y-75038772D01*
X123803735Y-75028500D01*
X123925523Y-75028500D01*
X123992562Y-75048185D01*
X124038317Y-75100989D01*
X124040084Y-75105047D01*
X124086703Y-75217597D01*
X124088476Y-75221876D01*
X124186013Y-75348987D01*
X124313124Y-75446524D01*
X124461150Y-75507838D01*
X124580115Y-75523500D01*
X124859884Y-75523499D01*
X124859885Y-75523499D01*
X124873724Y-75521677D01*
X124978850Y-75507838D01*
X124997545Y-75500093D01*
X125067014Y-75492624D01*
X125092454Y-75500093D01*
X125111150Y-75507838D01*
X125230115Y-75523500D01*
X125509884Y-75523499D01*
X125509885Y-75523499D01*
X125523724Y-75521677D01*
X125628850Y-75507838D01*
X125647545Y-75500093D01*
X125717014Y-75492624D01*
X125742454Y-75500093D01*
X125761150Y-75507838D01*
X125880115Y-75523500D01*
X126159884Y-75523499D01*
X126159885Y-75523499D01*
X126173724Y-75521677D01*
X126278850Y-75507838D01*
X126297545Y-75500093D01*
X126367014Y-75492624D01*
X126392454Y-75500093D01*
X126411150Y-75507838D01*
X126530115Y-75523500D01*
X126809884Y-75523499D01*
X126809885Y-75523499D01*
X126823724Y-75521677D01*
X126928850Y-75507838D01*
X126947545Y-75500093D01*
X127017014Y-75492624D01*
X127042454Y-75500093D01*
X127061150Y-75507838D01*
X127180115Y-75523500D01*
X127459884Y-75523499D01*
X127459885Y-75523499D01*
X127473724Y-75521677D01*
X127578850Y-75507838D01*
X127597545Y-75500093D01*
X127667014Y-75492624D01*
X127692454Y-75500093D01*
X127711150Y-75507838D01*
X127774522Y-75516181D01*
X127838418Y-75544448D01*
X127876889Y-75602772D01*
X127877720Y-75672637D01*
X127875378Y-75680074D01*
X127826783Y-75818950D01*
X127826781Y-75818958D01*
X127806384Y-75999996D01*
X127806384Y-76000003D01*
X127826781Y-76181041D01*
X127826782Y-76181046D01*
X127867949Y-76298693D01*
X127886957Y-76353015D01*
X127983889Y-76507281D01*
X128112719Y-76636111D01*
X128266985Y-76733043D01*
X128421143Y-76786985D01*
X128438953Y-76793217D01*
X128438958Y-76793218D01*
X128619996Y-76813616D01*
X128620000Y-76813616D01*
X128620004Y-76813616D01*
X128801041Y-76793218D01*
X128801044Y-76793217D01*
X128801047Y-76793217D01*
X128973015Y-76733043D01*
X129127281Y-76636111D01*
X129256111Y-76507281D01*
X129353043Y-76353015D01*
X129413217Y-76181047D01*
X129413245Y-76180797D01*
X129433616Y-76000003D01*
X129433616Y-75999996D01*
X129413218Y-75818958D01*
X129413217Y-75818953D01*
X129353042Y-75646983D01*
X129347505Y-75638171D01*
X129328500Y-75572200D01*
X129328500Y-74228528D01*
X129328499Y-74228506D01*
X129328499Y-73600113D01*
X129312839Y-73481157D01*
X129312838Y-73481156D01*
X129312838Y-73481150D01*
X129251524Y-73333124D01*
X129153987Y-73206013D01*
X129026876Y-73108476D01*
X129026872Y-73108474D01*
X128878853Y-73047163D01*
X128878848Y-73047161D01*
X128759885Y-73031500D01*
X128480113Y-73031500D01*
X128361155Y-73047160D01*
X128361151Y-73047161D01*
X128342448Y-73054908D01*
X128272978Y-73062374D01*
X128247551Y-73054907D01*
X128228856Y-73047164D01*
X128228853Y-73047163D01*
X128228850Y-73047162D01*
X128193962Y-73042568D01*
X128136314Y-73034979D01*
X128072418Y-73006712D01*
X128033947Y-72948387D01*
X128028500Y-72912040D01*
X128028500Y-68677798D01*
X128047508Y-68611823D01*
X128053043Y-68603015D01*
X128110569Y-68438616D01*
X128113215Y-68431054D01*
X128113218Y-68431041D01*
X128133616Y-68250003D01*
X128133616Y-68249996D01*
X128113218Y-68068958D01*
X128113217Y-68068953D01*
X128087691Y-67996005D01*
X128053043Y-67896985D01*
X127956111Y-67742719D01*
X127827281Y-67613889D01*
X127673015Y-67516957D01*
X127618693Y-67497949D01*
X127501046Y-67456782D01*
X127501041Y-67456781D01*
X127320004Y-67436384D01*
X127319996Y-67436384D01*
X127138958Y-67456781D01*
X127138953Y-67456782D01*
X126966982Y-67516958D01*
X126812718Y-67613889D01*
X126683889Y-67742718D01*
X126586958Y-67896982D01*
X126526782Y-68068953D01*
X126526781Y-68068958D01*
X126506384Y-68249996D01*
X126506384Y-68250003D01*
X126526781Y-68431041D01*
X126526784Y-68431054D01*
X126586956Y-68603012D01*
X126586957Y-68603015D01*
X126592492Y-68611823D01*
X126611500Y-68677798D01*
X126611500Y-69866528D01*
X126591815Y-69933567D01*
X126539011Y-69979322D01*
X126501384Y-69989748D01*
X126438958Y-69996781D01*
X126266983Y-70056957D01*
X126260709Y-70059979D01*
X126259962Y-70058428D01*
X126201228Y-70075021D01*
X126134394Y-70054650D01*
X126089183Y-70001380D01*
X126078500Y-69951028D01*
X126078500Y-69947798D01*
X126097508Y-69881823D01*
X126103043Y-69873015D01*
X126163217Y-69701047D01*
X126163479Y-69698723D01*
X126183616Y-69520003D01*
X126183616Y-69519996D01*
X126163218Y-69338958D01*
X126163217Y-69338953D01*
X126145268Y-69287658D01*
X126103043Y-69166985D01*
X126006111Y-69012719D01*
X125877281Y-68883889D01*
X125723017Y-68786958D01*
X125723016Y-68786957D01*
X125723015Y-68786957D01*
X125638206Y-68757281D01*
X125551046Y-68726782D01*
X125551041Y-68726781D01*
X125370004Y-68706384D01*
X125369996Y-68706384D01*
X125188958Y-68726781D01*
X125188953Y-68726782D01*
X125016982Y-68786958D01*
X124862718Y-68883889D01*
X124733889Y-69012718D01*
X124636958Y-69166982D01*
X124576782Y-69338953D01*
X124576781Y-69338958D01*
X124556384Y-69519996D01*
X124556384Y-69520003D01*
X124576781Y-69701041D01*
X124576784Y-69701054D01*
X124636956Y-69873012D01*
X124636957Y-69873015D01*
X124642492Y-69881823D01*
X124661500Y-69947798D01*
X124661500Y-70504786D01*
X124661274Y-70512273D01*
X124657598Y-70573040D01*
X124657598Y-70573042D01*
X124668569Y-70632919D01*
X124669696Y-70640319D01*
X124672231Y-70661191D01*
X124677035Y-70700751D01*
X124680716Y-70710460D01*
X124686738Y-70732060D01*
X124688611Y-70742281D01*
X124713597Y-70797798D01*
X124716462Y-70804715D01*
X124738044Y-70861622D01*
X124738046Y-70861625D01*
X124743941Y-70870166D01*
X124754966Y-70889713D01*
X124759225Y-70899177D01*
X124796761Y-70947087D01*
X124801200Y-70953120D01*
X124835784Y-71003223D01*
X124856857Y-71021891D01*
X124873730Y-71036840D01*
X124910857Y-71096028D01*
X124910091Y-71165893D01*
X124871673Y-71224253D01*
X124807803Y-71252579D01*
X124777622Y-71252876D01*
X124746070Y-71249321D01*
X124720000Y-71246384D01*
X124719998Y-71246384D01*
X124719997Y-71246384D01*
X124719996Y-71246384D01*
X124538958Y-71266781D01*
X124538953Y-71266782D01*
X124366982Y-71326958D01*
X124212718Y-71423889D01*
X124083889Y-71552718D01*
X123986958Y-71706982D01*
X123926782Y-71878953D01*
X123926781Y-71878958D01*
X123906384Y-72059996D01*
X123906384Y-72060003D01*
X123926781Y-72241041D01*
X123926782Y-72241046D01*
X123986958Y-72413017D01*
X124032158Y-72484952D01*
X124083889Y-72567281D01*
X124212719Y-72696111D01*
X124366985Y-72793043D01*
X124443973Y-72819982D01*
X124500749Y-72860704D01*
X124526497Y-72925656D01*
X124513041Y-72994218D01*
X124464654Y-73044621D01*
X124450472Y-73051585D01*
X124313125Y-73108475D01*
X124186013Y-73206013D01*
X124088474Y-73333127D01*
X124027163Y-73481146D01*
X124027162Y-73481150D01*
X124024195Y-73503687D01*
X123995928Y-73567583D01*
X123937603Y-73606053D01*
X123901256Y-73611500D01*
X123715187Y-73611500D01*
X123648148Y-73591815D01*
X123627506Y-73575181D01*
X123568040Y-73515715D01*
X123568036Y-73515712D01*
X123422109Y-73425702D01*
X123422103Y-73425699D01*
X123422101Y-73425698D01*
X123259336Y-73371764D01*
X123158879Y-73361500D01*
X123158872Y-73361500D01*
X122561128Y-73361500D01*
X122561120Y-73361500D01*
X122460663Y-73371764D01*
X122297901Y-73425697D01*
X122297890Y-73425702D01*
X122188724Y-73493038D01*
X122123627Y-73511500D01*
X115346254Y-73511500D01*
X115279215Y-73491815D01*
X115258573Y-73475181D01*
X112853779Y-71070387D01*
X112820294Y-71009064D01*
X112825278Y-70939372D01*
X112867150Y-70883439D01*
X112921048Y-70860398D01*
X113034635Y-70841444D01*
X113247574Y-70768342D01*
X113445576Y-70661189D01*
X113623240Y-70522906D01*
X113775722Y-70357268D01*
X113866193Y-70218790D01*
X113919338Y-70173437D01*
X113988569Y-70164013D01*
X114051905Y-70193515D01*
X114073804Y-70218787D01*
X114164278Y-70357268D01*
X114164283Y-70357273D01*
X114164284Y-70357276D01*
X114316756Y-70522902D01*
X114316760Y-70522906D01*
X114494424Y-70661189D01*
X114494425Y-70661189D01*
X114494427Y-70661191D01*
X114604918Y-70720985D01*
X114692426Y-70768342D01*
X114905365Y-70841444D01*
X115127431Y-70878500D01*
X115352569Y-70878500D01*
X115574635Y-70841444D01*
X115787574Y-70768342D01*
X115985576Y-70661189D01*
X116163240Y-70522906D01*
X116315722Y-70357268D01*
X116438860Y-70168791D01*
X116529296Y-69962616D01*
X116584564Y-69744368D01*
X116588154Y-69701047D01*
X116603156Y-69520005D01*
X116603156Y-69519994D01*
X116584565Y-69295640D01*
X116584563Y-69295628D01*
X116551985Y-69166982D01*
X116529296Y-69077384D01*
X116438860Y-68871209D01*
X116422706Y-68846484D01*
X116344501Y-68726782D01*
X116315722Y-68682732D01*
X116315719Y-68682729D01*
X116315715Y-68682723D01*
X116163243Y-68517097D01*
X116163238Y-68517092D01*
X115985577Y-68378812D01*
X115985572Y-68378808D01*
X115787580Y-68271661D01*
X115787577Y-68271659D01*
X115787574Y-68271658D01*
X115787571Y-68271657D01*
X115787569Y-68271656D01*
X115574637Y-68198556D01*
X115352569Y-68161500D01*
X115127431Y-68161500D01*
X114905362Y-68198556D01*
X114692430Y-68271656D01*
X114692419Y-68271661D01*
X114494427Y-68378808D01*
X114494422Y-68378812D01*
X114316761Y-68517092D01*
X114316756Y-68517097D01*
X114164284Y-68682723D01*
X114164276Y-68682734D01*
X114073808Y-68821206D01*
X114020662Y-68866562D01*
X113951431Y-68875986D01*
X113888095Y-68846484D01*
X113866192Y-68821206D01*
X113795594Y-68713149D01*
X113775722Y-68682732D01*
X113775719Y-68682729D01*
X113775715Y-68682723D01*
X113623243Y-68517097D01*
X113623238Y-68517092D01*
X113445577Y-68378812D01*
X113445572Y-68378808D01*
X113247580Y-68271661D01*
X113247577Y-68271659D01*
X113247574Y-68271658D01*
X113247571Y-68271657D01*
X113247569Y-68271656D01*
X113034637Y-68198556D01*
X112812569Y-68161500D01*
X112587431Y-68161500D01*
X112365362Y-68198556D01*
X112152430Y-68271656D01*
X112152419Y-68271661D01*
X111954427Y-68378808D01*
X111954422Y-68378812D01*
X111776761Y-68517092D01*
X111713548Y-68585760D01*
X111653661Y-68621750D01*
X111583823Y-68619649D01*
X111526207Y-68580124D01*
X111506138Y-68545110D01*
X111460889Y-68423796D01*
X111460888Y-68423795D01*
X111373261Y-68306739D01*
X111256204Y-68219111D01*
X111119203Y-68168011D01*
X111058654Y-68161500D01*
X111058638Y-68161500D01*
X109261362Y-68161500D01*
X109261345Y-68161500D01*
X109200797Y-68168011D01*
X109200795Y-68168011D01*
X109063795Y-68219111D01*
X108946739Y-68306739D01*
X108859111Y-68423795D01*
X108808011Y-68560795D01*
X108808011Y-68560797D01*
X108801500Y-68621345D01*
X108801500Y-70418654D01*
X103559212Y-70418654D01*
X103615722Y-70357268D01*
X103738860Y-70168791D01*
X103829296Y-69962616D01*
X103884564Y-69744368D01*
X103888154Y-69701047D01*
X103903156Y-69520005D01*
X103903156Y-69519994D01*
X103884565Y-69295640D01*
X103884563Y-69295628D01*
X103851985Y-69166982D01*
X103829296Y-69077384D01*
X103738860Y-68871209D01*
X103722706Y-68846484D01*
X103644501Y-68726782D01*
X103615722Y-68682732D01*
X103615719Y-68682729D01*
X103615715Y-68682723D01*
X103463243Y-68517097D01*
X103463238Y-68517092D01*
X103285577Y-68378812D01*
X103285578Y-68378812D01*
X103285576Y-68378811D01*
X103249070Y-68359055D01*
X103199479Y-68309836D01*
X103184371Y-68241619D01*
X103208541Y-68176064D01*
X103249070Y-68140945D01*
X103249084Y-68140936D01*
X103285576Y-68121189D01*
X103463240Y-67982906D01*
X103615722Y-67817268D01*
X103738860Y-67628791D01*
X103829296Y-67422616D01*
X103884564Y-67204368D01*
X103885374Y-67194595D01*
X103903156Y-66980005D01*
X103903156Y-66979994D01*
X103884565Y-66755640D01*
X103884563Y-66755628D01*
X103849444Y-66616946D01*
X103829296Y-66537384D01*
X103738860Y-66331209D01*
X103615722Y-66142732D01*
X103615719Y-66142729D01*
X103615715Y-66142723D01*
X103463243Y-65977097D01*
X103463238Y-65977092D01*
X103285577Y-65838812D01*
X103285578Y-65838812D01*
X103285576Y-65838811D01*
X103249070Y-65819055D01*
X103199479Y-65769836D01*
X103184371Y-65701619D01*
X103197674Y-65665537D01*
X140701500Y-65665537D01*
X140701501Y-65665553D01*
X140712113Y-65769427D01*
X140757706Y-65907018D01*
X140767885Y-65937738D01*
X140860970Y-66088652D01*
X140986348Y-66214030D01*
X141042598Y-66248725D01*
X141089321Y-66300672D01*
X141101500Y-66354263D01*
X141101500Y-68341102D01*
X141110117Y-68378853D01*
X141112446Y-68392561D01*
X141116781Y-68431041D01*
X141116782Y-68431045D01*
X141116783Y-68431047D01*
X141122187Y-68446493D01*
X141129573Y-68467602D01*
X141133420Y-68480956D01*
X141142038Y-68518711D01*
X141142040Y-68518716D01*
X141142041Y-68518720D01*
X141154750Y-68545110D01*
X141158844Y-68553612D01*
X141164164Y-68566457D01*
X141176955Y-68603011D01*
X141176957Y-68603015D01*
X141197560Y-68635805D01*
X141204286Y-68647975D01*
X141221090Y-68682869D01*
X141221091Y-68682871D01*
X141245238Y-68713149D01*
X141253283Y-68724487D01*
X141254726Y-68726783D01*
X141273889Y-68757281D01*
X149405181Y-76888573D01*
X149438666Y-76949896D01*
X149441500Y-76976254D01*
X149441500Y-78038654D01*
X149448011Y-78099202D01*
X149448011Y-78099204D01*
X149480247Y-78185628D01*
X149499111Y-78236204D01*
X149586739Y-78353261D01*
X149703796Y-78440889D01*
X149755737Y-78460262D01*
X149821595Y-78484827D01*
X149877528Y-78526699D01*
X149901944Y-78592163D01*
X149887092Y-78660436D01*
X149869490Y-78684991D01*
X149724279Y-78842730D01*
X149724276Y-78842734D01*
X149601140Y-79031207D01*
X149510703Y-79237385D01*
X149455436Y-79455628D01*
X149455434Y-79455640D01*
X149436844Y-79679994D01*
X149436844Y-79680005D01*
X149455434Y-79904359D01*
X149455436Y-79904371D01*
X149510703Y-80122614D01*
X149601140Y-80328792D01*
X149724276Y-80517265D01*
X149724284Y-80517276D01*
X149876756Y-80682902D01*
X149876761Y-80682907D01*
X149906215Y-80705832D01*
X150054424Y-80821189D01*
X150054429Y-80821191D01*
X150054431Y-80821193D01*
X150090930Y-80840946D01*
X150140520Y-80890165D01*
X150155628Y-80958382D01*
X150131457Y-81023937D01*
X150090930Y-81059054D01*
X150054431Y-81078806D01*
X150054422Y-81078812D01*
X149876761Y-81217092D01*
X149876756Y-81217097D01*
X149724284Y-81382723D01*
X149724276Y-81382734D01*
X149601140Y-81571207D01*
X149510703Y-81777385D01*
X149455436Y-81995628D01*
X149455434Y-81995640D01*
X149436844Y-82219994D01*
X149436844Y-82220005D01*
X149455434Y-82444359D01*
X149455436Y-82444371D01*
X149510703Y-82662614D01*
X149601140Y-82868792D01*
X149724276Y-83057265D01*
X149724284Y-83057276D01*
X149876756Y-83222902D01*
X149876760Y-83222906D01*
X150054424Y-83361189D01*
X150054429Y-83361191D01*
X150054431Y-83361193D01*
X150090930Y-83380946D01*
X150140520Y-83430165D01*
X150155628Y-83498382D01*
X150131457Y-83563937D01*
X150090930Y-83599054D01*
X150054431Y-83618806D01*
X150054422Y-83618812D01*
X149876761Y-83757092D01*
X149876756Y-83757097D01*
X149724284Y-83922723D01*
X149724276Y-83922734D01*
X149601140Y-84111207D01*
X149510703Y-84317385D01*
X149455436Y-84535628D01*
X149455434Y-84535640D01*
X149436844Y-84759994D01*
X149436844Y-84760005D01*
X149455434Y-84984359D01*
X149455436Y-84984371D01*
X149510703Y-85202614D01*
X149601140Y-85408792D01*
X149724276Y-85597265D01*
X149724284Y-85597276D01*
X149876756Y-85762902D01*
X149876760Y-85762906D01*
X150054424Y-85901189D01*
X150054429Y-85901191D01*
X150054431Y-85901193D01*
X150090930Y-85920946D01*
X150140520Y-85970165D01*
X150155628Y-86038382D01*
X150131457Y-86103937D01*
X150090930Y-86139054D01*
X150054431Y-86158806D01*
X150054422Y-86158812D01*
X149876761Y-86297092D01*
X149876756Y-86297097D01*
X149724284Y-86462723D01*
X149724276Y-86462734D01*
X149601140Y-86651207D01*
X149510703Y-86857385D01*
X149455436Y-87075628D01*
X149455434Y-87075640D01*
X149436844Y-87299994D01*
X149436844Y-87300005D01*
X149455434Y-87524359D01*
X149455436Y-87524371D01*
X149510703Y-87742614D01*
X149601140Y-87948792D01*
X149724276Y-88137265D01*
X149724284Y-88137276D01*
X149876756Y-88302902D01*
X149876760Y-88302906D01*
X150054424Y-88441189D01*
X150054429Y-88441191D01*
X150054431Y-88441193D01*
X150090930Y-88460946D01*
X150140520Y-88510165D01*
X150155628Y-88578382D01*
X150131457Y-88643937D01*
X150090930Y-88679054D01*
X150054431Y-88698806D01*
X150054422Y-88698812D01*
X149876761Y-88837092D01*
X149876756Y-88837097D01*
X149724284Y-89002723D01*
X149724276Y-89002734D01*
X149601140Y-89191207D01*
X149510703Y-89397385D01*
X149455436Y-89615628D01*
X149455434Y-89615640D01*
X149436844Y-89839994D01*
X149436844Y-89840005D01*
X149455434Y-90064359D01*
X149455436Y-90064371D01*
X149510703Y-90282614D01*
X149601140Y-90488792D01*
X149724276Y-90677265D01*
X149724284Y-90677276D01*
X149876756Y-90842902D01*
X149876761Y-90842907D01*
X149900649Y-90861500D01*
X150054424Y-90981189D01*
X150054429Y-90981191D01*
X150054431Y-90981193D01*
X150090930Y-91000946D01*
X150140520Y-91050165D01*
X150155628Y-91118382D01*
X150131457Y-91183937D01*
X150090930Y-91219054D01*
X150054431Y-91238806D01*
X150054422Y-91238812D01*
X149876761Y-91377092D01*
X149876756Y-91377097D01*
X149724284Y-91542723D01*
X149724276Y-91542734D01*
X149601140Y-91731207D01*
X149510703Y-91937385D01*
X149455436Y-92155628D01*
X149455434Y-92155640D01*
X149436844Y-92379994D01*
X149436844Y-92380005D01*
X149455434Y-92604359D01*
X149455436Y-92604371D01*
X149510703Y-92822614D01*
X149601140Y-93028792D01*
X149724276Y-93217265D01*
X149724284Y-93217276D01*
X149876756Y-93382902D01*
X149876760Y-93382906D01*
X150054424Y-93521189D01*
X150054429Y-93521191D01*
X150054431Y-93521193D01*
X150090930Y-93540946D01*
X150140520Y-93590165D01*
X150155628Y-93658382D01*
X150131457Y-93723937D01*
X150090930Y-93759054D01*
X150054431Y-93778806D01*
X150054422Y-93778812D01*
X149876761Y-93917092D01*
X149876756Y-93917097D01*
X149724284Y-94082723D01*
X149724276Y-94082734D01*
X149601140Y-94271207D01*
X149510703Y-94477385D01*
X149455436Y-94695628D01*
X149455434Y-94695640D01*
X149436844Y-94919994D01*
X149436844Y-94920005D01*
X149455434Y-95144359D01*
X149455436Y-95144371D01*
X149510703Y-95362614D01*
X149601140Y-95568792D01*
X149724276Y-95757265D01*
X149724284Y-95757276D01*
X149876756Y-95922902D01*
X149876760Y-95922906D01*
X150054424Y-96061189D01*
X150054425Y-96061189D01*
X150054427Y-96061191D01*
X150181135Y-96129761D01*
X150252426Y-96168342D01*
X150465365Y-96241444D01*
X150687431Y-96278500D01*
X150912569Y-96278500D01*
X151134635Y-96241444D01*
X151347574Y-96168342D01*
X151545576Y-96061189D01*
X151723240Y-95922906D01*
X151875722Y-95757268D01*
X151998860Y-95568791D01*
X152089296Y-95362616D01*
X152144564Y-95144368D01*
X152144565Y-95144359D01*
X152163156Y-94920005D01*
X152163156Y-94919994D01*
X152144565Y-94695640D01*
X152144563Y-94695628D01*
X152089296Y-94477385D01*
X151998859Y-94271207D01*
X151875723Y-94082734D01*
X151875715Y-94082723D01*
X151723243Y-93917097D01*
X151723238Y-93917092D01*
X151545577Y-93778812D01*
X151545578Y-93778812D01*
X151545576Y-93778811D01*
X151509070Y-93759055D01*
X151459479Y-93709836D01*
X151444371Y-93641619D01*
X151468541Y-93576064D01*
X151509070Y-93540945D01*
X151509084Y-93540936D01*
X151545576Y-93521189D01*
X151723240Y-93382906D01*
X151875722Y-93217268D01*
X151998860Y-93028791D01*
X152089296Y-92822616D01*
X152144564Y-92604368D01*
X152163156Y-92380000D01*
X152159465Y-92335461D01*
X152144565Y-92155640D01*
X152144563Y-92155628D01*
X152089296Y-91937385D01*
X151998859Y-91731207D01*
X151875723Y-91542734D01*
X151875715Y-91542723D01*
X151723243Y-91377097D01*
X151723238Y-91377092D01*
X151545577Y-91238812D01*
X151545578Y-91238812D01*
X151545576Y-91238811D01*
X151509070Y-91219055D01*
X151459479Y-91169836D01*
X151444371Y-91101619D01*
X151468541Y-91036064D01*
X151509070Y-91000945D01*
X151509084Y-91000936D01*
X151545576Y-90981189D01*
X151723240Y-90842906D01*
X151875722Y-90677268D01*
X151998860Y-90488791D01*
X152089296Y-90282616D01*
X152144564Y-90064368D01*
X152152995Y-89962627D01*
X152163156Y-89840005D01*
X152163156Y-89839994D01*
X152144565Y-89615640D01*
X152144563Y-89615628D01*
X152089296Y-89397385D01*
X151998859Y-89191207D01*
X151875723Y-89002734D01*
X151875715Y-89002723D01*
X151723243Y-88837097D01*
X151723238Y-88837092D01*
X151545577Y-88698812D01*
X151545578Y-88698812D01*
X151545576Y-88698811D01*
X151509070Y-88679055D01*
X151459479Y-88629836D01*
X151444371Y-88561619D01*
X151468541Y-88496064D01*
X151509070Y-88460945D01*
X151513074Y-88458778D01*
X151545576Y-88441189D01*
X151723240Y-88302906D01*
X151875722Y-88137268D01*
X151998860Y-87948791D01*
X152089296Y-87742616D01*
X152144564Y-87524368D01*
X152144565Y-87524359D01*
X152163156Y-87300005D01*
X152163156Y-87299994D01*
X152144565Y-87075640D01*
X152144563Y-87075628D01*
X152089296Y-86857385D01*
X152080142Y-86836516D01*
X151998860Y-86651209D01*
X151875722Y-86462732D01*
X151875719Y-86462729D01*
X151875715Y-86462723D01*
X151723243Y-86297097D01*
X151723238Y-86297092D01*
X151604797Y-86204905D01*
X151545576Y-86158811D01*
X151509070Y-86139055D01*
X151459479Y-86089836D01*
X151444371Y-86021619D01*
X151468541Y-85956064D01*
X151509070Y-85920945D01*
X151509084Y-85920936D01*
X151545576Y-85901189D01*
X151723240Y-85762906D01*
X151875722Y-85597268D01*
X151998860Y-85408791D01*
X152089296Y-85202616D01*
X152144564Y-84984368D01*
X152144565Y-84984359D01*
X152163156Y-84760005D01*
X152163156Y-84759994D01*
X152144565Y-84535640D01*
X152144563Y-84535628D01*
X152089296Y-84317385D01*
X151998859Y-84111207D01*
X151937291Y-84016970D01*
X151875722Y-83922732D01*
X151875719Y-83922729D01*
X151875715Y-83922723D01*
X151723243Y-83757097D01*
X151723238Y-83757092D01*
X151545577Y-83618812D01*
X151545578Y-83618812D01*
X151545576Y-83618811D01*
X151509070Y-83599055D01*
X151459479Y-83549836D01*
X151444371Y-83481619D01*
X151468541Y-83416064D01*
X151509070Y-83380945D01*
X151509084Y-83380936D01*
X151545576Y-83361189D01*
X151723240Y-83222906D01*
X151875722Y-83057268D01*
X151998860Y-82868791D01*
X152089296Y-82662616D01*
X152144564Y-82444368D01*
X152163156Y-82220000D01*
X152144564Y-81995632D01*
X152089296Y-81777384D01*
X151998860Y-81571209D01*
X151989515Y-81556906D01*
X151899747Y-81419505D01*
X151875722Y-81382732D01*
X151875719Y-81382729D01*
X151875715Y-81382723D01*
X151723243Y-81217097D01*
X151723238Y-81217092D01*
X151570476Y-81098192D01*
X151545576Y-81078811D01*
X151509070Y-81059055D01*
X151459479Y-81009836D01*
X151444371Y-80941619D01*
X151468541Y-80876064D01*
X151509070Y-80840945D01*
X151509084Y-80840936D01*
X151545576Y-80821189D01*
X151723240Y-80682906D01*
X151875722Y-80517268D01*
X151998860Y-80328791D01*
X152089296Y-80122616D01*
X152144564Y-79904368D01*
X152152077Y-79813706D01*
X152163156Y-79680005D01*
X152163156Y-79679994D01*
X152144565Y-79455640D01*
X152144563Y-79455628D01*
X152111513Y-79325116D01*
X152089296Y-79237384D01*
X151998860Y-79031209D01*
X151959216Y-78970530D01*
X151915614Y-78903791D01*
X151875722Y-78842732D01*
X151875719Y-78842729D01*
X151875715Y-78842723D01*
X151730510Y-78684991D01*
X151699587Y-78622337D01*
X151707447Y-78552911D01*
X151751594Y-78498755D01*
X151778405Y-78484827D01*
X151858584Y-78454920D01*
X151896204Y-78440889D01*
X152013261Y-78353261D01*
X152100889Y-78236204D01*
X152151989Y-78099201D01*
X152155591Y-78065692D01*
X152158499Y-78038654D01*
X152158500Y-78038637D01*
X152158500Y-76241362D01*
X152158499Y-76241345D01*
X152155157Y-76210270D01*
X152151989Y-76180799D01*
X152100889Y-76043796D01*
X152013261Y-75926739D01*
X151896204Y-75839111D01*
X151759203Y-75788011D01*
X151698654Y-75781500D01*
X151698638Y-75781500D01*
X150924000Y-75781500D01*
X150856961Y-75761815D01*
X150811206Y-75709011D01*
X150800000Y-75657500D01*
X150800000Y-74557977D01*
X150819685Y-74490938D01*
X150872489Y-74445183D01*
X150907621Y-74436007D01*
X150907511Y-74435344D01*
X150912569Y-74434500D01*
X151134635Y-74397444D01*
X151347574Y-74324342D01*
X151545576Y-74217189D01*
X151723240Y-74078906D01*
X151875722Y-73913268D01*
X151998860Y-73724791D01*
X152089296Y-73518616D01*
X152144564Y-73300368D01*
X152149140Y-73245145D01*
X152163156Y-73076005D01*
X152163156Y-73075994D01*
X152144565Y-72851640D01*
X152144563Y-72851628D01*
X152129727Y-72793042D01*
X152089296Y-72633384D01*
X151998860Y-72427209D01*
X151875722Y-72238732D01*
X151875719Y-72238729D01*
X151875715Y-72238723D01*
X151723243Y-72073097D01*
X151723238Y-72073092D01*
X151545577Y-71934812D01*
X151545578Y-71934812D01*
X151545576Y-71934811D01*
X151509070Y-71915055D01*
X151459479Y-71865836D01*
X151444371Y-71797619D01*
X151468541Y-71732064D01*
X151509070Y-71696945D01*
X151509084Y-71696936D01*
X151545576Y-71677189D01*
X151723240Y-71538906D01*
X151875722Y-71373268D01*
X151998860Y-71184791D01*
X152089296Y-70978616D01*
X152144564Y-70760368D01*
X152146063Y-70742279D01*
X152163156Y-70536005D01*
X152163156Y-70535994D01*
X152144565Y-70311640D01*
X152144563Y-70311628D01*
X152089296Y-70093385D01*
X152073317Y-70056957D01*
X151998860Y-69887209D01*
X151985348Y-69866528D01*
X151905537Y-69744368D01*
X151875722Y-69698732D01*
X151875719Y-69698729D01*
X151875715Y-69698723D01*
X151723243Y-69533097D01*
X151723238Y-69533092D01*
X151545577Y-69394812D01*
X151545578Y-69394812D01*
X151545576Y-69394811D01*
X151509070Y-69375055D01*
X151459479Y-69325836D01*
X151444371Y-69257619D01*
X151468541Y-69192064D01*
X151509070Y-69156945D01*
X151509084Y-69156936D01*
X151545576Y-69137189D01*
X151723240Y-68998906D01*
X151840796Y-68871207D01*
X151875715Y-68833276D01*
X151875716Y-68833274D01*
X151875722Y-68833268D01*
X151998860Y-68644791D01*
X152089296Y-68438616D01*
X152144564Y-68220368D01*
X152144668Y-68219111D01*
X152163156Y-67996005D01*
X152163156Y-67995994D01*
X152144565Y-67771640D01*
X152144563Y-67771628D01*
X152089296Y-67553385D01*
X152073317Y-67516957D01*
X151998860Y-67347209D01*
X151875722Y-67158732D01*
X151875719Y-67158729D01*
X151875715Y-67158723D01*
X151723243Y-66993097D01*
X151723238Y-66993092D01*
X151545577Y-66854812D01*
X151545578Y-66854812D01*
X151545576Y-66854811D01*
X151509070Y-66835055D01*
X151459479Y-66785836D01*
X151444371Y-66717619D01*
X151468541Y-66652064D01*
X151509070Y-66616945D01*
X151509084Y-66616936D01*
X151545576Y-66597189D01*
X151723240Y-66458906D01*
X151875722Y-66293268D01*
X151998860Y-66104791D01*
X152089296Y-65898616D01*
X152144564Y-65680368D01*
X152145792Y-65665552D01*
X152163156Y-65456005D01*
X152163156Y-65455994D01*
X152144565Y-65231640D01*
X152144563Y-65231628D01*
X152089296Y-65013385D01*
X152055165Y-64935574D01*
X151998860Y-64807209D01*
X151972761Y-64767262D01*
X151905537Y-64664368D01*
X151875722Y-64618732D01*
X151875719Y-64618729D01*
X151875715Y-64618723D01*
X151723243Y-64453097D01*
X151723238Y-64453092D01*
X151545577Y-64314812D01*
X151545578Y-64314812D01*
X151545576Y-64314811D01*
X151509070Y-64295055D01*
X151459479Y-64245836D01*
X151444371Y-64177619D01*
X151468541Y-64112064D01*
X151509070Y-64076945D01*
X151509084Y-64076936D01*
X151545576Y-64057189D01*
X151723240Y-63918906D01*
X151875722Y-63753268D01*
X151998860Y-63564791D01*
X152089296Y-63358616D01*
X152144564Y-63140368D01*
X152148235Y-63096064D01*
X152163156Y-62916005D01*
X152163156Y-62915994D01*
X152144565Y-62691640D01*
X152144563Y-62691628D01*
X152089296Y-62473385D01*
X151998859Y-62267207D01*
X151905537Y-62124368D01*
X151875722Y-62078732D01*
X151875719Y-62078729D01*
X151875715Y-62078723D01*
X151723243Y-61913097D01*
X151723238Y-61913092D01*
X151545577Y-61774812D01*
X151545578Y-61774812D01*
X151545576Y-61774811D01*
X151509070Y-61755055D01*
X151459479Y-61705836D01*
X151444371Y-61637619D01*
X151468541Y-61572064D01*
X151509070Y-61536945D01*
X151524767Y-61528450D01*
X151545576Y-61517189D01*
X151723240Y-61378906D01*
X151875722Y-61213268D01*
X151998860Y-61024791D01*
X152089296Y-60818616D01*
X152144564Y-60600368D01*
X152146810Y-60573261D01*
X152163156Y-60376005D01*
X152163156Y-60375994D01*
X152144565Y-60151640D01*
X152144563Y-60151628D01*
X152089296Y-59933385D01*
X151998859Y-59727207D01*
X151875723Y-59538734D01*
X151875715Y-59538723D01*
X151723243Y-59373097D01*
X151723238Y-59373092D01*
X151545577Y-59234812D01*
X151545577Y-59234811D01*
X151502303Y-59211393D01*
X151452713Y-59162173D01*
X151437605Y-59093957D01*
X151461775Y-59028401D01*
X151490198Y-59000763D01*
X151671079Y-58874108D01*
X151838105Y-58707082D01*
X151973600Y-58513578D01*
X152073429Y-58299492D01*
X152073432Y-58299486D01*
X152130636Y-58086000D01*
X151233686Y-58086000D01*
X151259493Y-58045844D01*
X151300000Y-57907889D01*
X151300000Y-57764111D01*
X151259493Y-57626156D01*
X151233686Y-57586000D01*
X152130636Y-57586000D01*
X152130635Y-57585999D01*
X152073432Y-57372513D01*
X152073429Y-57372507D01*
X151973600Y-57158422D01*
X151973599Y-57158420D01*
X151838113Y-56964926D01*
X151838108Y-56964920D01*
X151671082Y-56797894D01*
X151490197Y-56671236D01*
X151446572Y-56616659D01*
X151439380Y-56547160D01*
X151470902Y-56484806D01*
X151502300Y-56460608D01*
X151545576Y-56437189D01*
X151723240Y-56298906D01*
X151875722Y-56133268D01*
X151998860Y-55944791D01*
X152089296Y-55738616D01*
X152144564Y-55520368D01*
X152149302Y-55463190D01*
X152163156Y-55296005D01*
X152163156Y-55295994D01*
X152144565Y-55071640D01*
X152144563Y-55071628D01*
X152089296Y-54853385D01*
X151998859Y-54647207D01*
X151875723Y-54458734D01*
X151875715Y-54458723D01*
X151723243Y-54293097D01*
X151723238Y-54293092D01*
X151545577Y-54154812D01*
X151545578Y-54154812D01*
X151545576Y-54154811D01*
X151509070Y-54135055D01*
X151459479Y-54085836D01*
X151444371Y-54017619D01*
X151468541Y-53952064D01*
X151509070Y-53916945D01*
X151509084Y-53916936D01*
X151545576Y-53897189D01*
X151723240Y-53758906D01*
X151875722Y-53593268D01*
X151998860Y-53404791D01*
X152089296Y-53198616D01*
X152144564Y-52980368D01*
X152152351Y-52886401D01*
X152163156Y-52756000D01*
X152163156Y-52755994D01*
X152144565Y-52531640D01*
X152144563Y-52531628D01*
X152089296Y-52313385D01*
X151998859Y-52107207D01*
X151875723Y-51918734D01*
X151875715Y-51918723D01*
X151730510Y-51760991D01*
X151699587Y-51698337D01*
X151707447Y-51628911D01*
X151751594Y-51574755D01*
X151778405Y-51560827D01*
X151858584Y-51530920D01*
X151896204Y-51516889D01*
X152013261Y-51429261D01*
X152100889Y-51312204D01*
X152151989Y-51175201D01*
X152155591Y-51141692D01*
X152158499Y-51114654D01*
X152158500Y-51114637D01*
X152158500Y-49317362D01*
X152158499Y-49317345D01*
X152155157Y-49286270D01*
X152151989Y-49256799D01*
X152100889Y-49119796D01*
X152013261Y-49002739D01*
X151896204Y-48915111D01*
X151759203Y-48864011D01*
X151698654Y-48857500D01*
X151698638Y-48857500D01*
X149901362Y-48857500D01*
X149901345Y-48857500D01*
X149840797Y-48864011D01*
X149840795Y-48864011D01*
X149703795Y-48915111D01*
X149586739Y-49002739D01*
X149499111Y-49119795D01*
X149448011Y-49256795D01*
X149448011Y-49256797D01*
X149441500Y-49317345D01*
X149441500Y-51114654D01*
X149448011Y-51175202D01*
X149448011Y-51175204D01*
X149499111Y-51312204D01*
X149586739Y-51429261D01*
X149703796Y-51516889D01*
X149755737Y-51536262D01*
X149821595Y-51560827D01*
X149877528Y-51602699D01*
X149901944Y-51668163D01*
X149887092Y-51736436D01*
X149869490Y-51760991D01*
X149724279Y-51918730D01*
X149724276Y-51918734D01*
X149601140Y-52107207D01*
X149510703Y-52313385D01*
X149455436Y-52531628D01*
X149455434Y-52531640D01*
X149436844Y-52755994D01*
X149436844Y-52756000D01*
X149455434Y-52980359D01*
X149455436Y-52980371D01*
X149510703Y-53198614D01*
X149601140Y-53404792D01*
X149724276Y-53593265D01*
X149724284Y-53593276D01*
X149876756Y-53758902D01*
X149876760Y-53758906D01*
X150054424Y-53897189D01*
X150054429Y-53897191D01*
X150054431Y-53897193D01*
X150090930Y-53916946D01*
X150140520Y-53966165D01*
X150155628Y-54034382D01*
X150131457Y-54099937D01*
X150090930Y-54135054D01*
X150054431Y-54154806D01*
X150054422Y-54154812D01*
X149876761Y-54293092D01*
X149876756Y-54293097D01*
X149724284Y-54458723D01*
X149724276Y-54458734D01*
X149601140Y-54647207D01*
X149510703Y-54853385D01*
X149455436Y-55071628D01*
X149455434Y-55071640D01*
X149436844Y-55295994D01*
X149436844Y-55296005D01*
X149455434Y-55520359D01*
X149455436Y-55520371D01*
X149510703Y-55738614D01*
X149601140Y-55944792D01*
X149724276Y-56133265D01*
X149724284Y-56133276D01*
X149876756Y-56298902D01*
X149876760Y-56298906D01*
X150054424Y-56437189D01*
X150097693Y-56460605D01*
X150097695Y-56460606D01*
X150147286Y-56509825D01*
X150162394Y-56578042D01*
X150138224Y-56643597D01*
X150109802Y-56671236D01*
X149928922Y-56797890D01*
X149928920Y-56797891D01*
X149761891Y-56964920D01*
X149761886Y-56964926D01*
X149626400Y-57158420D01*
X149626399Y-57158422D01*
X149526570Y-57372507D01*
X149526567Y-57372513D01*
X149469364Y-57585999D01*
X149469364Y-57586000D01*
X150366314Y-57586000D01*
X150340507Y-57626156D01*
X150300000Y-57764111D01*
X150300000Y-57907889D01*
X150340507Y-58045844D01*
X150366314Y-58086000D01*
X149469364Y-58086000D01*
X149526567Y-58299486D01*
X149526570Y-58299492D01*
X149626399Y-58513578D01*
X149761894Y-58707082D01*
X149928917Y-58874105D01*
X150109802Y-59000763D01*
X150153427Y-59055340D01*
X150160619Y-59124839D01*
X150129097Y-59187193D01*
X150097697Y-59211392D01*
X150054427Y-59234809D01*
X150054422Y-59234812D01*
X149876761Y-59373092D01*
X149876756Y-59373097D01*
X149724284Y-59538723D01*
X149724276Y-59538734D01*
X149601140Y-59727207D01*
X149510703Y-59933385D01*
X149455436Y-60151628D01*
X149455434Y-60151640D01*
X149436844Y-60375994D01*
X149436844Y-60376005D01*
X149455434Y-60600359D01*
X149455436Y-60600371D01*
X149510703Y-60818614D01*
X149601140Y-61024792D01*
X149724276Y-61213265D01*
X149724284Y-61213276D01*
X149876756Y-61378902D01*
X149876760Y-61378906D01*
X150054424Y-61517189D01*
X150054429Y-61517191D01*
X150054431Y-61517193D01*
X150090930Y-61536946D01*
X150140520Y-61586165D01*
X150155628Y-61654382D01*
X150131457Y-61719937D01*
X150090930Y-61755054D01*
X150054431Y-61774806D01*
X150054422Y-61774812D01*
X149876761Y-61913092D01*
X149876756Y-61913097D01*
X149724284Y-62078723D01*
X149724276Y-62078734D01*
X149601140Y-62267207D01*
X149510703Y-62473385D01*
X149455436Y-62691628D01*
X149455434Y-62691640D01*
X149436844Y-62915994D01*
X149436844Y-62916005D01*
X149455434Y-63140359D01*
X149455436Y-63140371D01*
X149510703Y-63358614D01*
X149601140Y-63564792D01*
X149724276Y-63753265D01*
X149724284Y-63753276D01*
X149876756Y-63918902D01*
X149876760Y-63918906D01*
X150054424Y-64057189D01*
X150054429Y-64057191D01*
X150054431Y-64057193D01*
X150090930Y-64076946D01*
X150140520Y-64126165D01*
X150155628Y-64194382D01*
X150131457Y-64259937D01*
X150090930Y-64295054D01*
X150054431Y-64314806D01*
X150054422Y-64314812D01*
X149876761Y-64453092D01*
X149876756Y-64453097D01*
X149724284Y-64618723D01*
X149724276Y-64618734D01*
X149601140Y-64807207D01*
X149510703Y-65013385D01*
X149455436Y-65231628D01*
X149455434Y-65231640D01*
X149436844Y-65455994D01*
X149436844Y-65456005D01*
X149455434Y-65680359D01*
X149455436Y-65680371D01*
X149510703Y-65898614D01*
X149601140Y-66104792D01*
X149724276Y-66293265D01*
X149724284Y-66293276D01*
X149856046Y-66436405D01*
X149876760Y-66458906D01*
X150054424Y-66597189D01*
X150054429Y-66597191D01*
X150054431Y-66597193D01*
X150090930Y-66616946D01*
X150140520Y-66666165D01*
X150155628Y-66734382D01*
X150131457Y-66799937D01*
X150090930Y-66835054D01*
X150054431Y-66854806D01*
X150054422Y-66854812D01*
X149876761Y-66993092D01*
X149876756Y-66993097D01*
X149724284Y-67158723D01*
X149724276Y-67158734D01*
X149601140Y-67347207D01*
X149510703Y-67553385D01*
X149454177Y-67776603D01*
X149452949Y-67776292D01*
X149425101Y-67833795D01*
X149365484Y-67870231D01*
X149295632Y-67868651D01*
X149245567Y-67838175D01*
X147843797Y-66436405D01*
X147810312Y-66375082D01*
X147815296Y-66305390D01*
X147857168Y-66249457D01*
X147866357Y-66243201D01*
X147913652Y-66214030D01*
X148039030Y-66088652D01*
X148132115Y-65937738D01*
X148187887Y-65769426D01*
X148198500Y-65665545D01*
X148198499Y-65039456D01*
X148187887Y-64935574D01*
X148132115Y-64767262D01*
X148039030Y-64616348D01*
X147950363Y-64527681D01*
X147916878Y-64466358D01*
X147921862Y-64396666D01*
X147950363Y-64352319D01*
X147987876Y-64314806D01*
X148039030Y-64263652D01*
X148132115Y-64112738D01*
X148187887Y-63944426D01*
X148198500Y-63840545D01*
X148198499Y-63214456D01*
X148187887Y-63110574D01*
X148132115Y-62942262D01*
X148039030Y-62791348D01*
X147913652Y-62665970D01*
X147913651Y-62665969D01*
X147857402Y-62631274D01*
X147810678Y-62579326D01*
X147798500Y-62525736D01*
X147798500Y-62349861D01*
X147815114Y-62287859D01*
X147824527Y-62271556D01*
X147883542Y-62089928D01*
X147903504Y-61900000D01*
X147883542Y-61710072D01*
X147828495Y-61540658D01*
X147824529Y-61528450D01*
X147824528Y-61528449D01*
X147824527Y-61528444D01*
X147729040Y-61363056D01*
X147601253Y-61221134D01*
X147446752Y-61108882D01*
X147272288Y-61031206D01*
X147272286Y-61031205D01*
X147085487Y-60991500D01*
X146894513Y-60991500D01*
X146707714Y-61031205D01*
X146533246Y-61108883D01*
X146378745Y-61221135D01*
X146250959Y-61363057D01*
X146155473Y-61528443D01*
X146155470Y-61528450D01*
X146098598Y-61703486D01*
X146096458Y-61710072D01*
X146076496Y-61900000D01*
X146096458Y-62089928D01*
X146096459Y-62089931D01*
X146155472Y-62271554D01*
X146164886Y-62287859D01*
X146181500Y-62349861D01*
X146181500Y-62525736D01*
X146161815Y-62592775D01*
X146122598Y-62631274D01*
X146066348Y-62665969D01*
X145940971Y-62791346D01*
X145847886Y-62942259D01*
X145847884Y-62942264D01*
X145837706Y-62972981D01*
X145797933Y-63030426D01*
X145733417Y-63057249D01*
X145664641Y-63044934D01*
X145613441Y-62997391D01*
X145602294Y-62972981D01*
X145592115Y-62942262D01*
X145499030Y-62791348D01*
X145373652Y-62665970D01*
X145373651Y-62665969D01*
X145317402Y-62631274D01*
X145270678Y-62579326D01*
X145258500Y-62525736D01*
X145258500Y-62349861D01*
X145275114Y-62287859D01*
X145284527Y-62271556D01*
X145343542Y-62089928D01*
X145363504Y-61900000D01*
X145343542Y-61710072D01*
X145288495Y-61540658D01*
X145284529Y-61528450D01*
X145284528Y-61528449D01*
X145284527Y-61528444D01*
X145189040Y-61363056D01*
X145061253Y-61221134D01*
X144906752Y-61108882D01*
X144732288Y-61031206D01*
X144732286Y-61031205D01*
X144545487Y-60991500D01*
X144354513Y-60991500D01*
X144167714Y-61031205D01*
X143993246Y-61108883D01*
X143838745Y-61221135D01*
X143710959Y-61363057D01*
X143615473Y-61528443D01*
X143615470Y-61528450D01*
X143558598Y-61703486D01*
X143556458Y-61710072D01*
X143536496Y-61900000D01*
X143556458Y-62089928D01*
X143556459Y-62089931D01*
X143615472Y-62271554D01*
X143624886Y-62287859D01*
X143641500Y-62349861D01*
X143641500Y-62525736D01*
X143621815Y-62592775D01*
X143582598Y-62631274D01*
X143526348Y-62665969D01*
X143400971Y-62791346D01*
X143307886Y-62942259D01*
X143307884Y-62942264D01*
X143297706Y-62972981D01*
X143257933Y-63030426D01*
X143193417Y-63057249D01*
X143124641Y-63044934D01*
X143073441Y-62997391D01*
X143062294Y-62972981D01*
X143052115Y-62942262D01*
X142959030Y-62791348D01*
X142833652Y-62665970D01*
X142833651Y-62665969D01*
X142777402Y-62631274D01*
X142730678Y-62579326D01*
X142718500Y-62525736D01*
X142718500Y-62349861D01*
X142735114Y-62287859D01*
X142744527Y-62271556D01*
X142803542Y-62089928D01*
X142823504Y-61900000D01*
X142803542Y-61710072D01*
X142748495Y-61540658D01*
X142744529Y-61528450D01*
X142744528Y-61528449D01*
X142744527Y-61528444D01*
X142649040Y-61363056D01*
X142521253Y-61221134D01*
X142366752Y-61108882D01*
X142192288Y-61031206D01*
X142192286Y-61031205D01*
X142005487Y-60991500D01*
X141814513Y-60991500D01*
X141627714Y-61031205D01*
X141453246Y-61108883D01*
X141298745Y-61221135D01*
X141170959Y-61363057D01*
X141075473Y-61528443D01*
X141075470Y-61528450D01*
X141018598Y-61703486D01*
X141016458Y-61710072D01*
X140996496Y-61900000D01*
X141016458Y-62089928D01*
X141016459Y-62089931D01*
X141075472Y-62271554D01*
X141084886Y-62287859D01*
X141101500Y-62349861D01*
X141101500Y-62525736D01*
X141081815Y-62592775D01*
X141042598Y-62631274D01*
X140986348Y-62665969D01*
X140860971Y-62791346D01*
X140767886Y-62942259D01*
X140767884Y-62942264D01*
X140712113Y-63110572D01*
X140701500Y-63214447D01*
X140701500Y-63840537D01*
X140701501Y-63840553D01*
X140712113Y-63944427D01*
X140749617Y-64057608D01*
X140767885Y-64112738D01*
X140831348Y-64215628D01*
X140860971Y-64263653D01*
X140949637Y-64352319D01*
X140983122Y-64413642D01*
X140978138Y-64483334D01*
X140949637Y-64527681D01*
X140860971Y-64616346D01*
X140767886Y-64767259D01*
X140767884Y-64767264D01*
X140712113Y-64935572D01*
X140701500Y-65039447D01*
X140701500Y-65665537D01*
X103197674Y-65665537D01*
X103208541Y-65636064D01*
X103249070Y-65600945D01*
X103249084Y-65600936D01*
X103285576Y-65581189D01*
X103463240Y-65442906D01*
X103615722Y-65277268D01*
X103738860Y-65088791D01*
X103829296Y-64882616D01*
X103884564Y-64664368D01*
X103884565Y-64664359D01*
X103903156Y-64440005D01*
X103903156Y-64439994D01*
X103884565Y-64215640D01*
X103884563Y-64215628D01*
X103849444Y-64076946D01*
X103829296Y-63997384D01*
X103738860Y-63791209D01*
X103615722Y-63602732D01*
X103615719Y-63602729D01*
X103615715Y-63602723D01*
X103463243Y-63437097D01*
X103463238Y-63437092D01*
X103285577Y-63298812D01*
X103285578Y-63298812D01*
X103285576Y-63298811D01*
X103249070Y-63279055D01*
X103199479Y-63229836D01*
X103184371Y-63161619D01*
X103208541Y-63096064D01*
X103249070Y-63060945D01*
X103249084Y-63060936D01*
X103285576Y-63041189D01*
X103463240Y-62902906D01*
X103615722Y-62737268D01*
X103738860Y-62548791D01*
X103829296Y-62342616D01*
X103884564Y-62124368D01*
X103887418Y-62089928D01*
X103903156Y-61900005D01*
X103903156Y-61899994D01*
X103884565Y-61675640D01*
X103884563Y-61675628D01*
X103859801Y-61577844D01*
X106220000Y-61577844D01*
X106226401Y-61637372D01*
X106226403Y-61637379D01*
X106276645Y-61772086D01*
X106276649Y-61772093D01*
X106362809Y-61887187D01*
X106362812Y-61887190D01*
X106477906Y-61973350D01*
X106477913Y-61973354D01*
X106612620Y-62023596D01*
X106612627Y-62023598D01*
X106672155Y-62029999D01*
X106672172Y-62030000D01*
X107370000Y-62030000D01*
X107370000Y-61004189D01*
X107422547Y-61040016D01*
X107552173Y-61080000D01*
X107653724Y-61080000D01*
X107754138Y-61064865D01*
X107870000Y-61009068D01*
X107870000Y-62030000D01*
X108567828Y-62030000D01*
X108567844Y-62029999D01*
X108627372Y-62023598D01*
X108627379Y-62023596D01*
X108762086Y-61973354D01*
X108762093Y-61973350D01*
X108877187Y-61887190D01*
X108877190Y-61887187D01*
X108963350Y-61772093D01*
X108963355Y-61772084D01*
X108988940Y-61703486D01*
X109030810Y-61647552D01*
X109096274Y-61623134D01*
X109164547Y-61637985D01*
X109196349Y-61662832D01*
X109202780Y-61669818D01*
X109386983Y-61813190D01*
X109386985Y-61813191D01*
X109386988Y-61813193D01*
X109506331Y-61877777D01*
X109592273Y-61924287D01*
X109706914Y-61963643D01*
X109813045Y-62000079D01*
X109813047Y-62000079D01*
X109813049Y-62000080D01*
X110043288Y-62038500D01*
X110043289Y-62038500D01*
X110276711Y-62038500D01*
X110276712Y-62038500D01*
X110506951Y-62000080D01*
X110727727Y-61924287D01*
X110933017Y-61813190D01*
X111117220Y-61669818D01*
X111275314Y-61498083D01*
X111402984Y-61302669D01*
X111496749Y-61088907D01*
X111554051Y-60862626D01*
X111570509Y-60664008D01*
X111573327Y-60630005D01*
X111573327Y-60629994D01*
X111554051Y-60397377D01*
X111554051Y-60397374D01*
X111496749Y-60171093D01*
X111402984Y-59957331D01*
X111275314Y-59761917D01*
X111275313Y-59761915D01*
X111117223Y-59590185D01*
X111117222Y-59590184D01*
X111117220Y-59590182D01*
X110933017Y-59446810D01*
X110933015Y-59446809D01*
X110933014Y-59446808D01*
X110933011Y-59446806D01*
X110727733Y-59335716D01*
X110727730Y-59335715D01*
X110727727Y-59335713D01*
X110727721Y-59335711D01*
X110727719Y-59335710D01*
X110506954Y-59259920D01*
X110327650Y-59230000D01*
X110276712Y-59221500D01*
X110043288Y-59221500D01*
X109997240Y-59229184D01*
X109813045Y-59259920D01*
X109592280Y-59335710D01*
X109592266Y-59335716D01*
X109386988Y-59446806D01*
X109386985Y-59446808D01*
X109202781Y-59590181D01*
X109202776Y-59590185D01*
X109196346Y-59597170D01*
X109136457Y-59633157D01*
X109066619Y-59631052D01*
X109009005Y-59591524D01*
X108988940Y-59556513D01*
X108963355Y-59487915D01*
X108963350Y-59487906D01*
X108877190Y-59372812D01*
X108877187Y-59372809D01*
X108762093Y-59286649D01*
X108762086Y-59286645D01*
X108627379Y-59236403D01*
X108627372Y-59236401D01*
X108567844Y-59230000D01*
X107870000Y-59230000D01*
X107870000Y-60255810D01*
X107817453Y-60219984D01*
X107687827Y-60180000D01*
X107586276Y-60180000D01*
X107485862Y-60195135D01*
X107370000Y-60250931D01*
X107370000Y-59230000D01*
X106672155Y-59230000D01*
X106612627Y-59236401D01*
X106612620Y-59236403D01*
X106477913Y-59286645D01*
X106477906Y-59286649D01*
X106362812Y-59372809D01*
X106362809Y-59372812D01*
X106276649Y-59487906D01*
X106276645Y-59487913D01*
X106226403Y-59622620D01*
X106226401Y-59622627D01*
X106220000Y-59682155D01*
X106220000Y-60380000D01*
X107244722Y-60380000D01*
X107196375Y-60463740D01*
X107166190Y-60595992D01*
X107176327Y-60731265D01*
X107225887Y-60857541D01*
X107243797Y-60880000D01*
X106220000Y-60880000D01*
X106220000Y-61577844D01*
X103859801Y-61577844D01*
X103849444Y-61536946D01*
X103829296Y-61457384D01*
X103738860Y-61251209D01*
X103615722Y-61062732D01*
X103615719Y-61062729D01*
X103615715Y-61062723D01*
X103470510Y-60904991D01*
X103439587Y-60842337D01*
X103447447Y-60772911D01*
X103491594Y-60718755D01*
X103518405Y-60704827D01*
X103598584Y-60674920D01*
X103636204Y-60660889D01*
X103753261Y-60573261D01*
X103840889Y-60456204D01*
X103891989Y-60319201D01*
X103895591Y-60285692D01*
X103898499Y-60258654D01*
X103898500Y-60258637D01*
X103898500Y-58461362D01*
X103898499Y-58461345D01*
X103895157Y-58430270D01*
X103891989Y-58400799D01*
X103840889Y-58263796D01*
X103753261Y-58146739D01*
X103636204Y-58059111D01*
X103499203Y-58008011D01*
X103438654Y-58001500D01*
X103438638Y-58001500D01*
X101641362Y-58001500D01*
X101641345Y-58001500D01*
X101580797Y-58008011D01*
X101580795Y-58008011D01*
X101443795Y-58059111D01*
X101326739Y-58146739D01*
X101239111Y-58263795D01*
X101188011Y-58400795D01*
X101188011Y-58400797D01*
X101181500Y-58461345D01*
X101181500Y-60258654D01*
X101188011Y-60319202D01*
X101188011Y-60319204D01*
X101217168Y-60397374D01*
X101239111Y-60456204D01*
X101326739Y-60573261D01*
X101443796Y-60660889D01*
X101495737Y-60680262D01*
X101561595Y-60704827D01*
X101617528Y-60746699D01*
X101641944Y-60812163D01*
X101627092Y-60880436D01*
X101609490Y-60904991D01*
X101464279Y-61062730D01*
X101464276Y-61062734D01*
X101341140Y-61251207D01*
X101250703Y-61457385D01*
X101195436Y-61675628D01*
X101195434Y-61675640D01*
X101176844Y-61899994D01*
X101176844Y-61900005D01*
X101195434Y-62124359D01*
X101195436Y-62124371D01*
X101250703Y-62342614D01*
X101341140Y-62548792D01*
X101464276Y-62737265D01*
X101464284Y-62737276D01*
X101616756Y-62902902D01*
X101616760Y-62902906D01*
X101794424Y-63041189D01*
X101794429Y-63041191D01*
X101794431Y-63041193D01*
X101830930Y-63060946D01*
X101880520Y-63110165D01*
X101895628Y-63178382D01*
X101871457Y-63243937D01*
X101830930Y-63279054D01*
X101794431Y-63298806D01*
X101794422Y-63298812D01*
X101616761Y-63437092D01*
X101616756Y-63437097D01*
X101464284Y-63602723D01*
X101464276Y-63602734D01*
X101341140Y-63791207D01*
X101250703Y-63997385D01*
X101195436Y-64215628D01*
X101195434Y-64215640D01*
X101176844Y-64439994D01*
X101176844Y-64440005D01*
X101195434Y-64664359D01*
X101195436Y-64664371D01*
X101250703Y-64882614D01*
X101341140Y-65088792D01*
X101464276Y-65277265D01*
X101464284Y-65277276D01*
X101616756Y-65442902D01*
X101616760Y-65442906D01*
X101794424Y-65581189D01*
X101794429Y-65581191D01*
X101794431Y-65581193D01*
X101830930Y-65600946D01*
X101880520Y-65650165D01*
X101895628Y-65718382D01*
X101871457Y-65783937D01*
X101830930Y-65819054D01*
X101794431Y-65838806D01*
X101794422Y-65838812D01*
X101616761Y-65977092D01*
X101616756Y-65977097D01*
X101464284Y-66142723D01*
X101464276Y-66142734D01*
X101341140Y-66331207D01*
X101250703Y-66537385D01*
X101195436Y-66755628D01*
X101195434Y-66755640D01*
X101176844Y-66979994D01*
X101176844Y-66980005D01*
X101195434Y-67204359D01*
X101195436Y-67204371D01*
X101250703Y-67422614D01*
X101341140Y-67628792D01*
X101464276Y-67817265D01*
X101464284Y-67817276D01*
X101537663Y-67896985D01*
X101616760Y-67982906D01*
X101794424Y-68121189D01*
X101794429Y-68121191D01*
X101794431Y-68121193D01*
X101830930Y-68140946D01*
X101880520Y-68190165D01*
X101895628Y-68258382D01*
X101871457Y-68323937D01*
X101830930Y-68359054D01*
X101794431Y-68378806D01*
X101794422Y-68378812D01*
X101616761Y-68517092D01*
X101616756Y-68517097D01*
X101464284Y-68682723D01*
X101464276Y-68682734D01*
X101341140Y-68871207D01*
X101250703Y-69077385D01*
X101195436Y-69295628D01*
X101195434Y-69295640D01*
X101176844Y-69519994D01*
X101176844Y-69520005D01*
X101195434Y-69744359D01*
X101195436Y-69744371D01*
X101250703Y-69962614D01*
X101341140Y-70168792D01*
X101464276Y-70357265D01*
X101464284Y-70357276D01*
X101616756Y-70522902D01*
X101616760Y-70522906D01*
X101794424Y-70661189D01*
X101837693Y-70684605D01*
X101837695Y-70684606D01*
X101887286Y-70733825D01*
X101902394Y-70802042D01*
X101878224Y-70867597D01*
X101849802Y-70895236D01*
X101668922Y-71021890D01*
X101668920Y-71021891D01*
X101501891Y-71188920D01*
X101501886Y-71188926D01*
X101366400Y-71382420D01*
X101366399Y-71382422D01*
X101266570Y-71596507D01*
X101266567Y-71596513D01*
X101209364Y-71809999D01*
X101209364Y-71810000D01*
X102106314Y-71810000D01*
X102080507Y-71850156D01*
X102040000Y-71988111D01*
X102040000Y-72131889D01*
X102080507Y-72269844D01*
X102106314Y-72310000D01*
X101209364Y-72310000D01*
X101266567Y-72523486D01*
X101266570Y-72523492D01*
X101366399Y-72737578D01*
X101501894Y-72931082D01*
X101668917Y-73098105D01*
X101855031Y-73228425D01*
X101898656Y-73283003D01*
X101905848Y-73352501D01*
X101874326Y-73414856D01*
X101855031Y-73431575D01*
X101668922Y-73561890D01*
X101668920Y-73561891D01*
X101501891Y-73728920D01*
X101501886Y-73728926D01*
X101366400Y-73922420D01*
X101366399Y-73922422D01*
X101266570Y-74136507D01*
X101266567Y-74136513D01*
X101209364Y-74349999D01*
X101209364Y-74350000D01*
X102106314Y-74350000D01*
X102080507Y-74390156D01*
X102040000Y-74528111D01*
X102040000Y-74671889D01*
X102080507Y-74809844D01*
X102106314Y-74850000D01*
X101209364Y-74850000D01*
X101266567Y-75063486D01*
X101266570Y-75063492D01*
X101366399Y-75277578D01*
X101501894Y-75471082D01*
X101668917Y-75638105D01*
X101849802Y-75764763D01*
X101893427Y-75819340D01*
X101900619Y-75888839D01*
X101869097Y-75951193D01*
X101837697Y-75975392D01*
X101794427Y-75998809D01*
X101794422Y-75998812D01*
X101616761Y-76137092D01*
X101616756Y-76137097D01*
X101464284Y-76302723D01*
X101464276Y-76302734D01*
X101341140Y-76491207D01*
X101250703Y-76697385D01*
X101195436Y-76915628D01*
X101195434Y-76915640D01*
X101176844Y-77139994D01*
X101176844Y-77140005D01*
X100075500Y-77140005D01*
X100075500Y-55227844D01*
X106220000Y-55227844D01*
X106226401Y-55287372D01*
X106226403Y-55287379D01*
X106276645Y-55422086D01*
X106276649Y-55422093D01*
X106362809Y-55537187D01*
X106362812Y-55537190D01*
X106477906Y-55623350D01*
X106477913Y-55623354D01*
X106612620Y-55673596D01*
X106612627Y-55673598D01*
X106672155Y-55679999D01*
X106672172Y-55680000D01*
X107370000Y-55680000D01*
X107370000Y-54654189D01*
X107422547Y-54690016D01*
X107552173Y-54730000D01*
X107653724Y-54730000D01*
X107754138Y-54714865D01*
X107870000Y-54659068D01*
X107870000Y-55680000D01*
X108567828Y-55680000D01*
X108567844Y-55679999D01*
X108627372Y-55673598D01*
X108627379Y-55673596D01*
X108762086Y-55623354D01*
X108762093Y-55623350D01*
X108877187Y-55537190D01*
X108877190Y-55537187D01*
X108963350Y-55422093D01*
X108963355Y-55422084D01*
X108988940Y-55353486D01*
X109030810Y-55297552D01*
X109096274Y-55273134D01*
X109164547Y-55287985D01*
X109196349Y-55312832D01*
X109202780Y-55319818D01*
X109386983Y-55463190D01*
X109386985Y-55463191D01*
X109386988Y-55463193D01*
X109492622Y-55520359D01*
X109592273Y-55574287D01*
X109706914Y-55613643D01*
X109813045Y-55650079D01*
X109813047Y-55650079D01*
X109813049Y-55650080D01*
X110043288Y-55688500D01*
X110043289Y-55688500D01*
X110276711Y-55688500D01*
X110276712Y-55688500D01*
X110506951Y-55650080D01*
X110727727Y-55574287D01*
X110933017Y-55463190D01*
X111117220Y-55319818D01*
X111275314Y-55148083D01*
X111402984Y-54952669D01*
X111496749Y-54738907D01*
X111554051Y-54512626D01*
X111572242Y-54293094D01*
X111573327Y-54280005D01*
X111573327Y-54279994D01*
X111559550Y-54113740D01*
X111554051Y-54047374D01*
X111496749Y-53821093D01*
X111402984Y-53607331D01*
X111275314Y-53411917D01*
X111275313Y-53411915D01*
X111117223Y-53240185D01*
X111117222Y-53240184D01*
X111117220Y-53240182D01*
X110933017Y-53096810D01*
X110933015Y-53096809D01*
X110933014Y-53096808D01*
X110933011Y-53096806D01*
X110727733Y-52985716D01*
X110727730Y-52985715D01*
X110727727Y-52985713D01*
X110727721Y-52985711D01*
X110727719Y-52985710D01*
X110506954Y-52909920D01*
X110327650Y-52880000D01*
X110276712Y-52871500D01*
X110043288Y-52871500D01*
X109997240Y-52879184D01*
X109813045Y-52909920D01*
X109592280Y-52985710D01*
X109592266Y-52985716D01*
X109386988Y-53096806D01*
X109386985Y-53096808D01*
X109202781Y-53240181D01*
X109202776Y-53240185D01*
X109196346Y-53247170D01*
X109136457Y-53283157D01*
X109066619Y-53281052D01*
X109009005Y-53241524D01*
X108988940Y-53206513D01*
X108963355Y-53137915D01*
X108963350Y-53137906D01*
X108877190Y-53022812D01*
X108877187Y-53022809D01*
X108762093Y-52936649D01*
X108762086Y-52936645D01*
X108627379Y-52886403D01*
X108627372Y-52886401D01*
X108567844Y-52880000D01*
X107870000Y-52880000D01*
X107870000Y-53905810D01*
X107817453Y-53869984D01*
X107687827Y-53830000D01*
X107586276Y-53830000D01*
X107485862Y-53845135D01*
X107370000Y-53900931D01*
X107370000Y-52880000D01*
X106672155Y-52880000D01*
X106612627Y-52886401D01*
X106612620Y-52886403D01*
X106477913Y-52936645D01*
X106477906Y-52936649D01*
X106362812Y-53022809D01*
X106362809Y-53022812D01*
X106276649Y-53137906D01*
X106276645Y-53137913D01*
X106226403Y-53272620D01*
X106226401Y-53272627D01*
X106220000Y-53332155D01*
X106220000Y-54030000D01*
X107244722Y-54030000D01*
X107196375Y-54113740D01*
X107166190Y-54245992D01*
X107176327Y-54381265D01*
X107225887Y-54507541D01*
X107243797Y-54530000D01*
X106220000Y-54530000D01*
X106220000Y-55227844D01*
X100075500Y-55227844D01*
X100075500Y-48877844D01*
X106220000Y-48877844D01*
X106226401Y-48937372D01*
X106226403Y-48937379D01*
X106276645Y-49072086D01*
X106276649Y-49072093D01*
X106362809Y-49187187D01*
X106362812Y-49187190D01*
X106477906Y-49273350D01*
X106477913Y-49273354D01*
X106612620Y-49323596D01*
X106612627Y-49323598D01*
X106672155Y-49329999D01*
X106672172Y-49330000D01*
X107370000Y-49330000D01*
X107370000Y-48304189D01*
X107422547Y-48340016D01*
X107552173Y-48380000D01*
X107653724Y-48380000D01*
X107754138Y-48364865D01*
X107870000Y-48309068D01*
X107870000Y-49330000D01*
X108567828Y-49330000D01*
X108567844Y-49329999D01*
X108627372Y-49323598D01*
X108627379Y-49323596D01*
X108762086Y-49273354D01*
X108762093Y-49273350D01*
X108877187Y-49187190D01*
X108877190Y-49187187D01*
X108963350Y-49072093D01*
X108963355Y-49072084D01*
X108988940Y-49003486D01*
X109030810Y-48947552D01*
X109096274Y-48923134D01*
X109164547Y-48937985D01*
X109196349Y-48962832D01*
X109202780Y-48969818D01*
X109386983Y-49113190D01*
X109386985Y-49113191D01*
X109386988Y-49113193D01*
X109506331Y-49177777D01*
X109592273Y-49224287D01*
X109686965Y-49256795D01*
X109813045Y-49300079D01*
X109813047Y-49300079D01*
X109813049Y-49300080D01*
X110043288Y-49338500D01*
X110043289Y-49338500D01*
X110276711Y-49338500D01*
X110276712Y-49338500D01*
X110506951Y-49300080D01*
X110727727Y-49224287D01*
X110933017Y-49113190D01*
X111117220Y-48969818D01*
X111275314Y-48798083D01*
X111402984Y-48602669D01*
X111496749Y-48388907D01*
X111554051Y-48162626D01*
X111573327Y-47930000D01*
X111554051Y-47697374D01*
X111496749Y-47471093D01*
X111402984Y-47257331D01*
X111275314Y-47061917D01*
X111275313Y-47061915D01*
X111117223Y-46890185D01*
X111117222Y-46890184D01*
X111117220Y-46890182D01*
X110933017Y-46746810D01*
X110933015Y-46746809D01*
X110933014Y-46746808D01*
X110933011Y-46746806D01*
X110727733Y-46635716D01*
X110727730Y-46635715D01*
X110727727Y-46635713D01*
X110727721Y-46635711D01*
X110727719Y-46635710D01*
X110506954Y-46559920D01*
X110327650Y-46530000D01*
X110276712Y-46521500D01*
X110043288Y-46521500D01*
X109997240Y-46529184D01*
X109813045Y-46559920D01*
X109592280Y-46635710D01*
X109592266Y-46635716D01*
X109386988Y-46746806D01*
X109386985Y-46746808D01*
X109202781Y-46890181D01*
X109202776Y-46890185D01*
X109196346Y-46897170D01*
X109136457Y-46933157D01*
X109066619Y-46931052D01*
X109009005Y-46891524D01*
X108988940Y-46856513D01*
X108963355Y-46787915D01*
X108963350Y-46787906D01*
X108877190Y-46672812D01*
X108877187Y-46672809D01*
X108762093Y-46586649D01*
X108762086Y-46586645D01*
X108627379Y-46536403D01*
X108627372Y-46536401D01*
X108567844Y-46530000D01*
X107870000Y-46530000D01*
X107870000Y-47555810D01*
X107817453Y-47519984D01*
X107687827Y-47480000D01*
X107586276Y-47480000D01*
X107485862Y-47495135D01*
X107370000Y-47550931D01*
X107370000Y-46530000D01*
X106672155Y-46530000D01*
X106612627Y-46536401D01*
X106612620Y-46536403D01*
X106477913Y-46586645D01*
X106477906Y-46586649D01*
X106362812Y-46672809D01*
X106362809Y-46672812D01*
X106276649Y-46787906D01*
X106276645Y-46787913D01*
X106226403Y-46922620D01*
X106226401Y-46922627D01*
X106220000Y-46982155D01*
X106220000Y-47680000D01*
X107244722Y-47680000D01*
X107196375Y-47763740D01*
X107166190Y-47895992D01*
X107176327Y-48031265D01*
X107225887Y-48157541D01*
X107243797Y-48180000D01*
X106220000Y-48180000D01*
X106220000Y-48877844D01*
X100075500Y-48877844D01*
X100075500Y-32188092D01*
X100076097Y-32175938D01*
X100076811Y-32168688D01*
X100087494Y-32060220D01*
X100092234Y-32036389D01*
X100124216Y-31930959D01*
X100133508Y-31908526D01*
X100185442Y-31811365D01*
X100198938Y-31791166D01*
X100268827Y-31706006D01*
X100286006Y-31688827D01*
X100371166Y-31618938D01*
X100391365Y-31605442D01*
X100488526Y-31553508D01*
X100510959Y-31544216D01*
X100616389Y-31512234D01*
X100640220Y-31507494D01*
X100755939Y-31496097D01*
X100768093Y-31495500D01*
X100786531Y-31495500D01*
X152553469Y-31495500D01*
X152571907Y-31495500D01*
X152584061Y-31496097D01*
G37*
%TD.AperFunction*%
%TD*%
M02*
