%TF.GenerationSoftware,KiCad,Pcbnew,7.0.10-7.0.10~ubuntu22.04.1*%
%TF.CreationDate,2024-01-23T12:06:20-05:00*%
%TF.ProjectId,arduino_icsp_shield,61726475-696e-46f5-9f69-6373705f7368,0.1*%
%TF.SameCoordinates,Original*%
%TF.FileFunction,Soldermask,Bot*%
%TF.FilePolarity,Negative*%
%FSLAX46Y46*%
G04 Gerber Fmt 4.6, Leading zero omitted, Abs format (unit mm)*
G04 Created by KiCad (PCBNEW 7.0.10-7.0.10~ubuntu22.04.1) date 2024-01-23 12:06:20*
%MOMM*%
%LPD*%
G01*
G04 APERTURE LIST*
G04 Aperture macros list*
%AMRoundRect*
0 Rectangle with rounded corners*
0 $1 Rounding radius*
0 $2 $3 $4 $5 $6 $7 $8 $9 X,Y pos of 4 corners*
0 Add a 4 corners polygon primitive as box body*
4,1,4,$2,$3,$4,$5,$6,$7,$8,$9,$2,$3,0*
0 Add four circle primitives for the rounded corners*
1,1,$1+$1,$2,$3*
1,1,$1+$1,$4,$5*
1,1,$1+$1,$6,$7*
1,1,$1+$1,$8,$9*
0 Add four rect primitives between the rounded corners*
20,1,$1+$1,$2,$3,$4,$5,0*
20,1,$1+$1,$4,$5,$6,$7,0*
20,1,$1+$1,$6,$7,$8,$9,0*
20,1,$1+$1,$8,$9,$2,$3,0*%
G04 Aperture macros list end*
%ADD10RoundRect,0.250000X0.600000X-0.600000X0.600000X0.600000X-0.600000X0.600000X-0.600000X-0.600000X0*%
%ADD11C,1.700000*%
%ADD12C,3.200000*%
%ADD13R,1.700000X1.700000*%
%ADD14O,1.700000X1.700000*%
%ADD15R,1.800000X1.800000*%
%ADD16C,1.800000*%
G04 APERTURE END LIST*
D10*
%TO.C,J5*%
X124130000Y-89840000D03*
D11*
X124130000Y-87300000D03*
X126670000Y-89840000D03*
X126670000Y-87300000D03*
X129210000Y-89840000D03*
X129210000Y-87300000D03*
%TD*%
D12*
%TO.C,MH1*%
X150800000Y-46660000D03*
%TD*%
D13*
%TO.C,JP1*%
X110160000Y-69520000D03*
D14*
X112700000Y-69520000D03*
X115240000Y-69520000D03*
%TD*%
D15*
%TO.C,D2*%
X107620000Y-60630000D03*
D16*
X110160000Y-60630000D03*
%TD*%
D15*
%TO.C,D3*%
X107620000Y-54280000D03*
D16*
X110160000Y-54280000D03*
%TD*%
D15*
%TO.C,D1*%
X107620000Y-47930000D03*
D16*
X110160000Y-47930000D03*
%TD*%
D13*
%TO.C,JP2*%
X112700000Y-75870000D03*
D14*
X112700000Y-78410000D03*
%TD*%
D12*
%TO.C,MH2*%
X102540000Y-45390000D03*
%TD*%
%TO.C,MH3*%
X135560000Y-97460000D03*
%TD*%
%TO.C,MH4*%
X107620000Y-97460000D03*
%TD*%
D13*
%TO.C,J1*%
X102540000Y-59360000D03*
D14*
X102540000Y-61900000D03*
X102540000Y-64440000D03*
X102540000Y-66980000D03*
X102540000Y-69520000D03*
X102540000Y-72060000D03*
X102540000Y-74600000D03*
X102540000Y-77140000D03*
%TD*%
D13*
%TO.C,J3*%
X102540000Y-82220000D03*
D14*
X102540000Y-84760000D03*
X102540000Y-87300000D03*
X102540000Y-89840000D03*
X102540000Y-92380000D03*
X102540000Y-94920000D03*
%TD*%
D13*
%TO.C,J2*%
X150800000Y-50216000D03*
D14*
X150800000Y-52756000D03*
X150800000Y-55296000D03*
X150800000Y-57836000D03*
X150800000Y-60376000D03*
X150800000Y-62916000D03*
X150800000Y-65456000D03*
X150800000Y-67996000D03*
X150800000Y-70536000D03*
X150800000Y-73076000D03*
%TD*%
D13*
%TO.C,J4*%
X150800000Y-77140000D03*
D14*
X150800000Y-79680000D03*
X150800000Y-82220000D03*
X150800000Y-84760000D03*
X150800000Y-87300000D03*
X150800000Y-89840000D03*
X150800000Y-92380000D03*
X150800000Y-94920000D03*
%TD*%
M02*
