%TF.GenerationSoftware,KiCad,Pcbnew,7.0.10-7.0.10~ubuntu22.04.1*%
%TF.CreationDate,2024-01-23T12:26:40-05:00*%
%TF.ProjectId,arduino_icsp_shield,61726475-696e-46f5-9f69-6373705f7368,0.1*%
%TF.SameCoordinates,Original*%
%TF.FileFunction,Legend,Bot*%
%TF.FilePolarity,Positive*%
%FSLAX46Y46*%
G04 Gerber Fmt 4.6, Leading zero omitted, Abs format (unit mm)*
G04 Created by KiCad (PCBNEW 7.0.10-7.0.10~ubuntu22.04.1) date 2024-01-23 12:26:40*
%MOMM*%
%LPD*%
G01*
G04 APERTURE LIST*
G04 Aperture macros list*
%AMRoundRect*
0 Rectangle with rounded corners*
0 $1 Rounding radius*
0 $2 $3 $4 $5 $6 $7 $8 $9 X,Y pos of 4 corners*
0 Add a 4 corners polygon primitive as box body*
4,1,4,$2,$3,$4,$5,$6,$7,$8,$9,$2,$3,0*
0 Add four circle primitives for the rounded corners*
1,1,$1+$1,$2,$3*
1,1,$1+$1,$4,$5*
1,1,$1+$1,$6,$7*
1,1,$1+$1,$8,$9*
0 Add four rect primitives between the rounded corners*
20,1,$1+$1,$2,$3,$4,$5,0*
20,1,$1+$1,$4,$5,$6,$7,0*
20,1,$1+$1,$6,$7,$8,$9,0*
20,1,$1+$1,$8,$9,$2,$3,0*%
G04 Aperture macros list end*
%ADD10C,0.150000*%
%ADD11C,0.120000*%
%ADD12RoundRect,0.250000X0.600000X-0.600000X0.600000X0.600000X-0.600000X0.600000X-0.600000X-0.600000X0*%
%ADD13C,1.700000*%
%ADD14C,3.200000*%
%ADD15R,1.700000X1.700000*%
%ADD16O,1.700000X1.700000*%
%ADD17R,1.800000X1.800000*%
%ADD18C,1.800000*%
G04 APERTURE END LIST*
D10*
X142719048Y-33414819D02*
X142719048Y-34129104D01*
X142719048Y-34129104D02*
X142766667Y-34271961D01*
X142766667Y-34271961D02*
X142861905Y-34367200D01*
X142861905Y-34367200D02*
X143004762Y-34414819D01*
X143004762Y-34414819D02*
X143100000Y-34414819D01*
X141766667Y-34414819D02*
X142242857Y-34414819D01*
X142242857Y-34414819D02*
X142242857Y-33414819D01*
X140861905Y-34319580D02*
X140909524Y-34367200D01*
X140909524Y-34367200D02*
X141052381Y-34414819D01*
X141052381Y-34414819D02*
X141147619Y-34414819D01*
X141147619Y-34414819D02*
X141290476Y-34367200D01*
X141290476Y-34367200D02*
X141385714Y-34271961D01*
X141385714Y-34271961D02*
X141433333Y-34176723D01*
X141433333Y-34176723D02*
X141480952Y-33986247D01*
X141480952Y-33986247D02*
X141480952Y-33843390D01*
X141480952Y-33843390D02*
X141433333Y-33652914D01*
X141433333Y-33652914D02*
X141385714Y-33557676D01*
X141385714Y-33557676D02*
X141290476Y-33462438D01*
X141290476Y-33462438D02*
X141147619Y-33414819D01*
X141147619Y-33414819D02*
X141052381Y-33414819D01*
X141052381Y-33414819D02*
X140909524Y-33462438D01*
X140909524Y-33462438D02*
X140861905Y-33510057D01*
X140147619Y-33414819D02*
X140147619Y-34129104D01*
X140147619Y-34129104D02*
X140195238Y-34271961D01*
X140195238Y-34271961D02*
X140290476Y-34367200D01*
X140290476Y-34367200D02*
X140433333Y-34414819D01*
X140433333Y-34414819D02*
X140528571Y-34414819D01*
X139195238Y-34414819D02*
X139671428Y-34414819D01*
X139671428Y-34414819D02*
X139671428Y-33414819D01*
X138290476Y-34319580D02*
X138338095Y-34367200D01*
X138338095Y-34367200D02*
X138480952Y-34414819D01*
X138480952Y-34414819D02*
X138576190Y-34414819D01*
X138576190Y-34414819D02*
X138719047Y-34367200D01*
X138719047Y-34367200D02*
X138814285Y-34271961D01*
X138814285Y-34271961D02*
X138861904Y-34176723D01*
X138861904Y-34176723D02*
X138909523Y-33986247D01*
X138909523Y-33986247D02*
X138909523Y-33843390D01*
X138909523Y-33843390D02*
X138861904Y-33652914D01*
X138861904Y-33652914D02*
X138814285Y-33557676D01*
X138814285Y-33557676D02*
X138719047Y-33462438D01*
X138719047Y-33462438D02*
X138576190Y-33414819D01*
X138576190Y-33414819D02*
X138480952Y-33414819D01*
X138480952Y-33414819D02*
X138338095Y-33462438D01*
X138338095Y-33462438D02*
X138290476Y-33510057D01*
X137576190Y-33414819D02*
X137576190Y-34129104D01*
X137576190Y-34129104D02*
X137623809Y-34271961D01*
X137623809Y-34271961D02*
X137719047Y-34367200D01*
X137719047Y-34367200D02*
X137861904Y-34414819D01*
X137861904Y-34414819D02*
X137957142Y-34414819D01*
X136623809Y-34414819D02*
X137099999Y-34414819D01*
X137099999Y-34414819D02*
X137099999Y-33414819D01*
X135719047Y-34319580D02*
X135766666Y-34367200D01*
X135766666Y-34367200D02*
X135909523Y-34414819D01*
X135909523Y-34414819D02*
X136004761Y-34414819D01*
X136004761Y-34414819D02*
X136147618Y-34367200D01*
X136147618Y-34367200D02*
X136242856Y-34271961D01*
X136242856Y-34271961D02*
X136290475Y-34176723D01*
X136290475Y-34176723D02*
X136338094Y-33986247D01*
X136338094Y-33986247D02*
X136338094Y-33843390D01*
X136338094Y-33843390D02*
X136290475Y-33652914D01*
X136290475Y-33652914D02*
X136242856Y-33557676D01*
X136242856Y-33557676D02*
X136147618Y-33462438D01*
X136147618Y-33462438D02*
X136004761Y-33414819D01*
X136004761Y-33414819D02*
X135909523Y-33414819D01*
X135909523Y-33414819D02*
X135766666Y-33462438D01*
X135766666Y-33462438D02*
X135719047Y-33510057D01*
X135004761Y-33414819D02*
X135004761Y-34129104D01*
X135004761Y-34129104D02*
X135052380Y-34271961D01*
X135052380Y-34271961D02*
X135147618Y-34367200D01*
X135147618Y-34367200D02*
X135290475Y-34414819D01*
X135290475Y-34414819D02*
X135385713Y-34414819D01*
X134052380Y-34414819D02*
X134528570Y-34414819D01*
X134528570Y-34414819D02*
X134528570Y-33414819D01*
X133147618Y-34319580D02*
X133195237Y-34367200D01*
X133195237Y-34367200D02*
X133338094Y-34414819D01*
X133338094Y-34414819D02*
X133433332Y-34414819D01*
X133433332Y-34414819D02*
X133576189Y-34367200D01*
X133576189Y-34367200D02*
X133671427Y-34271961D01*
X133671427Y-34271961D02*
X133719046Y-34176723D01*
X133719046Y-34176723D02*
X133766665Y-33986247D01*
X133766665Y-33986247D02*
X133766665Y-33843390D01*
X133766665Y-33843390D02*
X133719046Y-33652914D01*
X133719046Y-33652914D02*
X133671427Y-33557676D01*
X133671427Y-33557676D02*
X133576189Y-33462438D01*
X133576189Y-33462438D02*
X133433332Y-33414819D01*
X133433332Y-33414819D02*
X133338094Y-33414819D01*
X133338094Y-33414819D02*
X133195237Y-33462438D01*
X133195237Y-33462438D02*
X133147618Y-33510057D01*
X134050952Y-62999104D02*
X133574762Y-62999104D01*
X134146190Y-63284819D02*
X133812857Y-62284819D01*
X133812857Y-62284819D02*
X133479524Y-63284819D01*
X133146190Y-63284819D02*
X133146190Y-62618152D01*
X133146190Y-62808628D02*
X133098571Y-62713390D01*
X133098571Y-62713390D02*
X133050952Y-62665771D01*
X133050952Y-62665771D02*
X132955714Y-62618152D01*
X132955714Y-62618152D02*
X132860476Y-62618152D01*
X132098571Y-63284819D02*
X132098571Y-62284819D01*
X132098571Y-63237200D02*
X132193809Y-63284819D01*
X132193809Y-63284819D02*
X132384285Y-63284819D01*
X132384285Y-63284819D02*
X132479523Y-63237200D01*
X132479523Y-63237200D02*
X132527142Y-63189580D01*
X132527142Y-63189580D02*
X132574761Y-63094342D01*
X132574761Y-63094342D02*
X132574761Y-62808628D01*
X132574761Y-62808628D02*
X132527142Y-62713390D01*
X132527142Y-62713390D02*
X132479523Y-62665771D01*
X132479523Y-62665771D02*
X132384285Y-62618152D01*
X132384285Y-62618152D02*
X132193809Y-62618152D01*
X132193809Y-62618152D02*
X132098571Y-62665771D01*
X131193809Y-62618152D02*
X131193809Y-63284819D01*
X131622380Y-62618152D02*
X131622380Y-63141961D01*
X131622380Y-63141961D02*
X131574761Y-63237200D01*
X131574761Y-63237200D02*
X131479523Y-63284819D01*
X131479523Y-63284819D02*
X131336666Y-63284819D01*
X131336666Y-63284819D02*
X131241428Y-63237200D01*
X131241428Y-63237200D02*
X131193809Y-63189580D01*
X130717618Y-63284819D02*
X130717618Y-62618152D01*
X130717618Y-62284819D02*
X130765237Y-62332438D01*
X130765237Y-62332438D02*
X130717618Y-62380057D01*
X130717618Y-62380057D02*
X130669999Y-62332438D01*
X130669999Y-62332438D02*
X130717618Y-62284819D01*
X130717618Y-62284819D02*
X130717618Y-62380057D01*
X130241428Y-62618152D02*
X130241428Y-63284819D01*
X130241428Y-62713390D02*
X130193809Y-62665771D01*
X130193809Y-62665771D02*
X130098571Y-62618152D01*
X130098571Y-62618152D02*
X129955714Y-62618152D01*
X129955714Y-62618152D02*
X129860476Y-62665771D01*
X129860476Y-62665771D02*
X129812857Y-62761009D01*
X129812857Y-62761009D02*
X129812857Y-63284819D01*
X129193809Y-63284819D02*
X129289047Y-63237200D01*
X129289047Y-63237200D02*
X129336666Y-63189580D01*
X129336666Y-63189580D02*
X129384285Y-63094342D01*
X129384285Y-63094342D02*
X129384285Y-62808628D01*
X129384285Y-62808628D02*
X129336666Y-62713390D01*
X129336666Y-62713390D02*
X129289047Y-62665771D01*
X129289047Y-62665771D02*
X129193809Y-62618152D01*
X129193809Y-62618152D02*
X129050952Y-62618152D01*
X129050952Y-62618152D02*
X128955714Y-62665771D01*
X128955714Y-62665771D02*
X128908095Y-62713390D01*
X128908095Y-62713390D02*
X128860476Y-62808628D01*
X128860476Y-62808628D02*
X128860476Y-63094342D01*
X128860476Y-63094342D02*
X128908095Y-63189580D01*
X128908095Y-63189580D02*
X128955714Y-63237200D01*
X128955714Y-63237200D02*
X129050952Y-63284819D01*
X129050952Y-63284819D02*
X129193809Y-63284819D01*
X127669999Y-63284819D02*
X127669999Y-62284819D01*
X126622381Y-63189580D02*
X126670000Y-63237200D01*
X126670000Y-63237200D02*
X126812857Y-63284819D01*
X126812857Y-63284819D02*
X126908095Y-63284819D01*
X126908095Y-63284819D02*
X127050952Y-63237200D01*
X127050952Y-63237200D02*
X127146190Y-63141961D01*
X127146190Y-63141961D02*
X127193809Y-63046723D01*
X127193809Y-63046723D02*
X127241428Y-62856247D01*
X127241428Y-62856247D02*
X127241428Y-62713390D01*
X127241428Y-62713390D02*
X127193809Y-62522914D01*
X127193809Y-62522914D02*
X127146190Y-62427676D01*
X127146190Y-62427676D02*
X127050952Y-62332438D01*
X127050952Y-62332438D02*
X126908095Y-62284819D01*
X126908095Y-62284819D02*
X126812857Y-62284819D01*
X126812857Y-62284819D02*
X126670000Y-62332438D01*
X126670000Y-62332438D02*
X126622381Y-62380057D01*
X126241428Y-63237200D02*
X126098571Y-63284819D01*
X126098571Y-63284819D02*
X125860476Y-63284819D01*
X125860476Y-63284819D02*
X125765238Y-63237200D01*
X125765238Y-63237200D02*
X125717619Y-63189580D01*
X125717619Y-63189580D02*
X125670000Y-63094342D01*
X125670000Y-63094342D02*
X125670000Y-62999104D01*
X125670000Y-62999104D02*
X125717619Y-62903866D01*
X125717619Y-62903866D02*
X125765238Y-62856247D01*
X125765238Y-62856247D02*
X125860476Y-62808628D01*
X125860476Y-62808628D02*
X126050952Y-62761009D01*
X126050952Y-62761009D02*
X126146190Y-62713390D01*
X126146190Y-62713390D02*
X126193809Y-62665771D01*
X126193809Y-62665771D02*
X126241428Y-62570533D01*
X126241428Y-62570533D02*
X126241428Y-62475295D01*
X126241428Y-62475295D02*
X126193809Y-62380057D01*
X126193809Y-62380057D02*
X126146190Y-62332438D01*
X126146190Y-62332438D02*
X126050952Y-62284819D01*
X126050952Y-62284819D02*
X125812857Y-62284819D01*
X125812857Y-62284819D02*
X125670000Y-62332438D01*
X125241428Y-63284819D02*
X125241428Y-62284819D01*
X125241428Y-62284819D02*
X124860476Y-62284819D01*
X124860476Y-62284819D02*
X124765238Y-62332438D01*
X124765238Y-62332438D02*
X124717619Y-62380057D01*
X124717619Y-62380057D02*
X124670000Y-62475295D01*
X124670000Y-62475295D02*
X124670000Y-62618152D01*
X124670000Y-62618152D02*
X124717619Y-62713390D01*
X124717619Y-62713390D02*
X124765238Y-62761009D01*
X124765238Y-62761009D02*
X124860476Y-62808628D01*
X124860476Y-62808628D02*
X125241428Y-62808628D01*
X123527142Y-63237200D02*
X123384285Y-63284819D01*
X123384285Y-63284819D02*
X123146190Y-63284819D01*
X123146190Y-63284819D02*
X123050952Y-63237200D01*
X123050952Y-63237200D02*
X123003333Y-63189580D01*
X123003333Y-63189580D02*
X122955714Y-63094342D01*
X122955714Y-63094342D02*
X122955714Y-62999104D01*
X122955714Y-62999104D02*
X123003333Y-62903866D01*
X123003333Y-62903866D02*
X123050952Y-62856247D01*
X123050952Y-62856247D02*
X123146190Y-62808628D01*
X123146190Y-62808628D02*
X123336666Y-62761009D01*
X123336666Y-62761009D02*
X123431904Y-62713390D01*
X123431904Y-62713390D02*
X123479523Y-62665771D01*
X123479523Y-62665771D02*
X123527142Y-62570533D01*
X123527142Y-62570533D02*
X123527142Y-62475295D01*
X123527142Y-62475295D02*
X123479523Y-62380057D01*
X123479523Y-62380057D02*
X123431904Y-62332438D01*
X123431904Y-62332438D02*
X123336666Y-62284819D01*
X123336666Y-62284819D02*
X123098571Y-62284819D01*
X123098571Y-62284819D02*
X122955714Y-62332438D01*
X122527142Y-63284819D02*
X122527142Y-62284819D01*
X122098571Y-63284819D02*
X122098571Y-62761009D01*
X122098571Y-62761009D02*
X122146190Y-62665771D01*
X122146190Y-62665771D02*
X122241428Y-62618152D01*
X122241428Y-62618152D02*
X122384285Y-62618152D01*
X122384285Y-62618152D02*
X122479523Y-62665771D01*
X122479523Y-62665771D02*
X122527142Y-62713390D01*
X121622380Y-63284819D02*
X121622380Y-62618152D01*
X121622380Y-62284819D02*
X121669999Y-62332438D01*
X121669999Y-62332438D02*
X121622380Y-62380057D01*
X121622380Y-62380057D02*
X121574761Y-62332438D01*
X121574761Y-62332438D02*
X121622380Y-62284819D01*
X121622380Y-62284819D02*
X121622380Y-62380057D01*
X120765238Y-63237200D02*
X120860476Y-63284819D01*
X120860476Y-63284819D02*
X121050952Y-63284819D01*
X121050952Y-63284819D02*
X121146190Y-63237200D01*
X121146190Y-63237200D02*
X121193809Y-63141961D01*
X121193809Y-63141961D02*
X121193809Y-62761009D01*
X121193809Y-62761009D02*
X121146190Y-62665771D01*
X121146190Y-62665771D02*
X121050952Y-62618152D01*
X121050952Y-62618152D02*
X120860476Y-62618152D01*
X120860476Y-62618152D02*
X120765238Y-62665771D01*
X120765238Y-62665771D02*
X120717619Y-62761009D01*
X120717619Y-62761009D02*
X120717619Y-62856247D01*
X120717619Y-62856247D02*
X121193809Y-62951485D01*
X120146190Y-63284819D02*
X120241428Y-63237200D01*
X120241428Y-63237200D02*
X120289047Y-63141961D01*
X120289047Y-63141961D02*
X120289047Y-62284819D01*
X119336666Y-63284819D02*
X119336666Y-62284819D01*
X119336666Y-63237200D02*
X119431904Y-63284819D01*
X119431904Y-63284819D02*
X119622380Y-63284819D01*
X119622380Y-63284819D02*
X119717618Y-63237200D01*
X119717618Y-63237200D02*
X119765237Y-63189580D01*
X119765237Y-63189580D02*
X119812856Y-63094342D01*
X119812856Y-63094342D02*
X119812856Y-62808628D01*
X119812856Y-62808628D02*
X119765237Y-62713390D01*
X119765237Y-62713390D02*
X119717618Y-62665771D01*
X119717618Y-62665771D02*
X119622380Y-62618152D01*
X119622380Y-62618152D02*
X119431904Y-62618152D01*
X119431904Y-62618152D02*
X119336666Y-62665771D01*
X138622382Y-64894819D02*
X138622382Y-63894819D01*
X138622382Y-63894819D02*
X138289049Y-64609104D01*
X138289049Y-64609104D02*
X137955716Y-63894819D01*
X137955716Y-63894819D02*
X137955716Y-64894819D01*
X137050954Y-64894819D02*
X137050954Y-64371009D01*
X137050954Y-64371009D02*
X137098573Y-64275771D01*
X137098573Y-64275771D02*
X137193811Y-64228152D01*
X137193811Y-64228152D02*
X137384287Y-64228152D01*
X137384287Y-64228152D02*
X137479525Y-64275771D01*
X137050954Y-64847200D02*
X137146192Y-64894819D01*
X137146192Y-64894819D02*
X137384287Y-64894819D01*
X137384287Y-64894819D02*
X137479525Y-64847200D01*
X137479525Y-64847200D02*
X137527144Y-64751961D01*
X137527144Y-64751961D02*
X137527144Y-64656723D01*
X137527144Y-64656723D02*
X137479525Y-64561485D01*
X137479525Y-64561485D02*
X137384287Y-64513866D01*
X137384287Y-64513866D02*
X137146192Y-64513866D01*
X137146192Y-64513866D02*
X137050954Y-64466247D01*
X136670001Y-64894819D02*
X136146192Y-64228152D01*
X136670001Y-64228152D02*
X136146192Y-64894819D01*
X135003334Y-64894819D02*
X135003334Y-63894819D01*
X135003334Y-63894819D02*
X134622382Y-63894819D01*
X134622382Y-63894819D02*
X134527144Y-63942438D01*
X134527144Y-63942438D02*
X134479525Y-63990057D01*
X134479525Y-63990057D02*
X134431906Y-64085295D01*
X134431906Y-64085295D02*
X134431906Y-64228152D01*
X134431906Y-64228152D02*
X134479525Y-64323390D01*
X134479525Y-64323390D02*
X134527144Y-64371009D01*
X134527144Y-64371009D02*
X134622382Y-64418628D01*
X134622382Y-64418628D02*
X135003334Y-64418628D01*
X134003334Y-64894819D02*
X134003334Y-64228152D01*
X134003334Y-64418628D02*
X133955715Y-64323390D01*
X133955715Y-64323390D02*
X133908096Y-64275771D01*
X133908096Y-64275771D02*
X133812858Y-64228152D01*
X133812858Y-64228152D02*
X133717620Y-64228152D01*
X133241429Y-64894819D02*
X133336667Y-64847200D01*
X133336667Y-64847200D02*
X133384286Y-64799580D01*
X133384286Y-64799580D02*
X133431905Y-64704342D01*
X133431905Y-64704342D02*
X133431905Y-64418628D01*
X133431905Y-64418628D02*
X133384286Y-64323390D01*
X133384286Y-64323390D02*
X133336667Y-64275771D01*
X133336667Y-64275771D02*
X133241429Y-64228152D01*
X133241429Y-64228152D02*
X133098572Y-64228152D01*
X133098572Y-64228152D02*
X133003334Y-64275771D01*
X133003334Y-64275771D02*
X132955715Y-64323390D01*
X132955715Y-64323390D02*
X132908096Y-64418628D01*
X132908096Y-64418628D02*
X132908096Y-64704342D01*
X132908096Y-64704342D02*
X132955715Y-64799580D01*
X132955715Y-64799580D02*
X133003334Y-64847200D01*
X133003334Y-64847200D02*
X133098572Y-64894819D01*
X133098572Y-64894819D02*
X133241429Y-64894819D01*
X132527143Y-64847200D02*
X132431905Y-64894819D01*
X132431905Y-64894819D02*
X132241429Y-64894819D01*
X132241429Y-64894819D02*
X132146191Y-64847200D01*
X132146191Y-64847200D02*
X132098572Y-64751961D01*
X132098572Y-64751961D02*
X132098572Y-64704342D01*
X132098572Y-64704342D02*
X132146191Y-64609104D01*
X132146191Y-64609104D02*
X132241429Y-64561485D01*
X132241429Y-64561485D02*
X132384286Y-64561485D01*
X132384286Y-64561485D02*
X132479524Y-64513866D01*
X132479524Y-64513866D02*
X132527143Y-64418628D01*
X132527143Y-64418628D02*
X132527143Y-64371009D01*
X132527143Y-64371009D02*
X132479524Y-64275771D01*
X132479524Y-64275771D02*
X132384286Y-64228152D01*
X132384286Y-64228152D02*
X132241429Y-64228152D01*
X132241429Y-64228152D02*
X132146191Y-64275771D01*
X131670000Y-64894819D02*
X131670000Y-63894819D01*
X131574762Y-64513866D02*
X131289048Y-64894819D01*
X131289048Y-64228152D02*
X131670000Y-64609104D01*
X130431905Y-64894819D02*
X130431905Y-64371009D01*
X130431905Y-64371009D02*
X130479524Y-64275771D01*
X130479524Y-64275771D02*
X130574762Y-64228152D01*
X130574762Y-64228152D02*
X130765238Y-64228152D01*
X130765238Y-64228152D02*
X130860476Y-64275771D01*
X130431905Y-64847200D02*
X130527143Y-64894819D01*
X130527143Y-64894819D02*
X130765238Y-64894819D01*
X130765238Y-64894819D02*
X130860476Y-64847200D01*
X130860476Y-64847200D02*
X130908095Y-64751961D01*
X130908095Y-64751961D02*
X130908095Y-64656723D01*
X130908095Y-64656723D02*
X130860476Y-64561485D01*
X130860476Y-64561485D02*
X130765238Y-64513866D01*
X130765238Y-64513866D02*
X130527143Y-64513866D01*
X130527143Y-64513866D02*
X130431905Y-64466247D01*
X129527143Y-64228152D02*
X129527143Y-64894819D01*
X129955714Y-64228152D02*
X129955714Y-64751961D01*
X129955714Y-64751961D02*
X129908095Y-64847200D01*
X129908095Y-64847200D02*
X129812857Y-64894819D01*
X129812857Y-64894819D02*
X129670000Y-64894819D01*
X129670000Y-64894819D02*
X129574762Y-64847200D01*
X129574762Y-64847200D02*
X129527143Y-64799580D01*
X128670000Y-64847200D02*
X128765238Y-64894819D01*
X128765238Y-64894819D02*
X128955714Y-64894819D01*
X128955714Y-64894819D02*
X129050952Y-64847200D01*
X129050952Y-64847200D02*
X129098571Y-64751961D01*
X129098571Y-64751961D02*
X129098571Y-64371009D01*
X129098571Y-64371009D02*
X129050952Y-64275771D01*
X129050952Y-64275771D02*
X128955714Y-64228152D01*
X128955714Y-64228152D02*
X128765238Y-64228152D01*
X128765238Y-64228152D02*
X128670000Y-64275771D01*
X128670000Y-64275771D02*
X128622381Y-64371009D01*
X128622381Y-64371009D02*
X128622381Y-64466247D01*
X128622381Y-64466247D02*
X129098571Y-64561485D01*
X128193809Y-64894819D02*
X128193809Y-64228152D01*
X128193809Y-64418628D02*
X128146190Y-64323390D01*
X128146190Y-64323390D02*
X128098571Y-64275771D01*
X128098571Y-64275771D02*
X128003333Y-64228152D01*
X128003333Y-64228152D02*
X127908095Y-64228152D01*
X125765237Y-63894819D02*
X125765237Y-64609104D01*
X125765237Y-64609104D02*
X125812856Y-64751961D01*
X125812856Y-64751961D02*
X125908094Y-64847200D01*
X125908094Y-64847200D02*
X126050951Y-64894819D01*
X126050951Y-64894819D02*
X126146189Y-64894819D01*
X124860475Y-64894819D02*
X124860475Y-64371009D01*
X124860475Y-64371009D02*
X124908094Y-64275771D01*
X124908094Y-64275771D02*
X125003332Y-64228152D01*
X125003332Y-64228152D02*
X125193808Y-64228152D01*
X125193808Y-64228152D02*
X125289046Y-64275771D01*
X124860475Y-64847200D02*
X124955713Y-64894819D01*
X124955713Y-64894819D02*
X125193808Y-64894819D01*
X125193808Y-64894819D02*
X125289046Y-64847200D01*
X125289046Y-64847200D02*
X125336665Y-64751961D01*
X125336665Y-64751961D02*
X125336665Y-64656723D01*
X125336665Y-64656723D02*
X125289046Y-64561485D01*
X125289046Y-64561485D02*
X125193808Y-64513866D01*
X125193808Y-64513866D02*
X124955713Y-64513866D01*
X124955713Y-64513866D02*
X124860475Y-64466247D01*
X124384284Y-64228152D02*
X124384284Y-64894819D01*
X124384284Y-64323390D02*
X124336665Y-64275771D01*
X124336665Y-64275771D02*
X124241427Y-64228152D01*
X124241427Y-64228152D02*
X124098570Y-64228152D01*
X124098570Y-64228152D02*
X124003332Y-64275771D01*
X124003332Y-64275771D02*
X123955713Y-64371009D01*
X123955713Y-64371009D02*
X123955713Y-64894819D01*
X122765236Y-63990057D02*
X122717617Y-63942438D01*
X122717617Y-63942438D02*
X122622379Y-63894819D01*
X122622379Y-63894819D02*
X122384284Y-63894819D01*
X122384284Y-63894819D02*
X122289046Y-63942438D01*
X122289046Y-63942438D02*
X122241427Y-63990057D01*
X122241427Y-63990057D02*
X122193808Y-64085295D01*
X122193808Y-64085295D02*
X122193808Y-64180533D01*
X122193808Y-64180533D02*
X122241427Y-64323390D01*
X122241427Y-64323390D02*
X122812855Y-64894819D01*
X122812855Y-64894819D02*
X122193808Y-64894819D01*
X121574760Y-63894819D02*
X121479522Y-63894819D01*
X121479522Y-63894819D02*
X121384284Y-63942438D01*
X121384284Y-63942438D02*
X121336665Y-63990057D01*
X121336665Y-63990057D02*
X121289046Y-64085295D01*
X121289046Y-64085295D02*
X121241427Y-64275771D01*
X121241427Y-64275771D02*
X121241427Y-64513866D01*
X121241427Y-64513866D02*
X121289046Y-64704342D01*
X121289046Y-64704342D02*
X121336665Y-64799580D01*
X121336665Y-64799580D02*
X121384284Y-64847200D01*
X121384284Y-64847200D02*
X121479522Y-64894819D01*
X121479522Y-64894819D02*
X121574760Y-64894819D01*
X121574760Y-64894819D02*
X121669998Y-64847200D01*
X121669998Y-64847200D02*
X121717617Y-64799580D01*
X121717617Y-64799580D02*
X121765236Y-64704342D01*
X121765236Y-64704342D02*
X121812855Y-64513866D01*
X121812855Y-64513866D02*
X121812855Y-64275771D01*
X121812855Y-64275771D02*
X121765236Y-64085295D01*
X121765236Y-64085295D02*
X121717617Y-63990057D01*
X121717617Y-63990057D02*
X121669998Y-63942438D01*
X121669998Y-63942438D02*
X121574760Y-63894819D01*
X120860474Y-63990057D02*
X120812855Y-63942438D01*
X120812855Y-63942438D02*
X120717617Y-63894819D01*
X120717617Y-63894819D02*
X120479522Y-63894819D01*
X120479522Y-63894819D02*
X120384284Y-63942438D01*
X120384284Y-63942438D02*
X120336665Y-63990057D01*
X120336665Y-63990057D02*
X120289046Y-64085295D01*
X120289046Y-64085295D02*
X120289046Y-64180533D01*
X120289046Y-64180533D02*
X120336665Y-64323390D01*
X120336665Y-64323390D02*
X120908093Y-64894819D01*
X120908093Y-64894819D02*
X120289046Y-64894819D01*
X119431903Y-64228152D02*
X119431903Y-64894819D01*
X119669998Y-63847200D02*
X119908093Y-64561485D01*
X119908093Y-64561485D02*
X119289046Y-64561485D01*
X117479521Y-64228152D02*
X117241426Y-64894819D01*
X117241426Y-64894819D02*
X117003331Y-64228152D01*
X116431902Y-63894819D02*
X116336664Y-63894819D01*
X116336664Y-63894819D02*
X116241426Y-63942438D01*
X116241426Y-63942438D02*
X116193807Y-63990057D01*
X116193807Y-63990057D02*
X116146188Y-64085295D01*
X116146188Y-64085295D02*
X116098569Y-64275771D01*
X116098569Y-64275771D02*
X116098569Y-64513866D01*
X116098569Y-64513866D02*
X116146188Y-64704342D01*
X116146188Y-64704342D02*
X116193807Y-64799580D01*
X116193807Y-64799580D02*
X116241426Y-64847200D01*
X116241426Y-64847200D02*
X116336664Y-64894819D01*
X116336664Y-64894819D02*
X116431902Y-64894819D01*
X116431902Y-64894819D02*
X116527140Y-64847200D01*
X116527140Y-64847200D02*
X116574759Y-64799580D01*
X116574759Y-64799580D02*
X116622378Y-64704342D01*
X116622378Y-64704342D02*
X116669997Y-64513866D01*
X116669997Y-64513866D02*
X116669997Y-64275771D01*
X116669997Y-64275771D02*
X116622378Y-64085295D01*
X116622378Y-64085295D02*
X116574759Y-63990057D01*
X116574759Y-63990057D02*
X116527140Y-63942438D01*
X116527140Y-63942438D02*
X116431902Y-63894819D01*
X115669997Y-64799580D02*
X115622378Y-64847200D01*
X115622378Y-64847200D02*
X115669997Y-64894819D01*
X115669997Y-64894819D02*
X115717616Y-64847200D01*
X115717616Y-64847200D02*
X115669997Y-64799580D01*
X115669997Y-64799580D02*
X115669997Y-64894819D01*
X114669998Y-64894819D02*
X115241426Y-64894819D01*
X114955712Y-64894819D02*
X114955712Y-63894819D01*
X114955712Y-63894819D02*
X115050950Y-64037676D01*
X115050950Y-64037676D02*
X115146188Y-64132914D01*
X115146188Y-64132914D02*
X115241426Y-64180533D01*
X144789048Y-66504819D02*
X144789048Y-65504819D01*
X144360477Y-66504819D02*
X144360477Y-65981009D01*
X144360477Y-65981009D02*
X144408096Y-65885771D01*
X144408096Y-65885771D02*
X144503334Y-65838152D01*
X144503334Y-65838152D02*
X144646191Y-65838152D01*
X144646191Y-65838152D02*
X144741429Y-65885771D01*
X144741429Y-65885771D02*
X144789048Y-65933390D01*
X144027143Y-65838152D02*
X143646191Y-65838152D01*
X143884286Y-65504819D02*
X143884286Y-66361961D01*
X143884286Y-66361961D02*
X143836667Y-66457200D01*
X143836667Y-66457200D02*
X143741429Y-66504819D01*
X143741429Y-66504819D02*
X143646191Y-66504819D01*
X143455714Y-65838152D02*
X143074762Y-65838152D01*
X143312857Y-65504819D02*
X143312857Y-66361961D01*
X143312857Y-66361961D02*
X143265238Y-66457200D01*
X143265238Y-66457200D02*
X143170000Y-66504819D01*
X143170000Y-66504819D02*
X143074762Y-66504819D01*
X142741428Y-65838152D02*
X142741428Y-66838152D01*
X142741428Y-65885771D02*
X142646190Y-65838152D01*
X142646190Y-65838152D02*
X142455714Y-65838152D01*
X142455714Y-65838152D02*
X142360476Y-65885771D01*
X142360476Y-65885771D02*
X142312857Y-65933390D01*
X142312857Y-65933390D02*
X142265238Y-66028628D01*
X142265238Y-66028628D02*
X142265238Y-66314342D01*
X142265238Y-66314342D02*
X142312857Y-66409580D01*
X142312857Y-66409580D02*
X142360476Y-66457200D01*
X142360476Y-66457200D02*
X142455714Y-66504819D01*
X142455714Y-66504819D02*
X142646190Y-66504819D01*
X142646190Y-66504819D02*
X142741428Y-66457200D01*
X141884285Y-66457200D02*
X141789047Y-66504819D01*
X141789047Y-66504819D02*
X141598571Y-66504819D01*
X141598571Y-66504819D02*
X141503333Y-66457200D01*
X141503333Y-66457200D02*
X141455714Y-66361961D01*
X141455714Y-66361961D02*
X141455714Y-66314342D01*
X141455714Y-66314342D02*
X141503333Y-66219104D01*
X141503333Y-66219104D02*
X141598571Y-66171485D01*
X141598571Y-66171485D02*
X141741428Y-66171485D01*
X141741428Y-66171485D02*
X141836666Y-66123866D01*
X141836666Y-66123866D02*
X141884285Y-66028628D01*
X141884285Y-66028628D02*
X141884285Y-65981009D01*
X141884285Y-65981009D02*
X141836666Y-65885771D01*
X141836666Y-65885771D02*
X141741428Y-65838152D01*
X141741428Y-65838152D02*
X141598571Y-65838152D01*
X141598571Y-65838152D02*
X141503333Y-65885771D01*
X141027142Y-66409580D02*
X140979523Y-66457200D01*
X140979523Y-66457200D02*
X141027142Y-66504819D01*
X141027142Y-66504819D02*
X141074761Y-66457200D01*
X141074761Y-66457200D02*
X141027142Y-66409580D01*
X141027142Y-66409580D02*
X141027142Y-66504819D01*
X141027142Y-65885771D02*
X140979523Y-65933390D01*
X140979523Y-65933390D02*
X141027142Y-65981009D01*
X141027142Y-65981009D02*
X141074761Y-65933390D01*
X141074761Y-65933390D02*
X141027142Y-65885771D01*
X141027142Y-65885771D02*
X141027142Y-65981009D01*
X139836667Y-65457200D02*
X140693809Y-66742914D01*
X138789048Y-65457200D02*
X139646190Y-66742914D01*
X138027143Y-65838152D02*
X138027143Y-66647676D01*
X138027143Y-66647676D02*
X138074762Y-66742914D01*
X138074762Y-66742914D02*
X138122381Y-66790533D01*
X138122381Y-66790533D02*
X138217619Y-66838152D01*
X138217619Y-66838152D02*
X138360476Y-66838152D01*
X138360476Y-66838152D02*
X138455714Y-66790533D01*
X138027143Y-66457200D02*
X138122381Y-66504819D01*
X138122381Y-66504819D02*
X138312857Y-66504819D01*
X138312857Y-66504819D02*
X138408095Y-66457200D01*
X138408095Y-66457200D02*
X138455714Y-66409580D01*
X138455714Y-66409580D02*
X138503333Y-66314342D01*
X138503333Y-66314342D02*
X138503333Y-66028628D01*
X138503333Y-66028628D02*
X138455714Y-65933390D01*
X138455714Y-65933390D02*
X138408095Y-65885771D01*
X138408095Y-65885771D02*
X138312857Y-65838152D01*
X138312857Y-65838152D02*
X138122381Y-65838152D01*
X138122381Y-65838152D02*
X138027143Y-65885771D01*
X137550952Y-66504819D02*
X137550952Y-65838152D01*
X137550952Y-65504819D02*
X137598571Y-65552438D01*
X137598571Y-65552438D02*
X137550952Y-65600057D01*
X137550952Y-65600057D02*
X137503333Y-65552438D01*
X137503333Y-65552438D02*
X137550952Y-65504819D01*
X137550952Y-65504819D02*
X137550952Y-65600057D01*
X137217619Y-65838152D02*
X136836667Y-65838152D01*
X137074762Y-65504819D02*
X137074762Y-66361961D01*
X137074762Y-66361961D02*
X137027143Y-66457200D01*
X137027143Y-66457200D02*
X136931905Y-66504819D01*
X136931905Y-66504819D02*
X136836667Y-66504819D01*
X136503333Y-66504819D02*
X136503333Y-65504819D01*
X136074762Y-66504819D02*
X136074762Y-65981009D01*
X136074762Y-65981009D02*
X136122381Y-65885771D01*
X136122381Y-65885771D02*
X136217619Y-65838152D01*
X136217619Y-65838152D02*
X136360476Y-65838152D01*
X136360476Y-65838152D02*
X136455714Y-65885771D01*
X136455714Y-65885771D02*
X136503333Y-65933390D01*
X135170000Y-65838152D02*
X135170000Y-66504819D01*
X135598571Y-65838152D02*
X135598571Y-66361961D01*
X135598571Y-66361961D02*
X135550952Y-66457200D01*
X135550952Y-66457200D02*
X135455714Y-66504819D01*
X135455714Y-66504819D02*
X135312857Y-66504819D01*
X135312857Y-66504819D02*
X135217619Y-66457200D01*
X135217619Y-66457200D02*
X135170000Y-66409580D01*
X134693809Y-66504819D02*
X134693809Y-65504819D01*
X134693809Y-65885771D02*
X134598571Y-65838152D01*
X134598571Y-65838152D02*
X134408095Y-65838152D01*
X134408095Y-65838152D02*
X134312857Y-65885771D01*
X134312857Y-65885771D02*
X134265238Y-65933390D01*
X134265238Y-65933390D02*
X134217619Y-66028628D01*
X134217619Y-66028628D02*
X134217619Y-66314342D01*
X134217619Y-66314342D02*
X134265238Y-66409580D01*
X134265238Y-66409580D02*
X134312857Y-66457200D01*
X134312857Y-66457200D02*
X134408095Y-66504819D01*
X134408095Y-66504819D02*
X134598571Y-66504819D01*
X134598571Y-66504819D02*
X134693809Y-66457200D01*
X133789047Y-66409580D02*
X133741428Y-66457200D01*
X133741428Y-66457200D02*
X133789047Y-66504819D01*
X133789047Y-66504819D02*
X133836666Y-66457200D01*
X133836666Y-66457200D02*
X133789047Y-66409580D01*
X133789047Y-66409580D02*
X133789047Y-66504819D01*
X132884286Y-66457200D02*
X132979524Y-66504819D01*
X132979524Y-66504819D02*
X133170000Y-66504819D01*
X133170000Y-66504819D02*
X133265238Y-66457200D01*
X133265238Y-66457200D02*
X133312857Y-66409580D01*
X133312857Y-66409580D02*
X133360476Y-66314342D01*
X133360476Y-66314342D02*
X133360476Y-66028628D01*
X133360476Y-66028628D02*
X133312857Y-65933390D01*
X133312857Y-65933390D02*
X133265238Y-65885771D01*
X133265238Y-65885771D02*
X133170000Y-65838152D01*
X133170000Y-65838152D02*
X132979524Y-65838152D01*
X132979524Y-65838152D02*
X132884286Y-65885771D01*
X132312857Y-66504819D02*
X132408095Y-66457200D01*
X132408095Y-66457200D02*
X132455714Y-66409580D01*
X132455714Y-66409580D02*
X132503333Y-66314342D01*
X132503333Y-66314342D02*
X132503333Y-66028628D01*
X132503333Y-66028628D02*
X132455714Y-65933390D01*
X132455714Y-65933390D02*
X132408095Y-65885771D01*
X132408095Y-65885771D02*
X132312857Y-65838152D01*
X132312857Y-65838152D02*
X132170000Y-65838152D01*
X132170000Y-65838152D02*
X132074762Y-65885771D01*
X132074762Y-65885771D02*
X132027143Y-65933390D01*
X132027143Y-65933390D02*
X131979524Y-66028628D01*
X131979524Y-66028628D02*
X131979524Y-66314342D01*
X131979524Y-66314342D02*
X132027143Y-66409580D01*
X132027143Y-66409580D02*
X132074762Y-66457200D01*
X132074762Y-66457200D02*
X132170000Y-66504819D01*
X132170000Y-66504819D02*
X132312857Y-66504819D01*
X131550952Y-66504819D02*
X131550952Y-65838152D01*
X131550952Y-65933390D02*
X131503333Y-65885771D01*
X131503333Y-65885771D02*
X131408095Y-65838152D01*
X131408095Y-65838152D02*
X131265238Y-65838152D01*
X131265238Y-65838152D02*
X131170000Y-65885771D01*
X131170000Y-65885771D02*
X131122381Y-65981009D01*
X131122381Y-65981009D02*
X131122381Y-66504819D01*
X131122381Y-65981009D02*
X131074762Y-65885771D01*
X131074762Y-65885771D02*
X130979524Y-65838152D01*
X130979524Y-65838152D02*
X130836667Y-65838152D01*
X130836667Y-65838152D02*
X130741428Y-65885771D01*
X130741428Y-65885771D02*
X130693809Y-65981009D01*
X130693809Y-65981009D02*
X130693809Y-66504819D01*
X129503334Y-65457200D02*
X130360476Y-66742914D01*
X129170000Y-66504819D02*
X129170000Y-65838152D01*
X129170000Y-65933390D02*
X129122381Y-65885771D01*
X129122381Y-65885771D02*
X129027143Y-65838152D01*
X129027143Y-65838152D02*
X128884286Y-65838152D01*
X128884286Y-65838152D02*
X128789048Y-65885771D01*
X128789048Y-65885771D02*
X128741429Y-65981009D01*
X128741429Y-65981009D02*
X128741429Y-66504819D01*
X128741429Y-65981009D02*
X128693810Y-65885771D01*
X128693810Y-65885771D02*
X128598572Y-65838152D01*
X128598572Y-65838152D02*
X128455715Y-65838152D01*
X128455715Y-65838152D02*
X128360476Y-65885771D01*
X128360476Y-65885771D02*
X128312857Y-65981009D01*
X128312857Y-65981009D02*
X128312857Y-66504819D01*
X127836667Y-65838152D02*
X127836667Y-66838152D01*
X127836667Y-65885771D02*
X127741429Y-65838152D01*
X127741429Y-65838152D02*
X127550953Y-65838152D01*
X127550953Y-65838152D02*
X127455715Y-65885771D01*
X127455715Y-65885771D02*
X127408096Y-65933390D01*
X127408096Y-65933390D02*
X127360477Y-66028628D01*
X127360477Y-66028628D02*
X127360477Y-66314342D01*
X127360477Y-66314342D02*
X127408096Y-66409580D01*
X127408096Y-66409580D02*
X127455715Y-66457200D01*
X127455715Y-66457200D02*
X127550953Y-66504819D01*
X127550953Y-66504819D02*
X127741429Y-66504819D01*
X127741429Y-66504819D02*
X127836667Y-66457200D01*
X126931905Y-66504819D02*
X126931905Y-65838152D01*
X126931905Y-66028628D02*
X126884286Y-65933390D01*
X126884286Y-65933390D02*
X126836667Y-65885771D01*
X126836667Y-65885771D02*
X126741429Y-65838152D01*
X126741429Y-65838152D02*
X126646191Y-65838152D01*
X126170000Y-66504819D02*
X126265238Y-66457200D01*
X126265238Y-66457200D02*
X126312857Y-66409580D01*
X126312857Y-66409580D02*
X126360476Y-66314342D01*
X126360476Y-66314342D02*
X126360476Y-66028628D01*
X126360476Y-66028628D02*
X126312857Y-65933390D01*
X126312857Y-65933390D02*
X126265238Y-65885771D01*
X126265238Y-65885771D02*
X126170000Y-65838152D01*
X126170000Y-65838152D02*
X126027143Y-65838152D01*
X126027143Y-65838152D02*
X125931905Y-65885771D01*
X125931905Y-65885771D02*
X125884286Y-65933390D01*
X125884286Y-65933390D02*
X125836667Y-66028628D01*
X125836667Y-66028628D02*
X125836667Y-66314342D01*
X125836667Y-66314342D02*
X125884286Y-66409580D01*
X125884286Y-66409580D02*
X125931905Y-66457200D01*
X125931905Y-66457200D02*
X126027143Y-66504819D01*
X126027143Y-66504819D02*
X126170000Y-66504819D01*
X125455714Y-66457200D02*
X125360476Y-66504819D01*
X125360476Y-66504819D02*
X125170000Y-66504819D01*
X125170000Y-66504819D02*
X125074762Y-66457200D01*
X125074762Y-66457200D02*
X125027143Y-66361961D01*
X125027143Y-66361961D02*
X125027143Y-66314342D01*
X125027143Y-66314342D02*
X125074762Y-66219104D01*
X125074762Y-66219104D02*
X125170000Y-66171485D01*
X125170000Y-66171485D02*
X125312857Y-66171485D01*
X125312857Y-66171485D02*
X125408095Y-66123866D01*
X125408095Y-66123866D02*
X125455714Y-66028628D01*
X125455714Y-66028628D02*
X125455714Y-65981009D01*
X125455714Y-65981009D02*
X125408095Y-65885771D01*
X125408095Y-65885771D02*
X125312857Y-65838152D01*
X125312857Y-65838152D02*
X125170000Y-65838152D01*
X125170000Y-65838152D02*
X125074762Y-65885771D01*
X124598571Y-66504819D02*
X124598571Y-65504819D01*
X124503333Y-66123866D02*
X124217619Y-66504819D01*
X124217619Y-65838152D02*
X124598571Y-66219104D01*
X123074762Y-65457200D02*
X123931904Y-66742914D01*
X122312857Y-66504819D02*
X122312857Y-65981009D01*
X122312857Y-65981009D02*
X122360476Y-65885771D01*
X122360476Y-65885771D02*
X122455714Y-65838152D01*
X122455714Y-65838152D02*
X122646190Y-65838152D01*
X122646190Y-65838152D02*
X122741428Y-65885771D01*
X122312857Y-66457200D02*
X122408095Y-66504819D01*
X122408095Y-66504819D02*
X122646190Y-66504819D01*
X122646190Y-66504819D02*
X122741428Y-66457200D01*
X122741428Y-66457200D02*
X122789047Y-66361961D01*
X122789047Y-66361961D02*
X122789047Y-66266723D01*
X122789047Y-66266723D02*
X122741428Y-66171485D01*
X122741428Y-66171485D02*
X122646190Y-66123866D01*
X122646190Y-66123866D02*
X122408095Y-66123866D01*
X122408095Y-66123866D02*
X122312857Y-66076247D01*
X121836666Y-66504819D02*
X121836666Y-65838152D01*
X121836666Y-66028628D02*
X121789047Y-65933390D01*
X121789047Y-65933390D02*
X121741428Y-65885771D01*
X121741428Y-65885771D02*
X121646190Y-65838152D01*
X121646190Y-65838152D02*
X121550952Y-65838152D01*
X120789047Y-66504819D02*
X120789047Y-65504819D01*
X120789047Y-66457200D02*
X120884285Y-66504819D01*
X120884285Y-66504819D02*
X121074761Y-66504819D01*
X121074761Y-66504819D02*
X121169999Y-66457200D01*
X121169999Y-66457200D02*
X121217618Y-66409580D01*
X121217618Y-66409580D02*
X121265237Y-66314342D01*
X121265237Y-66314342D02*
X121265237Y-66028628D01*
X121265237Y-66028628D02*
X121217618Y-65933390D01*
X121217618Y-65933390D02*
X121169999Y-65885771D01*
X121169999Y-65885771D02*
X121074761Y-65838152D01*
X121074761Y-65838152D02*
X120884285Y-65838152D01*
X120884285Y-65838152D02*
X120789047Y-65885771D01*
X119884285Y-65838152D02*
X119884285Y-66504819D01*
X120312856Y-65838152D02*
X120312856Y-66361961D01*
X120312856Y-66361961D02*
X120265237Y-66457200D01*
X120265237Y-66457200D02*
X120169999Y-66504819D01*
X120169999Y-66504819D02*
X120027142Y-66504819D01*
X120027142Y-66504819D02*
X119931904Y-66457200D01*
X119931904Y-66457200D02*
X119884285Y-66409580D01*
X119408094Y-66504819D02*
X119408094Y-65838152D01*
X119408094Y-65504819D02*
X119455713Y-65552438D01*
X119455713Y-65552438D02*
X119408094Y-65600057D01*
X119408094Y-65600057D02*
X119360475Y-65552438D01*
X119360475Y-65552438D02*
X119408094Y-65504819D01*
X119408094Y-65504819D02*
X119408094Y-65600057D01*
X118931904Y-65838152D02*
X118931904Y-66504819D01*
X118931904Y-65933390D02*
X118884285Y-65885771D01*
X118884285Y-65885771D02*
X118789047Y-65838152D01*
X118789047Y-65838152D02*
X118646190Y-65838152D01*
X118646190Y-65838152D02*
X118550952Y-65885771D01*
X118550952Y-65885771D02*
X118503333Y-65981009D01*
X118503333Y-65981009D02*
X118503333Y-66504819D01*
X117884285Y-66504819D02*
X117979523Y-66457200D01*
X117979523Y-66457200D02*
X118027142Y-66409580D01*
X118027142Y-66409580D02*
X118074761Y-66314342D01*
X118074761Y-66314342D02*
X118074761Y-66028628D01*
X118074761Y-66028628D02*
X118027142Y-65933390D01*
X118027142Y-65933390D02*
X117979523Y-65885771D01*
X117979523Y-65885771D02*
X117884285Y-65838152D01*
X117884285Y-65838152D02*
X117741428Y-65838152D01*
X117741428Y-65838152D02*
X117646190Y-65885771D01*
X117646190Y-65885771D02*
X117598571Y-65933390D01*
X117598571Y-65933390D02*
X117550952Y-66028628D01*
X117550952Y-66028628D02*
X117550952Y-66314342D01*
X117550952Y-66314342D02*
X117598571Y-66409580D01*
X117598571Y-66409580D02*
X117646190Y-66457200D01*
X117646190Y-66457200D02*
X117741428Y-66504819D01*
X117741428Y-66504819D02*
X117884285Y-66504819D01*
X117360476Y-66600057D02*
X116598571Y-66600057D01*
X116360475Y-66504819D02*
X116360475Y-65838152D01*
X116360475Y-65504819D02*
X116408094Y-65552438D01*
X116408094Y-65552438D02*
X116360475Y-65600057D01*
X116360475Y-65600057D02*
X116312856Y-65552438D01*
X116312856Y-65552438D02*
X116360475Y-65504819D01*
X116360475Y-65504819D02*
X116360475Y-65600057D01*
X115455714Y-66457200D02*
X115550952Y-66504819D01*
X115550952Y-66504819D02*
X115741428Y-66504819D01*
X115741428Y-66504819D02*
X115836666Y-66457200D01*
X115836666Y-66457200D02*
X115884285Y-66409580D01*
X115884285Y-66409580D02*
X115931904Y-66314342D01*
X115931904Y-66314342D02*
X115931904Y-66028628D01*
X115931904Y-66028628D02*
X115884285Y-65933390D01*
X115884285Y-65933390D02*
X115836666Y-65885771D01*
X115836666Y-65885771D02*
X115741428Y-65838152D01*
X115741428Y-65838152D02*
X115550952Y-65838152D01*
X115550952Y-65838152D02*
X115455714Y-65885771D01*
X115074761Y-66457200D02*
X114979523Y-66504819D01*
X114979523Y-66504819D02*
X114789047Y-66504819D01*
X114789047Y-66504819D02*
X114693809Y-66457200D01*
X114693809Y-66457200D02*
X114646190Y-66361961D01*
X114646190Y-66361961D02*
X114646190Y-66314342D01*
X114646190Y-66314342D02*
X114693809Y-66219104D01*
X114693809Y-66219104D02*
X114789047Y-66171485D01*
X114789047Y-66171485D02*
X114931904Y-66171485D01*
X114931904Y-66171485D02*
X115027142Y-66123866D01*
X115027142Y-66123866D02*
X115074761Y-66028628D01*
X115074761Y-66028628D02*
X115074761Y-65981009D01*
X115074761Y-65981009D02*
X115027142Y-65885771D01*
X115027142Y-65885771D02*
X114931904Y-65838152D01*
X114931904Y-65838152D02*
X114789047Y-65838152D01*
X114789047Y-65838152D02*
X114693809Y-65885771D01*
X114217618Y-65838152D02*
X114217618Y-66838152D01*
X114217618Y-65885771D02*
X114122380Y-65838152D01*
X114122380Y-65838152D02*
X113931904Y-65838152D01*
X113931904Y-65838152D02*
X113836666Y-65885771D01*
X113836666Y-65885771D02*
X113789047Y-65933390D01*
X113789047Y-65933390D02*
X113741428Y-66028628D01*
X113741428Y-66028628D02*
X113741428Y-66314342D01*
X113741428Y-66314342D02*
X113789047Y-66409580D01*
X113789047Y-66409580D02*
X113836666Y-66457200D01*
X113836666Y-66457200D02*
X113931904Y-66504819D01*
X113931904Y-66504819D02*
X114122380Y-66504819D01*
X114122380Y-66504819D02*
X114217618Y-66457200D01*
X113550952Y-66600057D02*
X112789047Y-66600057D01*
X112598570Y-66457200D02*
X112503332Y-66504819D01*
X112503332Y-66504819D02*
X112312856Y-66504819D01*
X112312856Y-66504819D02*
X112217618Y-66457200D01*
X112217618Y-66457200D02*
X112169999Y-66361961D01*
X112169999Y-66361961D02*
X112169999Y-66314342D01*
X112169999Y-66314342D02*
X112217618Y-66219104D01*
X112217618Y-66219104D02*
X112312856Y-66171485D01*
X112312856Y-66171485D02*
X112455713Y-66171485D01*
X112455713Y-66171485D02*
X112550951Y-66123866D01*
X112550951Y-66123866D02*
X112598570Y-66028628D01*
X112598570Y-66028628D02*
X112598570Y-65981009D01*
X112598570Y-65981009D02*
X112550951Y-65885771D01*
X112550951Y-65885771D02*
X112455713Y-65838152D01*
X112455713Y-65838152D02*
X112312856Y-65838152D01*
X112312856Y-65838152D02*
X112217618Y-65885771D01*
X111741427Y-66504819D02*
X111741427Y-65504819D01*
X111312856Y-66504819D02*
X111312856Y-65981009D01*
X111312856Y-65981009D02*
X111360475Y-65885771D01*
X111360475Y-65885771D02*
X111455713Y-65838152D01*
X111455713Y-65838152D02*
X111598570Y-65838152D01*
X111598570Y-65838152D02*
X111693808Y-65885771D01*
X111693808Y-65885771D02*
X111741427Y-65933390D01*
X110836665Y-66504819D02*
X110836665Y-65838152D01*
X110836665Y-65504819D02*
X110884284Y-65552438D01*
X110884284Y-65552438D02*
X110836665Y-65600057D01*
X110836665Y-65600057D02*
X110789046Y-65552438D01*
X110789046Y-65552438D02*
X110836665Y-65504819D01*
X110836665Y-65504819D02*
X110836665Y-65600057D01*
X109979523Y-66457200D02*
X110074761Y-66504819D01*
X110074761Y-66504819D02*
X110265237Y-66504819D01*
X110265237Y-66504819D02*
X110360475Y-66457200D01*
X110360475Y-66457200D02*
X110408094Y-66361961D01*
X110408094Y-66361961D02*
X110408094Y-65981009D01*
X110408094Y-65981009D02*
X110360475Y-65885771D01*
X110360475Y-65885771D02*
X110265237Y-65838152D01*
X110265237Y-65838152D02*
X110074761Y-65838152D01*
X110074761Y-65838152D02*
X109979523Y-65885771D01*
X109979523Y-65885771D02*
X109931904Y-65981009D01*
X109931904Y-65981009D02*
X109931904Y-66076247D01*
X109931904Y-66076247D02*
X110408094Y-66171485D01*
X109360475Y-66504819D02*
X109455713Y-66457200D01*
X109455713Y-66457200D02*
X109503332Y-66361961D01*
X109503332Y-66361961D02*
X109503332Y-65504819D01*
X108550951Y-66504819D02*
X108550951Y-65504819D01*
X108550951Y-66457200D02*
X108646189Y-66504819D01*
X108646189Y-66504819D02*
X108836665Y-66504819D01*
X108836665Y-66504819D02*
X108931903Y-66457200D01*
X108931903Y-66457200D02*
X108979522Y-66409580D01*
X108979522Y-66409580D02*
X109027141Y-66314342D01*
X109027141Y-66314342D02*
X109027141Y-66028628D01*
X109027141Y-66028628D02*
X108979522Y-65933390D01*
X108979522Y-65933390D02*
X108931903Y-65885771D01*
X108931903Y-65885771D02*
X108836665Y-65838152D01*
X108836665Y-65838152D02*
X108646189Y-65838152D01*
X108646189Y-65838152D02*
X108550951Y-65885771D01*
D11*
%TO.C,J1*%
X103870000Y-78470000D02*
X101210000Y-78470000D01*
X103870000Y-60630000D02*
X103870000Y-78470000D01*
X103870000Y-60630000D02*
X101210000Y-60630000D01*
X103870000Y-59360000D02*
X103870000Y-58030000D01*
X103870000Y-58030000D02*
X102540000Y-58030000D01*
X101210000Y-60630000D02*
X101210000Y-78470000D01*
%TO.C,J3*%
X103870000Y-96250000D02*
X101210000Y-96250000D01*
X103870000Y-83490000D02*
X103870000Y-96250000D01*
X103870000Y-83490000D02*
X101210000Y-83490000D01*
X103870000Y-82220000D02*
X103870000Y-80890000D01*
X103870000Y-80890000D02*
X102540000Y-80890000D01*
X101210000Y-83490000D02*
X101210000Y-96250000D01*
%TO.C,J2*%
X152130000Y-74406000D02*
X149470000Y-74406000D01*
X152130000Y-51486000D02*
X152130000Y-74406000D01*
X152130000Y-51486000D02*
X149470000Y-51486000D01*
X152130000Y-50216000D02*
X152130000Y-48886000D01*
X152130000Y-48886000D02*
X150800000Y-48886000D01*
X149470000Y-51486000D02*
X149470000Y-74406000D01*
%TO.C,J4*%
X152130000Y-96250000D02*
X149470000Y-96250000D01*
X152130000Y-78410000D02*
X152130000Y-96250000D01*
X152130000Y-78410000D02*
X149470000Y-78410000D01*
X152130000Y-77140000D02*
X152130000Y-75810000D01*
X152130000Y-75810000D02*
X150800000Y-75810000D01*
X149470000Y-78410000D02*
X149470000Y-96250000D01*
%TD*%
%LPC*%
D12*
%TO.C,J5*%
X124130000Y-89840000D03*
D13*
X124130000Y-87300000D03*
X126670000Y-89840000D03*
X126670000Y-87300000D03*
X129210000Y-89840000D03*
X129210000Y-87300000D03*
%TD*%
D14*
%TO.C,MH1*%
X150800000Y-46660000D03*
%TD*%
D15*
%TO.C,JP1*%
X110160000Y-69520000D03*
D16*
X112700000Y-69520000D03*
X115240000Y-69520000D03*
%TD*%
D17*
%TO.C,D2*%
X107620000Y-60630000D03*
D18*
X110160000Y-60630000D03*
%TD*%
D17*
%TO.C,D3*%
X107620000Y-54280000D03*
D18*
X110160000Y-54280000D03*
%TD*%
D17*
%TO.C,D1*%
X107620000Y-47930000D03*
D18*
X110160000Y-47930000D03*
%TD*%
D15*
%TO.C,JP2*%
X112700000Y-75870000D03*
D16*
X112700000Y-78410000D03*
%TD*%
D14*
%TO.C,MH2*%
X102540000Y-45390000D03*
%TD*%
%TO.C,MH3*%
X135560000Y-97460000D03*
%TD*%
%TO.C,MH4*%
X107620000Y-97460000D03*
%TD*%
D15*
%TO.C,J1*%
X102540000Y-59360000D03*
D16*
X102540000Y-61900000D03*
X102540000Y-64440000D03*
X102540000Y-66980000D03*
X102540000Y-69520000D03*
X102540000Y-72060000D03*
X102540000Y-74600000D03*
X102540000Y-77140000D03*
%TD*%
D15*
%TO.C,J3*%
X102540000Y-82220000D03*
D16*
X102540000Y-84760000D03*
X102540000Y-87300000D03*
X102540000Y-89840000D03*
X102540000Y-92380000D03*
X102540000Y-94920000D03*
%TD*%
D15*
%TO.C,J2*%
X150800000Y-50216000D03*
D16*
X150800000Y-52756000D03*
X150800000Y-55296000D03*
X150800000Y-57836000D03*
X150800000Y-60376000D03*
X150800000Y-62916000D03*
X150800000Y-65456000D03*
X150800000Y-67996000D03*
X150800000Y-70536000D03*
X150800000Y-73076000D03*
%TD*%
D15*
%TO.C,J4*%
X150800000Y-77140000D03*
D16*
X150800000Y-79680000D03*
X150800000Y-82220000D03*
X150800000Y-84760000D03*
X150800000Y-87300000D03*
X150800000Y-89840000D03*
X150800000Y-92380000D03*
X150800000Y-94920000D03*
%TD*%
%LPD*%
M02*
