M48
; DRILL file {KiCad 7.0.10-7.0.10~ubuntu22.04.1} date Tue 23 Jan 2024 12:06:22 PM EST
; FORMAT={-:-/ absolute / inch / decimal}
; #@! TF.CreationDate,2024-01-23T12:06:22-05:00
; #@! TF.GenerationSoftware,Kicad,Pcbnew,7.0.10-7.0.10~ubuntu22.04.1
; #@! TF.FileFunction,Plated,1,2,PTH
FMAT,2
INCH
; #@! TA.AperFunction,Plated,PTH,ViaDrill
T1C0.0118
; #@! TA.AperFunction,Plated,PTH,ViaDrill
T2C0.0157
; #@! TA.AperFunction,Plated,PTH,ComponentDrill
T3C0.0354
; #@! TA.AperFunction,Plated,PTH,ComponentDrill
T4C0.0394
%
G90
G05
T1
X3.962Y-2.237
X3.962Y-3.137
X3.962Y-3.787
X3.987Y-1.287
X3.987Y-1.887
X4.112Y-3.912
X4.212Y-2.987
X4.237Y-3.312
X4.237Y-3.662
X4.287Y-1.762
X4.287Y-2.012
X4.287Y-2.262
X4.287Y-2.512
X4.287Y-3.487
X4.387Y-2.887
X4.387Y-3.312
X4.387Y-3.387
X4.387Y-3.562
X4.387Y-3.662
X4.4752Y-3.4843
X4.487Y-2.787
X4.487Y-3.237
X4.512Y-2.987
X4.5933Y-3.3268
X4.6524Y-3.2283
X4.687Y-3.037
X4.712Y-2.862
X4.7311Y-3.2874
X4.7803Y-2.9823
X4.7803Y-3.0906
X4.787Y-3.912
X4.8098Y-3.3858
X4.8098Y-3.563
X4.8295Y-3.2087
X4.862Y-2.862
X4.8886Y-3.2874
X4.9083Y-2.9921
X4.9083Y-3.0807
X4.9102Y-2.837
X4.9358Y-2.737
X4.985Y-2.787
X4.987Y-1.287
X4.987Y-1.787
X4.987Y-2.012
X4.987Y-2.312
X5.0126Y-2.687
X5.062Y-2.637
X5.0638Y-2.9921
X5.0657Y-3.0807
X5.087Y-3.212
X5.087Y-3.337
X5.112Y-2.887
X5.112Y-3.137
X5.112Y-3.187
X5.137Y-3.387
X5.137Y-3.487
X5.187Y-3.437
X5.362Y-3.087
X5.362Y-3.512
X5.387Y-2.887
X5.412Y-3.912
X5.487Y-2.437
X5.512Y-2.537
X5.512Y-2.637
X5.537Y-3.812
X5.637Y-2.387
X5.687Y-1.787
X5.687Y-2.137
X5.687Y-2.887
X5.687Y-3.162
X5.837Y-2.412
X5.837Y-3.462
X5.937Y-3.812
X5.987Y-1.287
X6.012Y-1.912
T2
X5.587Y-2.437
X5.687Y-2.437
X5.787Y-2.437
X5.962Y-2.962
T3
X4.237Y-1.887
X4.237Y-2.137
X4.237Y-2.387
X4.337Y-1.887
X4.337Y-2.137
X4.337Y-2.387
T4
X4.037Y-2.337
X4.037Y-2.437
X4.037Y-2.537
X4.037Y-2.637
X4.037Y-2.737
X4.037Y-2.837
X4.037Y-2.937
X4.037Y-3.037
X4.037Y-3.237
X4.037Y-3.337
X4.037Y-3.437
X4.037Y-3.537
X4.037Y-3.637
X4.037Y-3.737
X4.337Y-2.737
X4.437Y-2.737
X4.437Y-2.987
X4.437Y-3.087
X4.537Y-2.737
X4.887Y-3.437
X4.887Y-3.537
X4.987Y-3.437
X4.987Y-3.537
X5.087Y-3.437
X5.087Y-3.537
X5.937Y-1.977
X5.937Y-2.077
X5.937Y-2.177
X5.937Y-2.277
X5.937Y-2.377
X5.937Y-2.477
X5.937Y-2.577
X5.937Y-2.677
X5.937Y-2.777
X5.937Y-2.877
X5.937Y-3.037
X5.937Y-3.137
X5.937Y-3.237
X5.937Y-3.337
X5.937Y-3.437
X5.937Y-3.537
X5.937Y-3.637
X5.937Y-3.737
M30
